<svg width="592" height="564" viewBox="0 0 592 564" fill="none" xmlns="http://www.w3.org/2000/svg">
<path d="M43.5808 255.688H38.9238V267.322H43.5808V255.688Z" fill="#28A57E"/>
<path d="M43.5646 255.688H41.2441V267.323H43.5646V255.688Z" fill="#21EAC3"/>
<path d="M25.5312 276.637L28.7057 304.563H56.0998L59.2743 276.637H25.5312Z" fill="#9070E5"/>
<path d="M24.3711 276.637L27.5456 304.563H41.2426V276.637H24.3711Z" fill="#743CC6"/>
<path d="M64.5121 264.986H20.2949V276.621H64.5121V264.986Z" fill="#8155C6"/>
<path d="M41.2433 264.986H20.2949V276.621H41.2433V264.986Z" fill="#5C27AF"/>
<path d="M50.6853 241.718C46.7374 241.718 43.2728 243.651 41.2424 246.584C39.2121 243.651 35.7475 241.718 31.7996 241.718H27.2715V253.481C27.2715 255.979 29.3019 258.009 31.7996 258.009H39.3732H43.0956H50.6692C53.1669 258.009 55.1973 255.979 55.1973 253.481V241.718H50.6853Z" fill="#26B28D"/>
<path d="M34.1199 241.718H29.5918V246.826C29.5918 252.997 34.6033 258.009 40.775 258.009H43.5628V246.568C41.5485 243.651 38.0678 241.718 34.1199 241.718Z" fill="#4BF9BB"/>
<path d="M160.584 299.728H7.306C3.79312 299.728 0.957031 302.564 0.957031 306.077V473.858C0.957031 477.354 3.79312 480.207 7.306 480.207H160.584C164.097 480.207 166.933 477.371 166.933 473.858V306.077C166.933 302.564 164.097 299.728 160.584 299.728Z" fill="url(#paint0_linear_1488_6)"/>
<path d="M155.65 435.087H10.623V473.761H155.65V435.087Z" fill="#5669EF"/>
<path d="M155.65 314.231H10.623V352.905H155.65V314.231Z" fill="#5669EF"/>
<path d="M155.65 373.853H10.623V412.527H155.65V373.853Z" fill="#5669EF"/>
<path d="M41.2397 480.207H13.8457V489.875H41.2397V480.207Z" fill="#5669EF"/>
<path d="M154.039 480.207H126.645V489.875H154.039V480.207Z" fill="#5669EF"/>
<path d="M155.65 431.864H10.623V470.538H155.65V431.864Z" fill="url(#paint1_linear_1488_6)"/>
<path d="M155.65 311.008H10.623V349.682H155.65V311.008Z" fill="url(#paint2_linear_1488_6)"/>
<path d="M155.65 370.63H10.623V409.304H155.65V370.63Z" fill="url(#paint3_linear_1488_6)"/>
<path d="M60.4668 329.539C60.4668 330.877 61.5464 331.957 62.8839 331.957H67.0253V327.122H62.8839C61.5464 327.122 60.4668 328.202 60.4668 329.539Z" fill="#EBF0F3"/>
<path d="M105.007 327.122H100.865V331.957H105.007C106.344 331.957 107.424 330.877 107.424 329.539C107.424 328.202 106.344 327.122 105.007 327.122Z" fill="#EBF0F3"/>
<path d="M67.2363 332.343C80.5305 333.584 87.3629 333.584 100.657 332.343C100.657 329.346 100.657 330.426 100.657 327.429C87.3468 326.172 80.5305 326.172 67.2363 327.429C67.2363 330.426 67.2363 329.346 67.2363 332.343Z" fill="url(#paint4_linear_1488_6)"/>
<path d="M60.4668 390.773C60.4668 392.111 61.5464 393.19 62.8839 393.19H67.0253V388.356H62.8839C61.5464 388.356 60.4668 389.436 60.4668 390.773Z" fill="#EBF0F3"/>
<path d="M105.007 388.356H100.865V393.19H105.007C106.344 393.19 107.424 392.111 107.424 390.773C107.424 389.436 106.344 388.356 105.007 388.356Z" fill="#EBF0F3"/>
<path d="M67.2363 392.642C80.5305 393.883 87.3629 393.883 100.657 392.642C100.657 389.645 100.657 390.725 100.657 387.727C87.3468 386.47 80.5305 386.47 67.2363 387.727C67.2363 390.708 67.2363 389.645 67.2363 392.642Z" fill="url(#paint5_linear_1488_6)"/>
<path d="M60.4668 450.395C60.4668 451.733 61.5464 452.813 62.8839 452.813H67.0253V447.978H62.8839C61.5464 447.978 60.4668 449.058 60.4668 450.395Z" fill="#EBF0F3"/>
<path d="M105.007 447.978H100.865V452.813H105.007C106.344 452.813 107.424 451.733 107.424 450.395C107.424 449.058 106.344 447.978 105.007 447.978Z" fill="#EBF0F3"/>
<path d="M67.2363 452.941C80.5305 454.182 87.3629 454.182 100.657 452.941C100.657 449.944 100.657 451.024 100.657 448.011C87.3468 446.754 80.5305 446.754 67.2363 448.011C67.2363 451.008 67.2363 449.944 67.2363 452.941Z" fill="url(#paint6_linear_1488_6)"/>
<path d="M220.918 530.16C309.469 530.16 381.253 523.667 381.253 515.658C381.253 507.648 309.469 501.155 220.918 501.155C132.367 501.155 60.582 507.648 60.582 515.658C60.582 523.667 132.367 530.16 220.918 530.16Z" fill="#9AD1ED" fill-opacity="0.2"/>
<path d="M145.989 127.323C153.047 126.388 161.088 142.954 162.103 145.049C166.744 154.62 166.889 163.258 166.937 169.22C167.066 188.637 159.525 191.135 162.103 206.282C164.15 218.271 168.549 227.231 168.549 227.231C171.014 232.242 172.803 234.273 173.383 238.511C174.398 245.794 171.256 255.221 166.937 256.236C158.542 258.202 140.72 229.487 134.709 199.837C127.877 166.094 135.837 128.66 145.989 127.323Z" fill="url(#paint7_linear_1488_6)"/>
<path d="M168.548 483.445C165.857 484.718 165.825 486.201 160.491 491.502C157.687 494.29 157.574 494 157.268 494.725C155.673 498.415 160.04 503.588 168.548 514.062C172.48 518.896 178.216 525.342 178.216 525.342C187.353 524.81 196.458 523.682 205.61 523.731C205.61 523.731 204.563 517.785 203.226 517.237C201.34 516.447 199.439 515.657 197.553 514.868C194.331 513.53 191.108 512.177 187.885 510.839C184.888 507.681 178.249 500.687 178.216 493.114C178.216 492.147 178.313 491.47 178.216 489.891C178.023 486.861 177.959 484.589 176.605 483.445C174.575 481.721 170.917 482.317 168.548 483.445Z" fill="#040A46"/>
<path d="M323.242 504.393C323.129 508.245 324.853 514.062 324.853 514.062C324.853 514.062 326.448 514.062 326.464 514.062C329.462 514.062 375.323 515.448 377.143 515.496C377.53 515.512 379.641 510.839 379.641 510.839C376.418 506.005 376.418 506.005 376.418 506.005C372.986 501.074 362.834 502.476 352.247 499.559C339.533 496.046 337.1 489.311 331.299 491.502C326.609 493.259 323.387 499.479 323.242 504.393Z" fill="#040A46"/>
<path d="M88.202 514.03C86.4778 513.627 112.873 394.028 112.873 394.028C113.276 392.304 115.016 391.224 116.74 391.627C118.464 392.03 119.544 393.77 119.141 395.494C119.157 395.494 89.9262 514.433 88.202 514.03Z" fill="#C6D1E3"/>
<path d="M215.844 514.03C217.568 513.627 191.173 394.028 191.173 394.028C190.77 392.304 189.03 391.224 187.306 391.627C185.581 392.03 184.502 393.77 184.905 395.494C184.905 395.494 214.12 514.433 215.844 514.03Z" fill="#C6D1E3"/>
<path d="M117.349 390.89L116.576 392.304L194.729 435.01L195.502 433.596L117.349 390.89Z" fill="black"/>
<path d="M186.179 389.27L108.049 433.613L108.844 435.014L186.975 390.671L186.179 389.27Z" fill="black"/>
<path d="M84.7516 246.567C86.9431 240.202 90.9878 235.513 91.1972 235.287C93.5821 232.564 96.5633 229.148 99.2543 228.842C107.924 227.875 122.539 258.347 128.26 293.298C134.947 334.099 123.748 345.701 134.705 356.143C146.775 367.649 164.339 357.352 213.665 367.423C227.313 370.211 235.983 372.048 236.225 375.48C236.74 382.635 200.693 396.01 165.322 393.206C153.285 392.255 108.343 389.161 89.5858 357.755C82.9468 346.62 90.0531 349.488 81.5288 291.687C81.5288 291.687 77.8386 266.613 84.7516 246.567Z" fill="#7199F4"/>
<path d="M162.1 331.972C163.115 332.133 164.662 331.327 168.546 333.583C192.395 347.393 207.526 343.123 226.557 360.977C227.089 361.477 226.525 360.961 231.391 365.812C242.848 377.237 246.554 380.621 251.711 386.824C253.419 388.887 254.708 390.515 255.562 391.594C280.007 422.678 334.521 491.502 334.521 491.502C334.521 492.308 334.473 496.336 331.299 499.559C327.431 503.475 322.226 502.862 321.63 502.782C265.875 443.321 234.614 414.154 234.614 414.154C226.057 406.178 221.787 402.181 218.5 399.651C188.624 376.576 159.635 362.685 155.655 360.977C134.513 351.889 125.215 351.357 125.038 346.475C124.78 339.304 144.407 329.216 162.1 331.972Z" fill="url(#paint8_linear_1488_6)"/>
<path d="M118.593 346.475C113.082 349.118 112.39 359.753 113.759 367.423C114.984 374.24 118.867 378.784 120.205 380.315C138.446 401.166 184.952 390.982 189.496 389.983C193.363 389.145 210.444 385.149 210.444 385.149C182.744 450.153 168.547 483.445 168.547 483.445C168.708 483.252 168.934 483.058 169.127 483.091C170.014 483.3 168.225 487.86 170.159 489.891C171.867 491.696 175.299 490.197 178.216 493.114C201.887 457.582 219.806 430.977 231.392 415.766C233.004 413.655 240.835 403.438 244.284 388.372C245.734 382.023 247.184 375.319 244.284 369.035C241.448 362.895 235.26 358.931 220.113 354.532C192.573 346.539 167.725 346.491 152.433 346.475C134.353 346.443 133.145 348.489 125.039 346.475C123.331 346.04 120.93 345.347 118.593 346.475Z" fill="url(#paint9_linear_1488_6)"/>
<path d="M84.7524 246.567C82.303 246.438 76.7759 275.605 78.3067 311.024C79.8376 346.281 80.8205 369.308 97.6437 383.537C110.841 394.688 127.938 395.268 147.598 396.429C178.778 398.266 204.303 390.337 192.717 389.983C159.2 388.952 125.634 384.166 113.758 377.092C70.2174 351.18 89.3771 246.809 84.7524 246.567Z" fill="#C7D7F9"/>
<path d="M215.277 242.523L320.825 295.7L357.887 242.523H433.624L224.5 137L215.277 242.523Z" fill="url(#paint10_linear_1488_6)"/>
<path d="M152.434 225.619C156.011 223.83 161.103 235.126 183.051 253.013C193.686 261.682 208.834 272.35 208.834 272.35C208.834 272.35 211.992 270.787 212.056 270.739C230.298 257.299 251.182 247.808 270.067 235.287C271.534 231.275 274.015 225.522 278.124 219.173C280.123 216.096 281.154 214.5 282.959 212.728C290.661 205.17 303.569 203.124 305.518 206.282C306.775 208.312 303.988 213.324 300.684 215.95C298.299 217.836 296.221 218.045 294.239 220.785C292.901 222.638 291.999 225.119 292.627 225.619C293.803 226.554 299.685 219.979 300.684 220.785C301.941 221.8 293.965 233.499 294.239 233.676C294.416 233.789 297.719 229.035 297.461 228.842C297.22 228.648 294.625 232.935 289.146 235.674C287.986 236.254 287.374 236.367 286.181 236.899C285.086 237.382 280.687 239.397 274.902 243.345C264.008 250.789 248.523 264.905 234.616 275.573C222.176 285.128 215.843 289.898 210.445 290.076C202.678 290.333 193.88 284.339 176.605 272.35C167.871 266.291 163.456 263.181 160.491 259.459C150.146 246.422 148.164 227.746 152.434 225.619Z" fill="#FCC881"/>
<path d="M125.039 211.116C118.239 211.809 112.148 220.785 112.148 220.785C112.47 219.141 112.776 217.191 112.309 217.014C111.181 216.595 104.284 226.118 102.48 236.899C100.288 250.016 107.378 254.801 110.537 277.184C111.036 280.777 111.407 284.161 112.664 289.431C114.001 295.055 115.371 298.261 116.193 302.806C116.821 306.302 116.934 308.881 116.982 312.635C117.24 332.278 111.906 344.348 116.982 348.086C118.03 348.86 119.915 349.569 121.817 349.698C124.991 349.923 127.456 348.521 128.262 348.086C132.597 345.734 133.789 346.942 145.988 343.252C159.781 339.078 166.694 337 168.548 333.584C171.367 328.379 166.92 324.705 163.713 309.412C160.764 295.361 159.137 288.271 162.102 280.407C165.067 272.527 171.239 266.903 171.77 254.624C171.803 253.883 171.851 252.836 171.77 251.401C171.4 244.166 167.226 237.35 158.879 224.007C155.479 218.561 150.822 211.116 150.822 211.116C150.822 211.116 149.211 210.584 145.988 209.505C145.988 209.505 142.942 214.677 139.542 215.95C134.627 217.771 131.533 210.455 125.039 211.116Z" fill="url(#paint11_linear_1488_6)"/>
<path d="M157.266 180.499C156.895 185.93 156.702 188.669 155.655 190.168C152.432 194.809 146.55 194.341 143.182 196.146C142.296 196.629 141.587 197.274 141.152 198.225C140.104 200.481 141.345 202.978 142.876 205.444C144.842 208.602 147.275 211.728 145.986 214.339C144.165 218.045 135.593 219.205 129.872 215.95C124.313 212.792 123.749 206.781 120.204 195.002C113.355 172.233 109.246 174.102 108.924 164.385C108.36 147.562 120.22 128.032 133.095 127.322C139.363 126.968 144.713 131.158 145.986 132.157C146.969 132.93 147.662 133.704 148 134.074C148.806 134.928 151.771 138.232 154.043 145.048C155.01 147.981 155.461 150.35 155.622 151.252C155.622 151.252 155.639 151.365 155.655 151.494C158.185 166.883 157.266 180.499 157.266 180.499Z" fill="#FCC881"/>
<path d="M147.599 133.768C149.323 136.073 138.672 147.659 133.096 153.105C124.814 161.195 122.042 161.275 120.205 165.997C118.706 169.864 119.158 173.458 125.039 190.168C130.228 204.896 132.822 212.277 136.319 219.173C143.619 233.612 148.115 233.499 150.822 243.345C153.271 252.207 152.079 259.668 150.822 267.516C147.809 286.369 140.122 293.766 144.376 304.578C146.262 309.364 149.517 312.394 149.21 312.635C148.711 313.038 139.042 306.351 136.319 296.521C132.42 282.47 146.6 275.992 144.376 259.459C143.135 250.209 137.447 242.926 131.485 235.288C124.524 226.376 121.333 226.167 116.982 219.173C111.213 209.892 110.859 200.642 110.537 191.779C110.069 179.371 109.264 160.405 121.816 146.66C131.453 136.105 145.939 131.545 147.599 133.768Z" fill="url(#paint12_linear_1488_6)"/>
<path d="M136.317 246.567L187.882 299.744H187.898C204.157 302.693 262.007 294.91 262.007 294.91C262.007 294.91 266.906 290.253 271.676 288.464C275.769 286.933 279.201 286.885 282.956 286.852C284.567 286.836 291.738 286.836 300.681 290.075C304.532 291.461 307.127 292.138 307.127 293.298C307.127 294.007 306.176 294.571 305.515 294.91C299.086 298.148 283.052 298.132 282.956 298.132C276.558 298.132 274.898 299.502 262.007 302.967C227.668 312.168 183.048 317.469 183.048 317.469C183.048 317.469 179.986 315.939 179.825 315.858C145.776 298.181 128.276 270.754 128.26 270.706C128.888 260.651 136.317 246.567 136.317 246.567Z" fill="#FCC881"/>
<path d="M145.987 132.157C146.325 128.08 136.302 121.715 126.65 122.489C112.502 123.617 103.865 139.683 99.2559 148.271C96.307 153.75 90.232 165.401 91.1988 180.5C91.9562 192.36 96.1459 192.295 99.2559 206.282C104.461 229.696 94.0027 235.723 100.867 254.625C104.267 264.003 108.054 265.824 110.536 277.184C113.179 289.238 111.164 297.424 110.536 299.744C108.554 306.996 105.299 310.75 105.702 311.024C106.749 311.717 127.294 295.361 125.039 278.796C123.862 270.191 117.143 265.824 110.536 248.179C109.247 244.731 108.086 241.137 108.924 236.899C109.827 232.307 112.163 231.581 113.759 225.619C115.128 220.479 113.823 219.415 115.37 215.951C117.594 210.971 121.284 210.955 123.427 207.894C128.761 200.272 113.646 188.992 113.759 170.831C113.775 169.51 114.097 153.557 125.039 143.437C134.369 134.784 145.632 136.363 145.987 132.157Z" fill="url(#paint13_linear_1488_6)"/>
<path d="M107.538 138.732C98.9328 147.063 92.8578 157.488 90.1989 169.187C87.1695 182.53 90.0056 194.18 93.2284 207.136C95.4683 216.16 95.0332 223.911 93.9052 233.015C93.0673 239.719 92.7289 246.181 95.001 252.642C100.528 268.338 120.22 283.807 109.036 301.533C108.617 302.193 109.665 302.806 110.084 302.145C116.304 292.283 112.92 281.471 107.409 272.076C103.106 264.76 97.547 257.96 95.3232 249.613C93.0028 240.879 95.7261 232.081 96.2579 223.331C97.1441 208.941 89.6672 195.792 89.925 181.402C90.2151 165.513 97.0313 150.592 108.392 139.586C108.956 139.038 108.102 138.184 107.538 138.732Z" fill="url(#paint14_linear_1488_6)"/>
<path d="M127.664 207.2C136.527 225.345 157.443 240.524 153.286 262.875C153.141 263.632 154.317 263.954 154.446 263.197C158.684 240.363 137.752 225.135 128.695 206.588C128.373 205.895 127.326 206.507 127.664 207.2Z" fill="url(#paint15_linear_1488_6)"/>
<path d="M123.977 282.583C126.7 275.235 124.798 268.708 122.075 261.618C117.821 250.548 117.015 240.976 118.643 229.245C120.512 215.838 122.8 201.69 113.905 190.217C113.422 189.604 112.584 190.458 113.051 191.071C123.751 204.88 117.531 221.977 116.451 237.64C115.984 244.408 116.661 250.58 118.933 256.961C121.946 265.421 126.216 273.075 122.816 282.26C122.526 283.002 123.703 283.308 123.977 282.583Z" fill="url(#paint16_linear_1488_6)"/>
<path d="M144.375 128.934C144.391 128.257 142.764 127.323 142.764 127.323C142.764 127.323 136.431 129.047 133.095 130.546C126.843 133.333 123.491 138.667 121.01 142.631C117.062 148.932 116.208 154.249 115.37 159.551C114.725 163.644 114.903 165.61 116.176 166.802C117.916 168.43 121.429 168.333 122.621 166.802C123.669 165.465 122.444 163.29 121.816 161.162C119.044 151.8 127.198 141.519 128.261 140.214C129.18 139.086 133.869 133.317 141.153 130.546C141.394 130.449 144.359 129.837 144.375 128.934Z" fill="#D0D0FC"/>
<path d="M120.206 177.277C119.9 177.535 122.269 182.127 126.652 185.334C135.531 191.812 147.6 188.863 147.6 188.557C147.6 188.283 138.737 190.216 129.875 185.334C123.783 181.982 120.528 176.987 120.206 177.277Z" fill="#EDEDFC"/>
<path d="M119.399 182.916C123.849 182.916 127.456 177.866 127.456 171.637C127.456 165.407 123.849 160.357 119.399 160.357C114.949 160.357 111.342 165.407 111.342 171.637C111.342 177.866 114.949 182.916 119.399 182.916Z" fill="#E4E4F9"/>
<path d="M119.399 183.319C114.726 183.319 110.939 178.082 110.939 171.637C110.939 165.191 114.726 159.954 119.399 159.954C124.072 159.954 127.859 165.191 127.859 171.637C127.859 178.066 124.072 183.319 119.399 183.319ZM119.399 160.76C115.177 160.76 111.745 165.642 111.745 171.637C111.745 177.631 115.177 182.514 119.399 182.514C123.621 182.514 127.054 177.631 127.054 171.637C127.054 165.642 123.621 160.76 119.399 160.76Z" fill="#01007C"/>
<path d="M146.003 188.863C146.084 189.749 147.599 190.329 149.371 190.152C151.144 189.974 152.513 189.12 152.433 188.234C152.352 187.348 150.838 186.768 149.065 186.945C147.293 187.122 145.923 187.976 146.003 188.863Z" fill="#9494E0"/>
<path d="M239.027 130.546H186.56C183.724 130.546 181.436 132.834 181.436 135.67V166.174C181.436 169.01 183.724 171.298 186.56 171.298H189.589V183.803C189.589 184.222 189.718 184.625 190.024 184.915C190.314 185.189 190.685 185.334 191.04 185.334C191.426 185.334 191.797 185.189 192.071 184.915L205.72 171.314H239.011C241.847 171.314 244.136 169.026 244.136 166.19V135.638C244.136 132.818 241.847 130.546 239.027 130.546ZM239.43 168.784H205.381C205.011 168.784 204.656 168.93 204.398 169.171C204.382 169.187 204.366 169.203 204.35 169.22L192.715 180.838V170.251C192.715 170.203 192.715 170.154 192.715 170.122C192.651 169.381 192.023 168.801 191.265 168.801H186.785C185.561 168.801 184.578 167.818 184.578 166.593V135.879C184.578 134.655 185.561 133.672 186.785 133.672H239.446C240.671 133.672 241.654 134.655 241.654 135.879V166.593C241.638 167.802 240.639 168.784 239.43 168.784Z" fill="#5A8FF9"/>
<path d="M203.031 141.197H193.878C193.266 141.197 192.702 141.535 192.46 142.099C191.993 143.244 192.815 144.339 193.894 144.339H203.047C203.659 144.339 204.223 144.001 204.465 143.437C204.949 142.293 204.111 141.197 203.031 141.197Z" fill="#5A8FF9"/>
<path d="M217.916 149.351H194.277C193.649 149.351 193.068 149.705 192.843 150.285C192.424 151.413 193.197 152.477 194.196 152.477H217.836C218.464 152.477 219.044 152.122 219.27 151.542C219.689 150.414 218.916 149.351 217.916 149.351Z" fill="#5A8FF9"/>
<path d="M232.114 141.197H210.521C209.908 141.197 209.344 141.536 209.103 142.1C208.635 143.244 209.457 144.34 210.537 144.34H232.13C232.742 144.34 233.306 144.001 233.548 143.437C234.015 142.293 233.193 141.197 232.114 141.197Z" fill="#5A8FF9"/>
<path d="M231.584 149.351H225.896C225.283 149.351 224.719 149.689 224.478 150.253C224.01 151.397 224.832 152.493 225.912 152.493H231.6C232.213 152.493 232.777 152.154 233.018 151.59C233.486 150.446 232.664 149.351 231.584 149.351Z" fill="#5A8FF9"/>
<path d="M207.929 158.133H193.716C193.104 158.133 192.54 158.471 192.298 159.035C191.831 160.18 192.653 161.275 193.732 161.275H207.945C208.557 161.275 209.121 160.937 209.363 160.373C209.83 159.213 209.008 158.133 207.929 158.133Z" fill="#5A8FF9"/>
<path d="M231.972 158.133H214.617C214.004 158.133 213.44 158.472 213.199 159.036C212.715 160.18 213.553 161.276 214.633 161.276H231.988C232.6 161.276 233.164 160.937 233.406 160.373C233.889 159.213 233.051 158.133 231.972 158.133Z" fill="#5A8FF9"/>
<path d="M321.631 20.6629V57.5482C321.631 60.9644 324.402 63.736 327.819 63.736H368.04L384.524 80.1724C384.863 80.5108 385.314 80.6881 385.765 80.6881C386.2 80.6881 386.635 80.5269 387.006 80.1886C387.36 79.8502 387.538 79.3506 387.538 78.8511V63.7521H391.196C394.612 63.7521 397.383 60.9805 397.383 57.5643V20.7113C397.383 17.2951 394.612 14.5234 391.196 14.5234H327.819C324.402 14.5234 321.631 17.279 321.631 20.6629ZM324.66 58.0638V20.9691C324.66 19.5027 325.853 18.3103 327.319 18.3103H390.922C392.388 18.3103 393.58 19.5027 393.58 20.9691V58.0638C393.58 59.5302 392.388 60.7227 390.922 60.7227H385.507C384.589 60.7227 383.831 61.4317 383.751 62.318C383.751 62.3663 383.735 62.4147 383.735 62.4791V75.2737L369.699 61.2383C369.683 61.2222 369.651 61.2061 369.635 61.1739C369.635 61.1739 369.635 61.1739 369.619 61.1578C369.313 60.8677 368.894 60.6904 368.426 60.6904H327.303C325.853 60.7227 324.66 59.5302 324.66 58.0638Z" fill="#5A8FF9"/>
<path d="M369.552 30.0897C369.826 30.7665 370.535 31.1855 371.26 31.1855H382.314C383.619 31.1855 384.618 29.8641 384.038 28.4944C383.764 27.8176 383.055 27.3987 382.33 27.3987H371.276C369.971 27.3987 368.971 28.7039 369.552 30.0897Z" fill="#5A8FF9"/>
<path d="M351.667 39.8873C351.925 40.5964 352.65 41.0153 353.391 41.0153H381.945C383.154 41.0153 384.072 39.7262 383.573 38.3565C383.315 37.6475 382.59 37.2285 381.849 37.2285H353.294C352.102 37.2446 351.167 38.5338 351.667 39.8873Z" fill="#5A8FF9"/>
<path d="M334.425 30.0897C334.699 30.7665 335.408 31.1855 336.133 31.1855H362.221C363.527 31.1855 364.526 29.8641 363.946 28.4944C363.672 27.8176 362.963 27.3987 362.238 27.3987H336.149C334.844 27.3987 333.844 28.7039 334.425 30.0897Z" fill="#5A8FF9"/>
<path d="M335.069 39.9357C335.343 40.6125 336.052 41.0314 336.777 41.0314H343.658C344.963 41.0314 345.962 39.7101 345.382 38.3404C345.108 37.6636 344.399 37.2446 343.674 37.2446H336.809C335.488 37.2446 334.505 38.5499 335.069 39.9357Z" fill="#5A8FF9"/>
<path d="M363.653 50.5387C363.927 51.2155 364.636 51.6345 365.361 51.6345H382.523C383.828 51.6345 384.827 50.3131 384.247 48.9434C383.973 48.2666 383.264 47.8477 382.539 47.8477H365.377C364.072 47.8477 363.073 49.1529 363.653 50.5387Z" fill="#5A8FF9"/>
<path d="M334.6 50.5387C334.874 51.2155 335.583 51.6345 336.308 51.6345H357.273C358.578 51.6345 359.577 50.3131 358.997 48.9434C358.723 48.2666 358.014 47.8477 357.289 47.8477H336.325C335.019 47.8477 334.02 49.1529 334.6 50.5387Z" fill="#5A8FF9"/>
<path d="M180.374 93.4669C179.133 92.7256 178.247 91.6943 177.216 90.4858C176.2 88.9549 175.685 87.3113 174.315 86.0705C173.396 85.3615 172.22 86.0705 172.14 87.0374C171.866 90.5663 176.104 94.4337 179.262 95.32C180.664 95.9001 181.599 94.192 180.374 93.4669Z" fill="#633BF2"/>
<path d="M172.254 77.0302C170.691 76.2729 169.643 75.3866 168.934 73.8719C168.386 72.5344 168.838 70.9552 168.934 69.6822C169.031 68.3931 167.629 67.8129 166.759 68.5542C164.712 70.0206 164.809 72.9211 165.953 74.9515C167.065 77.2881 169.224 78.7544 171.754 79.254C172.721 79.3346 173.333 77.6103 172.254 77.0302Z" fill="#633BF2"/>
<path d="M169.672 59.7399C167.916 57.355 169.721 54.9056 170.704 52.5529C171.3 51.151 169.399 50.6837 168.673 51.5861C166.208 54.3094 165.418 58.2735 168.271 61.2385C169.189 61.9636 170.575 60.7712 169.672 59.7399Z" fill="#633BF2"/>
<path d="M176.265 40.8703C176.604 38.4693 177.587 36.1328 179.198 34.1507C180.455 32.4749 182.453 31.653 183.855 30.1383C184.403 29.3648 183.662 28.5108 182.985 28.7847C177.78 29.3648 174.992 36.2456 174.831 40.5964C174.59 41.7244 176.201 41.8372 176.265 40.8703Z" fill="#633BF2"/>
<path d="M201.258 15.4906C202.274 14.9266 201.919 13.1218 200.759 13.5246C196.634 14.6687 193.459 18.2944 191.413 21.8556C191.042 22.468 191.96 23.1931 192.331 22.5647C194.845 19.1968 198.052 17.3437 201.258 15.4906Z" fill="#633BF2"/>
<path d="M226.622 2.08355C222.593 1.93853 218.017 2.88926 214.907 5.56421C214.037 6.30546 215.229 7.69127 216.099 6.95002C219.177 4.59736 223.206 4.74239 226.654 3.87222C227.798 3.77554 227.911 2.18024 226.622 2.08355Z" fill="#633BF2"/>
<path d="M252.985 3.42107C251.454 2.34143 249.552 1.87412 247.506 1.22955C245.782 0.617213 243.88 0.149903 241.947 0.0048757C240.98 -0.075695 240.867 1.53572 241.818 1.61629C245.331 2.1964 248.666 5.03249 252.534 5.00026C253.194 5.0486 253.758 3.96895 252.985 3.42107Z" fill="#633BF2"/>
<path d="M277.19 12.0262C275.659 10.9466 273.757 10.4792 272.194 9.72188C270.325 8.93229 268.617 7.99767 266.586 7.04693C265.652 6.66019 264.911 7.88487 265.845 8.28772C268.762 10.2859 272.855 13.6537 276.593 13.4604C277.56 13.5087 277.947 12.558 277.19 12.0262Z" fill="#633BF2"/>
<path d="M377.79 96.5769C377.661 96.3996 377.661 96.3996 377.516 96.2224C377.516 96.2224 377.516 96.2224 377.387 96.0451C377.258 95.8679 377.258 95.8679 377.113 95.6906C376.984 95.5134 376.839 95.3361 376.71 95.1589C376.436 94.8043 376.178 94.4498 375.904 94.0953C375.501 93.5636 374.97 92.8707 374.406 92.4678C373.745 91.5815 372.424 92.5806 373.084 93.4669C373.487 93.9986 374.019 94.6915 374.245 95.3522L375.05 96.4158C375.179 96.593 375.324 96.7703 375.453 96.9475C375.582 97.1248 375.582 97.1248 375.727 97.302C375.856 97.4793 376.001 97.6565 376.13 97.8338C376.533 98.3656 377.161 98.1561 377.484 97.9144C377.838 97.6565 378.031 97.2215 377.79 96.5769Z" fill="#633BF2"/>
<path d="M378.416 128.693C378.673 127.71 377.11 127.291 376.724 128.112C376.127 129.627 375.805 131.19 375.209 132.721C374.742 134.413 373.855 135.879 373.259 137.394C372.872 138.216 374.065 139.441 374.725 138.683C377.449 136.347 377.626 131.948 378.416 128.693Z" fill="#633BF2"/>
<path d="M360.547 152.59C361.272 151.236 362.287 149.947 363.432 148.819C364.253 147.933 363.27 146.289 362.158 147.127C360.885 148.094 359.741 149.222 358.726 150.511C357.872 151.687 356.696 153.105 356.551 154.556C356.615 155.297 357.131 155.974 357.888 155.668C359.242 155.168 359.693 153.766 360.547 152.59Z" fill="#633BF2"/>
<path d="M346.754 162.742C347.705 162.017 346.561 160.502 345.61 161.211C342.629 163.209 338.617 165.175 336.28 168.011C335.62 168.785 336.764 170.299 337.682 169.88C341.05 168.398 344.031 165.078 346.754 162.742Z" fill="#633BF2"/>
<path d="M326.561 171.363C324.901 171.814 323.29 171.975 321.662 172.136C320.035 172.297 318.471 171.878 317.086 172.668C316.457 173.151 316.78 174.231 317.311 174.618C318.842 175.327 320.937 174.795 322.436 174.473C324.224 174.183 325.739 173.57 327.399 173.119C328.446 172.861 327.624 171.105 326.561 171.363Z" fill="#633BF2"/>
<path d="M307.336 172.329C305.773 171.91 304.049 171.62 302.357 171.04C300.665 170.46 298.876 169.413 297.232 169.864C296.62 170.057 296.378 171.04 296.765 171.556C297.796 172.91 299.956 173.135 301.519 173.554C303.372 174.021 305.241 174.199 306.965 174.489C308.399 174.73 308.738 172.861 307.336 172.329Z" fill="#633BF2"/>
<path d="M288.937 166.818C287.937 165.175 286.632 163.773 285.327 162.371C284.022 160.969 282.314 159.051 280.187 158.536C279.042 158.342 278.478 159.567 278.946 160.534C279.816 162 281.75 162.935 282.974 163.87C284.602 165.03 286.197 166.48 287.663 167.769C288.469 168.51 289.162 167.447 288.937 166.818Z" fill="#633BF2"/>
<path d="M276.223 161.549C274.902 157.488 274.031 153.363 273.435 149.286C274.676 149.947 276.078 150.479 277.448 151.301C279.655 152.557 281.669 154.233 284.054 155.087C285.585 155.796 286.955 153.959 285.924 152.606C284.554 150.463 281.895 149.27 279.832 148.174C277.222 146.692 274.563 145.499 271.792 144.146C270.551 143.485 268.955 144.694 269.246 146.063C270.696 151.623 271.679 157.521 274.66 162.452C275.111 163.708 276.545 162.629 276.223 161.549Z" fill="#633BF2"/>
<path d="M294.48 24.4663C291.901 17.9723 288.002 12.0423 283.377 7.01468C282.184 5.62886 280.122 7.41753 281.137 8.94837C284.505 13.557 287.518 18.4718 289.549 23.6122C287.26 24.0795 284.956 24.563 282.668 25.0303C280.702 25.5298 277.785 25.6265 276.673 27.4796C276.126 28.2531 276.206 29.3811 277.141 29.7678C279.139 31.0409 281.492 29.929 283.458 29.4456C286.584 28.5593 289.694 27.9792 292.804 27.4152C294.415 27.5119 295.027 25.7876 294.48 24.4663Z" fill="#633BF2"/>
<path d="M377.691 107.341C378.755 111.112 379.061 114.915 378.642 118.814C378.481 120.361 380.898 120.345 381.059 118.814C381.51 114.705 381.156 110.677 380.028 106.697C379.592 105.198 377.272 105.826 377.691 107.341Z" fill="#633BF2"/>
<path d="M294.929 220.849C296.766 227.214 298.603 233.58 300.424 239.961C300.859 241.459 303.179 240.815 302.76 239.316C300.923 232.951 299.086 226.586 297.265 220.205C296.83 218.722 294.494 219.351 294.929 220.849Z" fill="#1F1FB2"/>
<path d="M290.418 203.075C292.077 209.36 293.737 215.644 295.397 221.929C295.8 223.427 298.12 222.799 297.733 221.284C296.074 215 294.414 208.715 292.754 202.431C292.351 200.932 290.015 201.561 290.418 203.075Z" fill="#1F1FB2"/>
<path d="M142.877 205.444C139.928 206.169 135.851 203.736 134.707 203.059C130.501 200.545 127.423 196.146 128.261 195.002C129.002 193.987 131.984 196.646 137.93 196.614C140.588 196.597 142.055 196.05 143.183 196.146C142.297 196.63 141.588 197.274 141.152 198.225C140.105 200.481 141.346 202.979 142.877 205.444Z" fill="#F4AD58"/>
<path d="M314.912 301.356H393.533L433.463 244.268C434.21 243.2 433.446 241.733 432.143 241.733H358.294C357.242 241.733 356.256 242.247 355.653 243.109L314.912 301.356Z" fill="url(#paint17_linear_1488_6)"/>
<path d="M288.598 301.162V296.683C288.598 295.7 289.403 294.894 290.386 294.894H391.551C392.534 294.894 393.34 295.7 393.34 296.683V301.162C393.34 302.145 392.534 302.951 391.551 302.951H290.386C289.403 302.951 288.598 302.145 288.598 301.162Z" fill="#4F84FC"/>
<path d="M551.258 316.455H262.815C259.27 316.455 256.369 313.554 256.369 310.009V309.397C256.369 305.851 259.27 302.951 262.815 302.951H551.258C554.803 302.951 557.704 305.851 557.704 309.397V310.009C557.704 313.554 554.803 316.455 551.258 316.455Z" fill="white"/>
<path d="M521.947 346.926H293.738C277.318 459.629 268.616 515.883 267.65 515.658C266.667 515.432 273.644 456.97 288.598 340.271V326.478C288.598 322.82 290.918 319.839 293.738 319.839H521.947C524.767 319.839 527.087 322.836 527.087 326.478C542.347 452.297 549.341 515.368 548.036 515.642C546.795 515.932 538.109 459.693 521.947 346.926Z" fill="#C6D1E3"/>
<g style="mix-blend-mode:soft-light">
<path d="M538.364 564C555.718 564 569.787 560.393 569.787 555.943C569.787 551.493 555.718 547.886 538.364 547.886C521.01 547.886 506.941 551.493 506.941 555.943C506.941 560.393 521.01 564 538.364 564Z" fill="#9AD1ED"/>
</g>
<path d="M556.709 554.656C551.902 556.21 545.515 557.64 537.975 557.64C533.03 557.64 526.575 557.021 519.241 554.656C515.491 536.751 511.742 518.847 508.006 500.956H567.202C563.7 518.847 560.197 536.751 556.709 554.656Z" fill="#9D9DFC"/>
<path d="M567.19 500.956C567.19 503.706 553.936 505.934 537.592 505.934C521.248 505.934 507.994 503.706 507.994 500.956C507.994 498.205 521.248 495.978 537.592 495.978C553.936 495.978 567.19 498.205 567.19 500.956Z" fill="#4A41F9"/>
<path d="M544.197 503.568C551.312 480.287 564.428 459.715 582.297 443.226C583.272 442.319 581.816 440.875 580.841 441.769C562.739 458.477 549.416 479.434 542.219 503.018C541.835 504.297 543.812 504.834 544.197 503.568Z" fill="#6CDDBD"/>
<path d="M539.158 503.569C543.168 484.537 530.752 462.245 521.605 446.527C507.802 422.778 489.741 400.624 467.601 384.232C466.529 383.448 465.499 385.236 466.557 386.02C487.928 401.834 505.343 423.163 518.858 445.936C524.736 455.837 529.997 466.219 533.705 477.138C536.466 485.252 538.979 494.452 537.166 503.033C536.892 504.312 538.883 504.875 539.158 503.569Z" fill="#6CDDBD"/>
<path d="M463.562 446.073C492.446 455.974 517.635 475.997 530.958 503.816C531.535 505.013 533.306 503.967 532.743 502.771C519.187 474.47 493.476 454.145 464.111 444.079C462.848 443.653 462.312 445.633 463.562 446.073Z" fill="#6CDDBD"/>
<path d="M542.083 504.339C535.889 440.256 531.315 367.152 580.911 317.867C581.858 316.931 580.402 315.474 579.455 316.409C529.461 366.094 533.774 439.679 540.037 504.339C540.16 505.645 542.22 505.659 542.083 504.339Z" fill="#6CDDBD"/>
<path d="M476.169 448.287C477.529 447.517 477.282 441.934 475.936 437.822C474.095 432.17 469.728 427.825 468.354 428.98C467.118 430.011 468.299 435.443 469.233 438.345C470.964 443.749 474.617 449.181 476.169 448.287Z" fill="#35C7BD"/>
<path d="M569.866 330.463C570.608 331.756 576.693 331.921 581.266 330.972C587.543 329.666 592.556 325.966 591.389 324.633C590.345 323.436 584.37 324.138 581.143 324.798C575.168 326.008 569.015 328.978 569.866 330.463Z" fill="#35C7BD"/>
<path d="M561.902 344.05C562.643 345.342 568.728 345.507 573.301 344.559C579.578 343.252 584.591 339.553 583.424 338.219C582.38 337.023 576.405 337.724 573.178 338.384C567.203 339.594 561.05 342.565 561.902 344.05Z" fill="#22A8A1"/>
<path d="M554.761 355.078C555.283 356.467 561.272 357.457 565.941 357.141C572.355 356.715 577.918 353.758 576.984 352.273C576.146 350.939 570.13 350.815 566.834 351.022C560.722 351.393 554.157 353.483 554.761 355.078Z" fill="#22A8A1"/>
<path d="M549.746 369.133C550.639 370.343 556.696 369.903 561.132 368.514C567.216 366.602 571.776 362.435 570.458 361.212C569.29 360.125 563.426 361.418 560.294 362.38C554.498 364.182 548.73 367.744 549.746 369.133Z" fill="#22A8A1"/>
<path d="M544.062 383.765C544.954 384.975 551.011 384.535 555.448 383.146C561.532 381.234 566.092 377.067 564.773 375.844C563.606 374.757 558.881 375.005 555.75 375.967C549.954 377.769 543.032 382.376 544.062 383.765Z" fill="#22A8A1"/>
<path d="M540.778 398.493C541.96 399.483 547.728 397.709 551.67 395.385C557.081 392.194 560.405 387.134 558.826 386.24C557.397 385.442 553.181 386.941 550.406 388.564C545.242 391.589 539.419 397.365 540.778 398.493Z" fill="#22A8A1"/>
<path d="M539.638 413.124C540.82 414.115 546.588 412.341 550.53 410.017C555.941 406.826 559.265 401.766 557.686 400.872C556.257 400.074 552.041 401.573 549.266 403.196C544.102 406.221 538.292 411.997 539.638 413.124Z" fill="#22A8A1"/>
<path d="M537.002 429.007C538.004 429.846 542.907 428.347 546.259 426.367C554.747 421.348 552.81 418.859 552.316 418.584C551.107 417.896 546.561 420.069 544.198 421.444C539.803 424.015 535.848 428.045 537.002 429.007Z" fill="#22A8A1"/>
<path d="M538.14 439.459C539.143 440.298 544.046 438.799 547.397 436.818C551.985 434.096 554.814 429.805 553.454 429.035C552.246 428.347 547.699 430.52 545.337 431.895C540.942 434.467 536.986 438.496 538.14 439.459Z" fill="#22A8A1"/>
<path d="M544.198 445.482C539.817 448.053 535.847 452.069 537.001 453.031C538.004 453.87 542.907 452.371 546.258 450.391C550.845 447.668 553.675 443.378 552.315 442.608L544.198 445.482Z" fill="#22A8A1"/>
<path d="M540.118 465.394C541.354 465.917 545.543 463.153 548.098 460.347C551.6 456.497 552.905 451.615 551.367 451.258C549.993 450.941 546.354 454.242 544.541 456.208C541.189 459.866 538.703 464.789 540.118 465.394Z" fill="#22A8A1"/>
<path d="M479.673 393.184C481.102 392.538 481.459 386.968 480.552 382.747C479.316 376.944 475.443 372.24 473.946 373.272C472.614 374.193 473.204 379.694 473.822 382.678C474.976 388.192 478.025 393.927 479.673 393.184Z" fill="#35C7BD"/>
<path d="M573.083 448.933C574.278 448.576 575.803 443.708 576.105 439.816C576.517 434.494 574.745 429.722 573.426 430.396C572.245 431.001 571.421 435.979 571.201 438.716C570.776 443.777 571.71 449.332 573.083 448.933Z" fill="#35C7BD"/>
<path d="M557.411 467.622C558.414 467.113 558.853 462.493 558.4 458.959C557.782 454.118 555.324 450.116 554.28 450.928C553.346 451.656 553.538 456.249 553.84 458.739C554.417 463.359 556.271 468.2 557.411 467.622Z" fill="#279389"/>
<path d="M550.449 481.25C551.479 480.837 552.014 476.808 551.63 473.7C551.094 469.437 548.677 465.848 547.592 466.536C546.617 467.141 546.727 471.17 546.988 473.357C547.468 477.427 549.268 481.718 550.449 481.25Z" fill="#279389"/>
<path d="M544.746 492.746C545.776 492.334 546.311 488.304 545.927 485.196C545.391 480.933 542.974 477.344 541.889 478.032C540.914 478.637 541.024 482.666 541.284 484.853C541.779 488.923 543.578 493.214 544.746 492.746Z" fill="#279389"/>
<path d="M564.262 458.216C565.375 457.762 566.171 453.018 565.938 449.332C565.608 444.285 563.232 439.995 562.051 440.765C560.98 441.466 560.884 446.211 561.035 448.81C561.309 453.623 562.985 458.738 564.262 458.216Z" fill="#35C7BD"/>
<path d="M489.384 402.865C490.95 402.577 492.804 397.255 493.092 392.964C493.491 387.065 491.019 381.619 489.288 382.265C487.75 382.843 486.816 388.316 486.596 391.342C486.198 396.952 487.585 403.209 489.384 402.865Z" fill="#35C7BD"/>
<path d="M507.597 423.767C509.163 423.479 511.017 418.157 511.305 413.866C511.704 407.967 509.231 402.521 507.501 403.168C505.963 403.745 505.029 409.218 504.809 412.244C504.411 417.854 505.798 424.111 507.597 423.767Z" fill="#35C7BD"/>
<path d="M516.703 436.309C518.268 436.021 520.122 430.699 520.411 426.408C520.809 420.509 518.337 415.063 516.606 415.71C515.068 416.287 514.134 421.76 513.914 424.786C513.516 430.396 514.903 436.64 516.703 436.309Z" fill="#35C7BD"/>
<path d="M522.305 446.28C523.734 446.211 526.11 441.81 526.948 438.084C528.101 432.982 526.646 427.907 525.025 428.251C523.569 428.567 522.003 433.229 521.399 435.856C520.286 440.71 520.671 446.348 522.305 446.28Z" fill="#35C7BD"/>
<path d="M527.989 456.731C529.417 456.662 531.794 452.261 532.631 448.535C533.785 443.433 532.329 438.359 530.708 438.702C529.253 439.019 527.687 443.68 527.083 446.307C525.97 451.161 526.355 456.799 527.989 456.731Z" fill="#35C7BD"/>
<path d="M533.688 470.317C535.117 470.248 537.493 465.848 538.331 462.121C539.484 457.019 538.028 451.945 536.408 452.289C534.952 452.605 533.386 457.267 532.782 459.893C531.656 464.748 532.04 470.386 533.688 470.317Z" fill="#35C7BD"/>
<path d="M538.662 485.54C540.077 485.733 543.332 481.827 544.939 478.321C547.137 473.521 546.78 468.282 545.118 468.337C543.621 468.392 541.107 472.683 539.967 475.158C537.852 479.723 537.042 485.32 538.662 485.54Z" fill="#35C7BD"/>
<path d="M531.797 471.335C532.099 470.056 528.047 466.824 524.339 465.133C519.257 462.809 513.543 462.809 513.502 464.335C513.461 465.71 517.98 468.282 520.589 469.492C525.41 471.72 531.453 472.806 531.797 471.335Z" fill="#22A8A1"/>
<path d="M524.543 455.589C524.488 454.269 519.694 452.069 515.643 451.271C510.094 450.171 504.545 451.477 504.916 452.962C505.246 454.296 510.314 455.768 513.171 456.345C518.458 457.404 524.598 457.088 524.543 455.589Z" fill="#22A8A1"/>
<path d="M518.845 445.138C518.791 443.818 513.997 441.618 509.945 440.82C504.397 439.72 498.848 441.026 499.219 442.512C499.548 443.845 504.616 445.317 507.473 445.894C512.761 446.953 518.914 446.637 518.845 445.138Z" fill="#22A8A1"/>
<path d="M510.879 433.642C510.824 432.321 506.03 430.121 501.979 429.324C496.43 428.223 490.881 429.53 491.252 431.015C491.582 432.349 496.65 433.82 499.506 434.398C504.794 435.457 510.947 435.14 510.879 433.642Z" fill="#22A8A1"/>
<path d="M502.997 422.613C502.846 421.306 497.915 419.381 493.822 418.817C488.205 418.047 482.766 419.67 483.246 421.141C483.672 422.448 488.836 423.63 491.721 424.029C497.05 424.785 503.162 424.112 502.997 422.613Z" fill="#22A8A1"/>
<path d="M493.887 412.162C493.736 410.855 488.806 408.93 484.713 408.366C479.095 407.596 473.656 409.219 474.137 410.69C474.563 411.997 479.727 413.179 482.611 413.578C487.94 414.334 494.052 413.66 493.887 412.162Z" fill="#22A8A1"/>
<path d="M485.937 402.123C485.525 400.857 480.292 399.799 476.158 399.936C470.486 400.129 465.459 402.631 466.214 403.993C466.901 405.217 472.202 405.492 475.114 405.409C480.539 405.258 486.404 403.567 485.937 402.123Z" fill="#22A8A1"/>
<path d="M498.49 413.317C500.055 413.028 501.91 407.706 502.198 403.415C502.596 397.516 500.124 392.07 498.393 392.717C496.855 393.294 495.921 398.767 495.701 401.793C495.303 407.403 496.69 413.66 498.49 413.317Z" fill="#35C7BD"/>
<path d="M464.949 445.262C465.787 443.543 461.392 438.606 456.942 435.814C450.844 431.978 443.098 431.235 442.521 433.311C442.013 435.182 447.259 439.28 450.377 441.274C456.173 444.945 463.988 447.228 464.949 445.262Z" fill="#35C7BD"/>
<path d="M469.496 385.689C470.334 383.971 465.939 379.034 461.489 376.242C455.391 372.419 447.658 371.677 447.081 373.753C446.573 375.623 451.82 379.721 454.937 381.715C460.733 385.387 468.535 387.656 469.496 385.689Z" fill="#22A8A1"/>
<path d="M576.665 320.438C578.656 320.906 583.203 316.093 585.441 311.582C588.504 305.408 587.982 298.284 585.661 298.119C583.573 297.982 580.057 303.427 578.464 306.59C575.511 312.448 574.399 319.902 576.665 320.438Z" fill="#22A8A1"/>
<path d="M474.455 450.707C473.741 449.346 467.67 449.084 463.069 449.978C456.765 451.216 451.683 454.956 452.81 456.359C453.826 457.624 459.814 456.992 463.056 456.373C469.058 455.231 475.279 452.261 474.455 450.707Z" fill="#35C7BD"/>
<path d="M568.536 330.587C570.033 329.968 570.5 324.399 569.648 320.163C568.481 314.346 564.567 309.574 563.001 310.564C561.6 311.458 562.108 316.973 562.685 319.97C563.77 325.512 566.819 331.302 568.536 330.587Z" fill="#58DBCE"/>
<path d="M560.571 341.038C562.068 340.419 562.535 334.85 561.684 330.614C560.516 324.797 556.602 320.026 555.036 321.016C553.635 321.91 554.143 327.424 554.72 330.422C555.805 335.964 558.854 341.753 560.571 341.038Z" fill="#58DBCE"/>
<path d="M553.824 351.173C555.239 350.403 555.019 344.82 553.646 340.694C551.778 335.028 547.287 330.697 545.858 331.852C544.581 332.883 545.762 338.315 546.71 341.23C548.454 346.621 552.204 352.053 553.824 351.173Z" fill="#58DBCE"/>
<path d="M547.797 366.547C549.143 365.681 548.456 360.139 546.739 356.123C544.404 350.609 539.556 346.607 538.224 347.859C537.029 348.986 538.677 354.308 539.858 357.141C542.069 362.394 546.258 367.551 547.797 366.547Z" fill="#58DBCE"/>
<path d="M542.097 382.224C543.443 381.358 542.757 375.816 541.04 371.8C538.705 366.286 533.857 362.284 532.524 363.536C531.329 364.663 532.978 369.985 534.159 372.818C536.37 378.071 540.559 383.228 542.097 382.224Z" fill="#58DBCE"/>
<path d="M537.55 398.946C538.896 398.08 538.21 392.538 536.493 388.522C534.158 383.008 529.31 379.006 527.977 380.258C526.783 381.385 528.431 386.707 529.612 389.54C531.823 394.793 536.012 399.95 537.55 398.946Z" fill="#58DBCE"/>
<path d="M536.631 413.234C537.689 412.079 535.45 406.881 532.675 403.402C528.857 398.63 523.061 395.907 522.127 397.434C521.289 398.795 524.38 403.553 526.316 406.015C529.928 410.58 535.422 414.568 536.631 413.234Z" fill="#58DBCE"/>
<path d="M535.488 428.911C536.546 427.756 534.307 422.558 531.533 419.078C527.715 414.307 521.919 411.584 520.985 413.11C520.147 414.472 523.237 419.23 525.174 421.691C528.786 426.257 534.28 430.245 535.488 428.911Z" fill="#58DBCE"/>
<path d="M475.884 394.491C475.431 393.129 469.511 391.878 464.828 391.933C458.4 392.002 452.714 394.573 453.565 396.045C454.334 397.365 460.336 397.791 463.633 397.764C469.758 397.722 476.406 396.045 475.884 394.491Z" fill="#22A8A1"/>
<path d="M489.752 459.219C489.148 457.886 483.118 457.184 478.462 457.707C472.076 458.422 466.705 461.585 467.722 463.001C468.628 464.266 474.658 464.101 477.94 463.757C484.011 463.111 490.439 460.76 489.752 459.219Z" fill="#35C7BD"/>
<path d="M503.557 469.079C503.09 467.814 497.638 466.838 493.366 467.058C487.502 467.36 482.379 469.973 483.203 471.335C483.944 472.559 489.452 472.751 492.46 472.6C498.05 472.339 504.079 470.537 503.557 469.079Z" fill="#35C7BD"/>
<path d="M514.778 479.998C514.462 478.637 509.133 477.193 504.834 477.111C498.942 476.987 493.53 479.352 494.203 480.851C494.808 482.185 500.274 482.804 503.309 482.873C508.913 483.01 515.135 481.552 514.778 479.998Z" fill="#35C7BD"/>
<path d="M522.237 490.051C521.757 488.868 516.29 487.947 512.019 488.153C506.168 488.442 501.1 490.904 501.951 492.182C502.72 493.324 508.214 493.503 511.222 493.365C516.798 493.131 522.787 491.412 522.237 490.051Z" fill="#35C7BD"/>
<path d="M531.479 500.859C531.3 499.512 526.15 497.6 521.892 497.091C516.055 496.39 510.465 498.15 510.987 499.663C511.454 501.011 516.824 502.138 519.818 502.51C525.367 503.197 531.685 502.4 531.479 500.859Z" fill="#35C7BD"/>
<path d="M532.92 481.222C534.349 481.552 535.763 486.489 535.791 490.422C535.818 495.826 533.209 500.694 531.643 500.034C530.242 499.443 529.707 494.396 529.679 491.632C529.624 486.489 531.272 480.837 532.92 481.222Z" fill="#35C7BD"/>
<path d="M489.823 455.905C491.265 455.273 491.663 449.703 490.812 445.468C489.631 439.664 485.799 434.92 484.302 435.938C482.956 436.845 483.505 442.36 484.096 445.344C485.167 450.872 488.175 456.634 489.823 455.905Z" fill="#35C7BD"/>
<path d="M560.679 467.938C561.214 468.914 566.2 469.382 570.032 468.983C575.278 468.433 579.66 466.082 578.781 465.064C577.998 464.143 573.026 464.294 570.334 464.569C565.321 465.078 560.061 466.824 560.679 467.938Z" fill="#35C7BD"/>
<path d="M567.876 459.619C568.481 460.609 572.848 460.485 576.076 459.564C580.512 458.299 583.904 455.204 582.998 454.201C582.188 453.307 577.93 454.091 575.65 454.737C571.433 455.92 567.19 458.491 567.876 459.619Z" fill="#35C7BD"/>
<path d="M575.841 450.212C576.445 451.203 580.813 451.079 584.04 450.157C588.477 448.892 591.869 445.798 590.963 444.794C590.152 443.9 585.895 444.698 583.615 445.331C579.412 446.513 575.154 449.085 575.841 450.212Z" fill="#35C7BD"/>
<path d="M580.442 442.855C581.499 443.447 585.235 441.37 587.57 439.115C590.757 436.021 592.075 431.799 590.757 431.331C589.575 430.919 586.293 433.518 584.645 435.099C581.568 438.028 579.233 442.181 580.442 442.855Z" fill="#35C7BD"/>
<path d="M554.39 480.933C555.063 481.882 559.417 481.525 562.576 480.424C566.916 478.912 570.102 475.639 569.141 474.69C568.275 473.837 564.086 474.869 561.848 475.625C557.714 477.042 553.634 479.833 554.39 480.933Z" fill="#35C7BD"/>
<path d="M549.059 492.044C549.828 492.924 554.113 492.168 557.149 490.793C561.31 488.895 564.126 485.347 563.054 484.495C562.093 483.725 558.041 485.127 555.899 486.09C551.929 487.878 548.18 491.027 549.059 492.044Z" fill="#35C7BD"/>
<path d="M504.175 465.091C505.383 464.404 505.493 458.834 504.573 454.626C503.309 448.865 499.793 444.271 498.543 445.344C497.417 446.293 498.131 451.794 498.763 454.75C499.944 460.237 502.787 465.875 504.175 465.091Z" fill="#35C7BD"/>
<path d="M516.04 477.166C517.139 476.547 517.647 470.991 517.167 466.756C516.507 460.939 513.843 456.139 512.689 457.129C511.659 458.01 511.851 463.538 512.181 466.522C512.771 472.077 514.777 477.867 516.04 477.166Z" fill="#35C7BD"/>
<path d="M525.067 489.074C526.386 488.662 527.883 483.257 528.075 478.981C528.322 473.122 526.166 467.924 524.71 468.694C523.405 469.396 522.705 474.883 522.554 477.894C522.293 483.477 523.557 489.556 525.067 489.074Z" fill="#35C7BD"/>
<path d="M510.836 506.979C514.38 522.999 517.937 539.034 521.481 555.054C522.058 557.64 526.027 556.553 525.45 553.954C521.906 537.934 518.349 521.899 514.806 505.879C514.229 503.293 510.26 504.393 510.836 506.979Z" fill="url(#paint18_linear_1488_6)"/>
<circle cx="438.567" cy="203.567" r="30.5668" fill="#069A53"/>
<path d="M429.054 213.506C428.082 214.489 428.082 215.69 429.065 216.685C429.731 217.351 430.43 217.995 431.064 218.695C431.982 219.721 433.118 220.049 434.428 219.973C436.34 219.863 438.088 219.241 439.792 218.41C443.55 216.586 446.772 214.052 449.471 210.84C451.47 208.47 453.108 205.892 454.19 202.975C454.714 201.566 455.096 200.124 454.976 198.595C454.9 197.655 454.55 196.847 453.862 196.191C453.108 195.481 452.409 194.739 451.666 194.018C450.705 193.067 449.503 193.067 448.542 194.007C447.941 194.586 447.362 195.186 446.772 195.776C446.204 196.355 445.625 196.923 445.057 197.491C444.052 198.507 444.052 199.687 445.046 200.692C445.767 201.413 446.477 202.145 447.209 202.844C447.395 203.03 447.417 203.183 447.319 203.423C446.838 204.581 446.139 205.597 445.363 206.558C443.79 208.481 442.021 210.196 439.901 211.528C439.443 211.813 438.94 212.02 438.47 212.282C438.23 212.413 438.066 212.37 437.869 212.173C437.149 211.441 436.417 210.709 435.696 209.988C434.734 209.038 433.533 209.038 432.571 209.988C431.392 211.168 430.223 212.326 429.054 213.506Z" fill="white"/>
<path d="M435.925 200.878C437.148 199.654 438.688 198.889 440.392 198.649L440.076 196.377C437.88 196.683 435.881 197.677 434.308 199.261C432.811 200.757 431.839 202.647 431.479 204.723L433.74 205.105C434.013 203.499 434.767 202.035 435.925 200.878Z" fill="white"/>
<path d="M425.492 204.33L427.753 204.712C428.267 201.73 429.665 199.032 431.806 196.891C434.067 194.64 436.929 193.209 440.075 192.761L439.759 190.489C436.11 191.003 432.8 192.652 430.178 195.263C427.71 197.743 426.082 200.878 425.492 204.33Z" fill="white"/>
<path d="M433.469 242.028L447.054 226.744H430.072L433.469 242.028Z" fill="#069A53"/>
<defs>
<linearGradient id="paint0_linear_1488_6" x1="0.95703" y1="312.934" x2="176.955" y2="328.379" gradientUnits="userSpaceOnUse">
<stop stop-color="#18029D"/>
<stop offset="1" stop-color="#1C40F2"/>
</linearGradient>
<linearGradient id="paint1_linear_1488_6" x1="10.623" y1="434.694" x2="148.056" y2="483.899" gradientUnits="userSpaceOnUse">
<stop stop-color="#0082F8"/>
<stop offset="1" stop-color="#1C40F2"/>
</linearGradient>
<linearGradient id="paint2_linear_1488_6" x1="10.623" y1="313.838" x2="148.056" y2="363.043" gradientUnits="userSpaceOnUse">
<stop stop-color="#0082F8"/>
<stop offset="1" stop-color="#1C40F2"/>
</linearGradient>
<linearGradient id="paint3_linear_1488_6" x1="10.623" y1="373.46" x2="148.056" y2="422.665" gradientUnits="userSpaceOnUse">
<stop stop-color="#0082F8"/>
<stop offset="1" stop-color="#1C40F2"/>
</linearGradient>
<linearGradient id="paint4_linear_1488_6" x1="67.068" y1="329.88" x2="100.362" y2="329.88" gradientUnits="userSpaceOnUse">
<stop stop-color="#1C40F2"/>
<stop offset="0.9833" stop-color="#03F8FB"/>
</linearGradient>
<linearGradient id="paint5_linear_1488_6" x1="67.068" y1="390.179" x2="100.362" y2="390.179" gradientUnits="userSpaceOnUse">
<stop stop-color="#1C40F2"/>
<stop offset="0.9833" stop-color="#03F8FB"/>
</linearGradient>
<linearGradient id="paint6_linear_1488_6" x1="67.068" y1="450.47" x2="100.362" y2="450.47" gradientUnits="userSpaceOnUse">
<stop stop-color="#1C40F2"/>
<stop offset="0.9833" stop-color="#03F8FB"/>
</linearGradient>
<linearGradient id="paint7_linear_1488_6" x1="132.158" y1="123.526" x2="180.958" y2="126.706" gradientUnits="userSpaceOnUse">
<stop stop-color="#102062"/>
<stop offset="1" stop-color="#060B43"/>
</linearGradient>
<linearGradient id="paint8_linear_1488_6" x1="334.521" y1="466.562" x2="110.403" y2="421.69" gradientUnits="userSpaceOnUse">
<stop stop-color="#001DAC"/>
<stop offset="1" stop-color="#000F57"/>
</linearGradient>
<linearGradient id="paint9_linear_1488_6" x1="245.958" y1="461.919" x2="101.338" y2="440.558" gradientUnits="userSpaceOnUse">
<stop stop-color="#001DAC"/>
<stop offset="1" stop-color="#000F57"/>
</linearGradient>
<linearGradient id="paint10_linear_1488_6" x1="516" y1="414.5" x2="186.767" y2="335.842" gradientUnits="userSpaceOnUse">
<stop stop-color="#4A1DFF"/>
<stop offset="0.81" stop-color="#0948B3" stop-opacity="0"/>
</linearGradient>
<linearGradient id="paint11_linear_1488_6" x1="101.715" y1="279.622" x2="171.199" y2="279.622" gradientUnits="userSpaceOnUse">
<stop stop-color="#1C40F2"/>
<stop offset="0.9833" stop-color="#03F8FB"/>
</linearGradient>
<linearGradient id="paint12_linear_1488_6" x1="110.324" y1="127.991" x2="159.818" y2="130.339" gradientUnits="userSpaceOnUse">
<stop stop-color="#102062"/>
<stop offset="1" stop-color="#060B43"/>
</linearGradient>
<linearGradient id="paint13_linear_1488_6" x1="91.0957" y1="116.93" x2="155.831" y2="120.755" gradientUnits="userSpaceOnUse">
<stop stop-color="#102062"/>
<stop offset="1" stop-color="#060B43"/>
</linearGradient>
<linearGradient id="paint14_linear_1488_6" x1="88.9082" y1="133.781" x2="117.891" y2="134.662" gradientUnits="userSpaceOnUse">
<stop stop-color="#102062"/>
<stop offset="1" stop-color="#060B43"/>
</linearGradient>
<linearGradient id="paint15_linear_1488_6" x1="127.598" y1="204.613" x2="159.726" y2="207.731" gradientUnits="userSpaceOnUse">
<stop stop-color="#102062"/>
<stop offset="1" stop-color="#060B43"/>
</linearGradient>
<linearGradient id="paint16_linear_1488_6" x1="112.914" y1="187.296" x2="127.559" y2="187.692" gradientUnits="userSpaceOnUse">
<stop stop-color="#102062"/>
<stop offset="1" stop-color="#060B43"/>
</linearGradient>
<linearGradient id="paint17_linear_1488_6" x1="452.156" y1="210.295" x2="337.746" y2="308.591" gradientUnits="userSpaceOnUse">
<stop stop-color="#B4EBFC"/>
<stop offset="0.1207" stop-color="#AEE5FC"/>
<stop offset="0.2858" stop-color="#9DD3FC"/>
<stop offset="0.4764" stop-color="#80B6FC"/>
<stop offset="0.6847" stop-color="#598FFC"/>
<stop offset="0.7346" stop-color="#4F84FC"/>
</linearGradient>
<linearGradient id="paint18_linear_1488_6" x1="522.251" y1="493.097" x2="518.143" y2="556.532" gradientUnits="userSpaceOnUse">
<stop stop-color="#D2D2F7"/>
<stop offset="1" stop-color="#D2D2F7" stop-opacity="0"/>
</linearGradient>
</defs>
</svg>
