<svg xmlns="http://www.w3.org/2000/svg" xmlns:xlink="http://www.w3.org/1999/xlink" id="Layer_1" x="0px" y="0px" viewBox="0 0 32 32" style="enable-background:new 0 0 32 32;" xml:space="preserve"> <style type="text/css"> .st0{fill:#4284FB;} </style> <title>mxp_com_icons_all_R2</title> <g> <g> <path class="st0" d="M20.2,26.2h-9c-1.5,0-2.8-1.2-2.8-2.8v-16c0-1.5,1.2-2.8,2.8-2.8h9C21.8,4.8,23,6,23,7.5v2 c0,0.4-0.3,0.8-0.8,0.8s-0.8-0.3-0.8-0.8v-2c0-0.7-0.6-1.2-1.2-1.2h-9c-0.7,0-1.2,0.6-1.2,1.2v16c0,0.7,0.6,1.2,1.2,1.2h9 c0.7,0,1.2-0.6,1.2-1.2V19c0-0.4,0.3-0.8,0.8-0.8S23,18.6,23,19v4.5C23,25,21.8,26.2,20.2,26.2z"></path> </g> <g> <path class="st0" d="M18.8,22.3c-0.1,0-0.2,0-0.3-0.1c-0.3-0.1-0.4-0.4-0.4-0.7v-3.2h-3.2c-1.5,0-2.8-1.2-2.8-2.8v-4 c0-1.5,1.2-2.8,2.8-2.8h8c1.5,0,2.8,1.2,2.8,2.8v3.6c0,1.1-0.4,2.2-1.2,3l-5.1,4.1C19.1,22.2,18.9,22.3,18.8,22.3z M14.8,10.3 c-0.7,0-1.2,0.6-1.2,1.2v4c0,0.7,0.6,1.2,1.2,1.2h4c0.4,0,0.8,0.3,0.8,0.8v2.4l3.8-3c0.4-0.4,0.7-1.1,0.7-1.8v-3.6 c0-0.7-0.6-1.2-1.2-1.2H14.8z"></path> </g> <g> <path class="st0" d="M21.8,14.3h-6c-0.4,0-0.8-0.3-0.8-0.8s0.3-0.8,0.8-0.8h6c0.4,0,0.8,0.3,0.8,0.8S22.2,14.3,21.8,14.3z"></path> </g> </g> </svg>