<svg xmlns="http://www.w3.org/2000/svg" id="Layer_1" x="0" y="0" viewBox="0 0 32 32" xml:space="preserve"><style>.st0{fill:#4284fb}</style><path class="st0" d="M25 24.1h-7v-1.5h7c.1 0 .2-.1.2-.2 0-1.8-1.5-3.2-3.2-3.2-.6 0-1.3.2-1.8.5l-.8-1.2c.8-.5 1.7-.8 2.6-.8 2.6 0 4.8 2.1 4.8 4.8 0 .8-.8 1.6-1.8 1.6z"/><path class="st0" d="M16 15.5c-1.9 0-3.5.9-4.6 2.2-.5-.1-.9-.2-1.4-.2-2.6 0-4.8 2.2-4.8 4.8 0 1 .8 1.8 1.8 1.8h13c1 0 1.8-.8 1.8-1.8v-1c0-3.2-2.6-5.8-5.8-5.8zm-9.2 6.9c-.1 0-.2-.1-.2-.2 0-1.7 1.5-3.2 3.3-3.2.2 0 .5 0 .7.1-.3.7-.4 1.4-.4 2.2v1.1H6.8zm13.4-.1c0 .1-.1.2-.2.2h-8c-.1 0-.2-.1-.2-.2v-1c0-2.3 1.9-4.2 4.2-4.2s4.2 1.9 4.2 4.2v1zM16 14.4c-1.8 0-3.2-1.5-3.2-3.2S14.3 8 16 8s3.2 1.5 3.2 3.2-1.4 3.2-3.2 3.2zm0-5c-1 0-1.8.8-1.8 1.8S15 13 16 13s1.8-.8 1.8-1.8S17 9.4 16 9.4zm6 3.7c.6 0 1 .4 1 1s-.4 1-1 1-1-.4-1-1 .4-1 1-1m0-1.5c-1.4 0-2.5 1.1-2.5 2.5s1.1 2.5 2.5 2.5 2.5-1.1 2.5-2.5-1.1-2.5-2.5-2.5zm-12 1.5c.6 0 1 .4 1 1s-.4 1-1 1-1-.4-1-1 .4-1 1-1m0-1.5c-1.4 0-2.5 1.1-2.5 2.5s1.1 2.5 2.5 2.5 2.5-1.1 2.5-2.5-1.1-2.5-2.5-2.5z"/></svg>