<svg version="1.1" id="Layer_1" xmlns="http://www.w3.org/2000/svg" x="0" y="0" viewBox="0 0 1048 744" xml:space="preserve"><style>.st2{fill-rule:evenodd;clip-rule:evenodd;fill:#dee6fc}.st3{fill:#2b2468}.st10,.st3{fill-rule:evenodd;clip-rule:evenodd}.st4{fill:#031142}.st4,.st5,.st6,.st7,.st8,.st9{fill-rule:evenodd;clip-rule:evenodd}.st5{fill:#06155a}.st6{fill:#360e94}.st7{fill:#4512b1}.st8{fill:#fb394b}.st9{fill:#ffa000}.st10{fill:#3ea5ec}.st12{display:none;fill:#06155a}.st13{fill:#fdcb90}.st13,.st14,.st15,.st16,.st17{fill-rule:evenodd;clip-rule:evenodd}.st14{fill:#1a1840}.st15{fill:#221e54}.st16{fill:#fff}.st17{fill:#fdddb6}.st19{fill:#ebf5ff}.st19,.st20,.st21,.st22,.st23,.st24{fill-rule:evenodd;clip-rule:evenodd}.st20{fill:#d3e8fd}.st21{fill:#ff7c11}.st22{fill:#ffae2b}.st23{fill:#3091d8}.st24{fill:#f7f5ff}</style><switch><g><path d="M850 121.2l1.3.4 1.3.4 1.4.4 1.2.4 1.5.5 1.3.4 1.4.5 1.1.4.5.2 1.8.7.6.2 1.4.6 1 .4 1.3.5 1.5.6 1.1.5 1.3.6 1.3.6 1.2.6 1.4.6 1.2.6 1.2.6 1.3.6 1.3.6.9.5 1.4.7 1.2.7.1.1c.8.4 1.6.9 2.4 1.3l1.2.7c.8.5 1.6.9 2.4 1.4l1.3.8 1.1.7 1.1.7 1.2.7 1.3.8 1 .7 1.2.8 1.5 1 .8.5.9.6 1.4 1 1.1.8.9.6 1.4 1 1.5 1.2.3.3 1.5 1.2.9.7.5.4 1.6 1.4 1 .9.5.4 1.6 1.4 1 .9 1.4 1.3.4.4 1.3 1.2 3 2.9-2.8 2.7c-7.5 7.2-15.7 13.7-24.5 19.4l-3.5 2.3-1.9-3.7c-1-1.8-1.9-3.6-3-5.4-11.4-20-26.4-38-44.3-52.5l-13.3-10.8 16.7 4.2c.9.2 1.8.5 2.7.7l1.7.5zm-149.6 30.6l1.3-1 .8-.6 1.4-1.1 1.5-1.1 1-.7.9-.6 1.4-1 1-.7.8-.6.2-.1 1.3-.9 1-.7 1.2-.8 1.2-.8 1.3-.8 1.1-.7 1.1-.7 1.3-.8c.8-.5 1.6-1 2.4-1.4l1.2-.7c.8-.5 1.6-.9 2.4-1.3l.1-.1 1.3-.7 1.4-.7.9-.5 1.1-.6h.1l1.5-.7 1-.5 1.2-.6 1.4-.7 1.2-.6 1.2-.5 1.4-.6 1-.4 1.5-.6 1.3-.5 1-.4 1.4-.6.6-.2 1.7-.6.7-.3.9-.3 1.6-.5 1.3-.4 1.1-.4 1.6-.5 1.3-.4 1.1-.3 1.6-.5 1.4-.4 1.3-.3 1.5-.4 16.8-4.3-13.4 10.9C749.4 141 734.4 158.9 723 179l-3 5.4-1.9 3.7-3.5-2.3c-8.7-5.7-16.9-12.2-24.5-19.4l-2.8-2.7 3.2-3.1 1.2-1.1.4-.3c.8-.8 1.7-1.5 2.5-2.3l.4-.3 1.5-1.3 1.3-1.1 1-.9 1.1-.9.5-.6zm25.7 275.7l-.2-.1c-.8-.4-1.6-.9-2.4-1.3l-1.5-.8-1-.6-1.2-.7-1.3-.8-1.1-.7-1.2-.7-1-.7h-.1l-1.3-.9-1-.7-1-.7-1.3-.9-1.1-.8-.9-.6-1.4-1-1.1-.8-.9-.6-1.5-1.1-1.3-1-.8-.6-1.2-1-.9-.7-1.1-.9-1.1-.9-1.2-1.1-1.6-1.4-.2-.2c-.8-.7-1.7-1.5-2.5-2.3l-.4-.4-1.3-1.2-3.1-2.9 2.9-2.7c7.5-7.2 15.7-13.7 24.5-19.4l3.5-2.3 1.9 3.7c1 1.8 1.9 3.6 3 5.4 11.4 20 26.4 37.9 44.3 52.5l13.4 10.9-16.9-4.3-1.4-.4-1.2-.3-1.5-.4-1.5-.4-1.1-.3-1.4-.4-1.6-.5-1.1-.4-1.3-.4-1.4-.7-.9-.3-.7-.3-1.7-.6-.6-.2-1.4-.6-1-.4-1.3-.5-1.5-.6-1.1-.5-1.3-.6-1.3-.6-1.2-.6-1.4-.6-1.2-.5-1.3-.6-1.3-.6-1.2-.6-.9-.5-1.6-.8-1-.5zM909 410.4l-1.6 1.3-.3.3-1.5 1.2-1.5 1.1-.7.5-1.1.8-1.4 1-.9.6-.8.6-1.6 1.1-1 .7-1.1.8-1.2.8-1.2.8-1.1.7-1.1.7-1.3.7c-.8.5-1.6 1-2.4 1.4l-1.2.5c-.8.5-1.6.9-2.4 1.3l-.1.1-1.3.7-1.4.7-.9.5-1.1.6h-.1l-1.3.6-1.2.6-1.3.6-1.4.6-1.2.5-1.2.5-1.4.6-1 .4-1.5.6-1.3.5-1 .4-1.4.6-.6.2-1.8.7-.5.2-1.1.4-1.5.5-1.5.5-1.3.4-1.2.4-1.4.4-1.4.4-1.2.5-1.5.4c-.9.2-1.8.5-2.7.7l-16.7 4.2 13.3-10.8c17.9-14.5 32.9-32.4 44.3-52.5l3-5.4 1.9-3.7 3.5 2.3c8.7 5.7 17 12.2 24.5 19.4l2.9 2.7-3.2 3.1-1.2 1.1-.4.4-1.4 1.3-1 .9-1.7 1.5-.3.3-1.2 1-1.5 1.3-.5.4-1.1.8zm21.1-238.3c24.6 28.3 38.9 63.9 40.6 101.4l.2 4h-57.5l-.1-3.7c-.9-26.2-6.6-52-17.1-76l-1.3-3 2.7-1.7c9.7-6.2 18.8-13.3 27.1-21.2l2.9-2.7 2.5 2.9zM638.8 273.5c1.7-37.5 16-73.1 40.6-101.4l2.6-3 2.9 2.7c8.3 7.9 17.4 15.1 27.1 21.2l2.7 1.7-1.3 3c-10.5 24-16.2 49.8-17.1 76l-.1 3.7h-57.5l.1-3.9zm40.6 116.6c-24.6-28.3-38.9-63.9-40.6-101.4l-.2-4h57.5l.1 3.7c.9 26.2 6.6 52 17.1 76l1.3 3-2.7 1.7c-9.7 6.2-18.8 13.3-27.1 21.2l-2.9 2.7-2.5-2.9zm291.3-101.3c-1.7 37.5-16 73.1-40.6 101.4l-2.6 3-2.9-2.7c-8.3-7.9-17.4-15.1-27.1-21.2l-2.7-1.7 1.3-3c10.5-24 16.2-49.8 17.1-76l.1-3.7h57.5l-.1 3.9zm-173.6-76.3c-19.9-.9-39.4-5.3-57.6-13.1-4-1.7-8-3.6-11.9-5.7l-3.4-1.8 1.8-3.4c1-1.9 2.1-3.8 3.1-5.7 15.8-27.6 38.5-51 66.3-66.4l5.6-3.1v99.4l-3.9-.2zm4 64.9h-97.6l.1-3.9c.9-24.5 6.2-48.7 15.8-71.2l1.6-3.8 3.6 1.9c3.9 2 7.9 3.9 12 5.7 19.3 8.2 39.9 12.9 60.8 13.8l3.6.2v57.3zM719.4 360c-9.7-22.5-14.9-46.7-15.8-71.2l-.1-3.9h97.6v57.5l-3.6.2c-20.9.9-41.5 5.5-60.8 13.8-4.1 1.7-8 3.6-12 5.7l-3.6 1.9-1.7-4zm76 85.9c-27.9-15.4-50.6-38.9-66.3-66.4-1.1-1.9-2.1-3.8-3.1-5.7l-1.8-3.4 3.4-1.8c3.9-2 7.9-3.9 11.9-5.7 18.3-7.8 37.8-12.2 57.6-13.1l4-.2V449l-5.7-3.1zm88.1-72.2c-1 1.9-2.1 3.8-3.1 5.7-15.8 27.6-38.5 51-66.3 66.4l-5.6 3.1v-99.4l4 .2c19.8.9 39.4 5.3 57.6 13.1 4 1.7 8 3.6 11.9 5.7l3.4 1.8-1.9 3.4zm-75.1-88.9H906l-.1 3.9c-.9 24.5-6.2 48.7-15.8 71.2l-1.6 3.8-3.6-1.9c-3.9-2-7.9-3.9-12-5.7-19.3-8.2-39.9-12.9-60.8-13.8l-3.6-.2v-57.3zm81.6-82.5c9.7 22.5 14.9 46.7 15.8 71.3l.1 3.9h-97.6V220l3.6-.2c21-.9 41.5-5.5 60.8-13.8 4.1-1.7 8-3.6 12-5.7l3.6-1.9 1.7 3.9zm-76-85.9c27.9 15.4 50.6 38.9 66.3 66.4 1.1 1.9 2.1 3.8 3.1 5.7l1.8 3.4-3.4 1.8c-3.9 2-7.9 3.9-11.9 5.7-18.3 7.8-37.8 12.2-57.6 13.1l-4 .2v-99.4l5.7 3.1zm-7-8.7h-6.7l-2.2.1h-.1l-2.2.1-1.6.1-1 .1-1.7.1-1.2.1-1.1.1-1.1.1h-.2c-40 3.9-77.2 21.6-105.7 50-32.6 32.6-50.8 76.5-50.8 122.7s18.2 90 50.8 122.7c28.4 28.4 65.7 45.8 105.7 50h.2l1.1.1 1.1.1 1.2.1 1.8.1.9.1 1.7.1 2.2.1 2.2.1h8.9l2.2-.1h.1l2.2-.1 1.6-.1.9-.1 1.7-.1 1.7-.1.7-.1 1.1-.1h.2c40-4.2 77.3-21.6 105.7-50 32.6-32.6 50.8-76.5 50.8-122.7s-18.2-90-50.8-122.7c-28.4-28.4-65.6-46.1-105.7-50h-.2l-1.1-.1-1.1-.1-1.2-.1-1.7-.1-1-.1-1.7-.1-2.2-.1-2.2-.1H807zm-634 213l.6.2.5.2.6.2.5.2.6.2.6.2.6.2.5.2.2.1.8.3.3.1.6.2.4.2.6.2.6.3.5.2.5.2.6.2.5.2.6.3.5.2.5.3.5.3.5.3.4.2.6.3.5.3h.1c.3.2.7.4 1 .6l.5.3c.3.2.7.4 1 .6l.6.3.5.3.5.3.5.3.5.4.4.3.5.3.6.4.3.2.4.3.6.4.5.3.4.3.6.4.6.5.1.1.7.5.4.3.2.2.7.6.4.4.2.2.7.6.4.4.6.6.2.2.6.5 1.3 1.3-1.2 1.2c-3.2 3.1-6.7 5.8-10.4 8.3l-1.5 1-.8-1.6c-.4-.8-.8-1.5-1.3-2.3-4.9-8.5-11.2-16.2-18.9-22.3l-5.7-4.6 7.1 1.8 1.2.3.7-.2zm-63.7 13.1l.5-.4.3-.3.6-.5.6-.5.4-.3.4-.3.6-.4.4-.3.3-.2h.1l.5-.4.4-.3.5-.3.5-.3.5-.3.5-.3.5-.3.5-.3c.3-.2.7-.4 1-.6l.5-.3c.3-.2.7-.4 1-.6h.1l.5-.3.6-.3.4-.2.5-.2.6-.3.4-.2.5-.2.6-.3.5-.2.5-.2.6-.2.4-.2.6-.3.6-.2.4-.2.6-.2.3-.1.7-.3.3-.1.4-.1.7-.2.6-.2.5-.1.7-.2.6-.2.5-.1.7-.2.6-.2.5-.1.6-.2 7.1-1.8-5.7 4.6c-7.6 6.2-14 13.8-18.9 22.3-.4.8-.9 1.5-1.3 2.3l-.8 1.6-1.5-1c-3.7-2.4-7.2-5.2-10.4-8.3l-1.2-1.2 1.4-1.3.5-.5.2-.1c.4-.3.7-.6 1.1-1l.2-.1.6-.6.5-.5.4-.4.5-.4.6-.4zm10.9 117.4c-.4-.2-.8-.4-1.1-.6l-.6-.4-.4-.2-.5-.3-.6-.3-.5-.3-.5-.3-.4-.3-.6-.4-.4-.3-.4-.3-.6-.4-.5-.3-.4-.3-.6-.4-.5-.3-.4-.3-.6-.5-.6-.4-.3-.3-.5-.4-.4-.3-.5-.4-.5-.4-.5-.5-.7-.6-.1-.1c-.4-.3-.7-.6-1.1-1l-.2-.2-.6-.5-1.3-1.3 1.2-1.2c3.2-3.1 6.7-5.8 10.4-8.3l1.5-1 .8 1.6c.4.8.8 1.5 1.3 2.3 4.9 8.5 11.2 16.2 18.9 22.3l5.7 4.6-7.2-1.8-.6-.2-.5-.1-.6-.2-.6-.2-.5-.1-.6-.2-.7-.2-.5-.2-.6-.2-.7-.2-.4-.1-.3-.1-.7-.3-.3-.1-.6-.2-.4-.2-.6-.2-.6-.3-.1.2-.5-.2-.6-.2-.5-.2-.6-.3-.5-.2-.5-.3-.5-.3-.5-.3-.4-.2-.7-.3-.5-.3zm77.9-7.3l-.7.5-.1.1-.7.5-.6.5-.3.2-.5.3-.6.4-.4.3-.3.2-.7.5-.4.3-.5.3-.5.3-.5.3-.5.3-.5.3-.5.3c-.3.2-.7.4-1 .6l-.5.3c-.3.2-.7.4-1 .6h-.1l-.5.3-.6.3-.4.2-.5.2-.6.3-.5.3-.5.3-.6.3-.5.2-.5.2-.6.3-.4.2-.6.3-.6.2-.4.2-.6.2-.3.1-.8.3-.2.1-.5.2-.6.2-.6.2-.6.2-.5.2-.6.2-.6.2-.5.1-.6.2-1.2.3-7.1 1.8 5.7-4.6c7.6-6.2 14-13.8 18.9-22.3.4-.8.9-1.5 1.3-2.3l.8-1.6 1.5 1c3.7 2.4 7.2 5.2 10.4 8.3l1.2 1.2-1.4 1.3-.5.5-.2.2-.6.6-.4.4-.7.6-.1.1-.5.4-.6.5-.2.2-.6.1zm9-101.5c10.5 12.1 16.6 27.2 17.3 43.2l.1 1.7H200l-.1-1.6c-.4-11.1-2.8-22.2-7.3-32.4l-.6-1.3 1.2-.7c4.1-2.6 8-5.7 11.5-9l1.2-1.2 1.2 1.3zM83 385.6c.7-16 6.8-31.1 17.3-43.2l1.1-1.3 1.2 1.2c3.5 3.4 7.4 6.4 11.5 9l1.2.7-.6 1.3c-4.5 10.2-6.9 21.2-7.3 32.4l-.1 1.6H82.9l.1-1.7zm17.3 49.7c-10.5-12.1-16.6-27.2-17.3-43.2l-.1-1.7h24.5l.1 1.6c.4 11.1 2.8 22.2 7.3 32.4l.6 1.3-1.2.7c-4.1 2.6-8 5.7-11.5 9l-1.2 1.2-1.2-1.3zm124.1-43.2c-.7 16-6.8 31.1-17.3 43.2l-1.1 1.3-1.2-1.2c-3.5-3.4-7.4-6.4-11.5-9l-1.2-.7.6-1.3c4.5-10.2 6.9-21.2 7.3-32.4l.1-1.6h24.5l-.2 1.7zm-74-32.5c-8.5-.4-16.8-2.3-24.5-5.6-1.7-.7-3.4-1.5-5.1-2.4l-1.4-.8.8-1.4c.4-.8.9-1.6 1.3-2.4 6.7-11.7 16.4-21.7 28.2-28.3l2.4-1.3v42.3l-1.7-.1zm1.7 27.7h-41.6l.1-1.7c.4-10.4 2.6-20.7 6.7-30.3l.7-1.6 1.5.8c1.7.9 3.4 1.7 5.1 2.4 8.2 3.5 17 5.5 25.9 5.9l1.5.1v24.4zm-34.7 35.1c-4.1-9.6-6.4-19.9-6.7-30.3l-.1-1.7h41.6v24.5l-1.5.1c-8.9.4-17.7 2.3-25.9 5.9-1.7.7-3.4 1.5-5.1 2.4l-1.7.7-.6-1.6zm32.3 36.6c-11.9-6.6-21.5-16.6-28.2-28.3-.5-.8-.9-1.6-1.3-2.4l-.8-1.4 1.4-.7c1.7-.9 3.4-1.7 5.1-2.4 7.8-3.3 16.1-5.2 24.5-5.6l1.7-.1v42.3l-2.4-1.4zm37.5-30.7c-.4.8-.9 1.6-1.3 2.4-6.7 11.7-16.4 21.7-28.2 28.3l-2.4 1.3V418l1.7.1c8.5.4 16.8 2.3 24.5 5.6 1.7.7 3.4 1.5 5.1 2.4l1.4.8-.8 1.4zm-31.9-37.9h41.6l-.1 1.7c-.4 10.4-2.6 20.7-6.7 30.3l-.7 1.6-1.5-.8c-1.7-.9-3.4-1.7-5.1-2.4-8.2-3.5-17-5.5-25.9-5.9l-1.5-.1v-24.4zm34.7-35.2c4.1 9.6 6.4 19.9 6.7 30.3l.1 1.7h-41.6v-24.5l1.5-.1c8.9-.4 17.7-2.3 25.9-5.9 1.7-.7 3.4-1.5 5.1-2.4l1.5-.8.8 1.7zm-32.3-36.5c11.9 6.6 21.5 16.6 28.2 28.3.5.8.9 1.6 1.3 2.4l.8 1.4-1.4.8c-1.7.9-3.4 1.7-5.1 2.4-7.8 3.3-16.1 5.2-24.5 5.6l-1.7.1v-42.3l2.4 1.3zm-3-3.7h-5.9l-.7.1h-1.6c-17 1.7-32.9 9.2-45 21.3-13.9 13.9-21.6 32.6-21.6 52.2 0 19.7 7.7 38.3 21.6 52.2 12.1 12.1 28 19.5 45 21.3h1.6l.8.1h10l.7-.1.7-.1h.9c17-1.8 32.9-9.2 45-21.3 13.9-13.9 21.6-32.6 21.6-52.2 0-19.7-7.7-38.3-21.6-52.2-12.1-12.1-28-19.6-45-21.3h-1.6l-.7-.1h-3l-1.2.1z" opacity=".3" fill-rule="evenodd" clip-rule="evenodd" fill="#0e47c6"/><path d="M497.7 265c-1.3-1.3-3-2-4.9-2-1.9 0-3.6.8-4.9 2-1.3 1.3-2 3-2 4.9 0 1.9.8 3.6 2 4.9 1.3 1.3 3 2 4.9 2 1.9 0 3.6-.8 4.9-2 1.3-1.3 2-3 2-4.9 0-1.9-.7-3.6-2-4.9m-6.9 58.9v-43.1c-2.3-.4-4.3-1.5-5.8-3.1-2-2-3.3-4.8-3.3-7.9 0-3.1 1.2-5.8 3.3-7.9 2-2 4.8-3.3 7.9-3.3 3.1 0 5.8 1.2 7.9 3.3 2 2 3.3 4.8 3.3 7.9 0 3.1-1.2 5.8-3.3 7.9-1.5 1.5-3.5 2.6-5.7 3v43.1h-4.3zm72.4-126.8c-1.3-1.3-3-2-4.9-2s-3.6.8-4.9 2c-1.3 1.3-2 3-2 4.9 0 1.9.8 3.6 2 4.9 1.3 1.3 3 2 4.9 2s3.6-.8 4.9-2c1.3-1.3 2-3 2-4.9.1-1.9-.7-3.6-2-4.9m-6.9 126.8v-111c-2.2-.4-4.2-1.5-5.8-3.1-2-2-3.3-4.8-3.3-7.9 0-3.1 1.2-5.8 3.3-7.9 2-2 4.8-3.3 7.9-3.3 3.1 0 5.8 1.2 7.9 3.3 2 2 3.3 4.8 3.3 7.9 0 3.1-1.2 5.8-3.3 7.9-1.5 1.5-3.5 2.6-5.8 3.1v111h-4.2zm-23.5-82.1c-1.3-1.3-3-2-4.9-2-1.9 0-3.6.8-4.9 2-1.3 1.3-2 3-2 4.9 0 1.9.8 3.6 2 4.9 1.3 1.3 3 2 4.9 2 1.9 0 3.6-.8 4.9-2 1.3-1.3 2-3 2-4.9 0-1.9-.7-3.7-2-4.9m-4.9-6.2c3.1 0 5.8 1.2 7.9 3.3 2 2 3.3 4.8 3.3 7.9 0 3.1-1.2 5.8-3.3 7.9-1.5 1.5-3.5 2.6-5.8 3.1v66.3h-4.2v-66.3c-2.2-.4-4.2-1.5-5.8-3.1-2-2-3.3-4.8-3.3-7.9 0-3.1 1.2-5.8 3.3-7.9 2.1-2.1 4.8-3.3 7.9-3.3zm63.8-13.3c-1.3-1.3-3-2-4.9-2-1.9 0-3.6.8-4.9 2-1.3 1.3-2 3-2 4.9 0 1.9.8 3.6 2 4.9 1.3 1.3 3 2 4.9 2 1.9 0 3.6-.8 4.9-2 1.3-1.3 2-3 2-4.9 0-1.9-.7-3.7-2-4.9m-4.9-6.2c3.1 0 5.8 1.2 7.9 3.3 2 2 3.3 4.8 3.3 7.9 0 3.1-1.2 5.8-3.3 7.9-1.5 1.5-3.5 2.6-5.8 3.1v85.8h-4.2v-85.8c-2.2-.4-4.2-1.5-5.8-3.1-2-2-3.3-4.8-3.3-7.9 0-3.1 1.2-5.8 3.3-7.9 2.1-2.1 4.8-3.3 7.9-3.3zm270.4 198.1c.8-.8 1.8-1.2 3-1.2s2.2.5 3 1.2c.8.8 1.2 1.8 1.2 3s-.5 2.2-1.2 3c-.8.8-1.8 1.2-3 1.2s-2.2-.5-3-1.2c-.8-.8-1.2-1.8-1.2-3-.1-1.2.4-2.2 1.2-3m4.1 35.5v-26c1.4-.3 2.6-.9 3.5-1.9 1.2-1.2 2-2.9 2-4.7 0-1.9-.8-3.5-2-4.7-1.2-1.2-2.9-2-4.7-2-1.9 0-3.5.8-4.7 2-1.2 1.2-2 2.9-2 4.7 0 1.9.8 3.5 2 4.7.9.9 2.1 1.6 3.4 1.8v26h2.5zm-43.7-76.5c.8-.8 1.8-1.2 3-1.2s2.2.5 3 1.2c.8.8 1.2 1.8 1.2 3s-.5 2.2-1.2 3c-.8.8-1.8 1.2-3 1.2s-2.2-.5-3-1.2c-.8-.8-1.2-1.8-1.2-3s.5-2.2 1.2-3m4.2 76.5v-67c1.3-.3 2.5-.9 3.5-1.8 1.2-1.2 2-2.9 2-4.7 0-1.9-.8-3.5-2-4.7-1.2-1.2-2.9-2-4.7-2s-3.5.8-4.7 2c-1.2 1.2-2 2.9-2 4.7 0 1.9.8 3.5 2 4.7.9.9 2.1 1.6 3.5 1.8v67h2.4zm14.2-49.5c.8-.8 1.8-1.2 3-1.2s2.2.5 3 1.2c.8.8 1.2 1.8 1.2 3s-.5 2.2-1.2 3c-.8.8-1.8 1.2-3 1.2s-2.2-.5-3-1.2c-.8-.8-1.2-1.8-1.2-3s.4-2.3 1.2-3m2.9-3.8c-1.9 0-3.5.8-4.7 2-1.2 1.2-2 2.9-2 4.7 0 1.9.8 3.5 2 4.7.9.9 2.1 1.6 3.5 1.8v40h2.5v-40c1.3-.3 2.5-.9 3.5-1.8 1.2-1.2 2-2.9 2-4.7 0-1.8-.8-3.5-2-4.7a6.8 6.8 0 00-4.8-2zm-38.5-8c.8-.8 1.8-1.2 3-1.2s2.2.5 3 1.2c.8.8 1.2 1.8 1.2 3s-.5 2.2-1.2 3c-.8.8-1.8 1.2-3 1.2s-2.2-.5-3-1.2c-.8-.8-1.2-1.8-1.2-3s.5-2.2 1.2-3m3-3.7c-1.8 0-3.5.8-4.7 2-1.2 1.2-2 2.9-2 4.7 0 1.8.8 3.5 2 4.7.9.9 2.1 1.6 3.5 1.8v51.8h2.5v-51.8c1.3-.3 2.5-.9 3.5-1.8 1.2-1.2 2-2.9 2-4.7 0-1.9-.7-3.5-2-4.7-1.3-1.3-2.9-2-4.8-2zM208.6 397c-.9-.9-2.2-1.5-3.6-1.5s-2.7.6-3.6 1.5c-.9.9-1.5 2.2-1.5 3.6s.6 2.7 1.5 3.6c.9.9 2.2 1.5 3.6 1.5s2.7-.6 3.6-1.5c.9-.9 1.5-2.2 1.5-3.6s-.6-2.7-1.5-3.6m-5.1 43.1v-31.6c-1.7-.3-3.1-1.1-4.3-2.3-1.5-1.5-2.4-3.5-2.4-5.8 0-2.2.9-4.3 2.4-5.8s3.5-2.4 5.8-2.4c2.2 0 4.3.9 5.8 2.4s2.4 3.5 2.4 5.8c0 2.2-.9 4.3-2.4 5.8-1.1 1.1-2.6 1.9-4.2 2.2V440h-3.1zm53.1-92.9c-.9-.9-2.2-1.5-3.6-1.5s-2.7.6-3.6 1.5c-.9.9-1.5 2.2-1.5 3.6s.6 2.7 1.5 3.6c.9.9 2.2 1.5 3.6 1.5s2.7-.6 3.6-1.5c.9-.9 1.5-2.2 1.5-3.6s-.6-2.7-1.5-3.6m-5.1 92.9v-81.4c-1.6-.3-3.1-1.1-4.2-2.2-1.5-1.5-2.4-3.5-2.4-5.8 0-2.2.9-4.3 2.4-5.8s3.5-2.4 5.8-2.4c2.2 0 4.3.9 5.8 2.4s2.4 3.5 2.4 5.8c0 2.2-.9 4.3-2.4 5.8-1.1 1.1-2.6 1.9-4.2 2.2v81.4h-3.2zm-17.2-60.2c-.9-.9-2.2-1.5-3.6-1.5s-2.7.6-3.6 1.5c-.9.9-1.5 2.2-1.5 3.6s.6 2.7 1.5 3.6c.9.9 2.2 1.5 3.6 1.5s2.7-.6 3.6-1.5c.9-.9 1.5-2.2 1.5-3.6s-.6-2.7-1.5-3.6m-3.6-4.5c2.2 0 4.3.9 5.8 2.4s2.4 3.5 2.4 5.8c0 2.2-.9 4.3-2.4 5.8-1.1 1.1-2.6 1.9-4.2 2.2v48.6h-3.1v-48.6c-1.6-.3-3.1-1.1-4.2-2.2-1.5-1.5-2.4-3.5-2.4-5.8 0-2.2.9-4.3 2.4-5.8 1.4-1.5 3.5-2.4 5.7-2.4zm46.8-9.8c-.9-.9-2.2-1.5-3.6-1.5s-2.7.6-3.6 1.5c-.9.9-1.5 2.2-1.5 3.6s.6 2.7 1.5 3.6c.9.9 2.2 1.5 3.6 1.5s2.7-.6 3.6-1.5c.9-.9 1.5-2.2 1.5-3.6s-.6-2.7-1.5-3.6m-3.6-4.5c2.2 0 4.3.9 5.8 2.4s2.4 3.5 2.4 5.8c0 2.2-.9 4.3-2.4 5.8-1.1 1.1-2.6 1.9-4.2 2.2v62.9h-3.1v-62.9c-1.6-.3-3.1-1.1-4.2-2.2-1.5-1.5-2.4-3.5-2.4-5.8 0-2.2.9-4.3 2.4-5.8 1.4-1.5 3.5-2.4 5.7-2.4z" fill="#abbbf4"/><path class="st2" d="M522.7 718.2c267.1 0 483.5 4.1 483.5 9.2s-216.5 9.2-483.5 9.2c-267.1 0-483.5-4.1-483.5-9.2-.1-5.1 216.4-9.2 483.5-9.2"/><path class="st3" d="M409.1 303.9h261.5c7 0 12.8 6.2 12.8 13.7v357.2c0 7.5-5.8 13.7-12.8 13.7H409.1c-7 0-12.8-6.2-12.8-13.7V317.6c0-7.5 5.7-13.7 12.8-13.7"/><path class="st4" d="M383.9 298.9h154.8c.6 0 1.1.5 1.1 1.1v88.6c0 .6-.5 1.1-1.1 1.1H383.9c-2.2 0-4.1-1.8-4.1-4v-30.6c0-1.5 1.3-2.8 2.8-2.8h97.5c.6 0 1.1-.5 1.1-1.1v-13.7c0-.6-.5-1.1-1.1-1.1h-97.5c-1.5 0-2.8-1.2-2.8-2.8V303c0-2.3 1.8-4.1 4.1-4.1"/><path class="st5" d="M539.8 298.9h155.9c2.2 0 4.1 1.8 4.1 4v82.8c0 2.2-1.8 4-4.1 4H539.8v-90.8z"/><path class="st6" d="M473.2 342.1h103.4c.1 0 .2.1.2.2v4.1c0 .1-.1.2-.2.2H473.2c-.1 0-.2-.1-.2-.2v-4.1c0-.1.1-.2.2-.2"/><path class="st6" d="M397.1 336.3h83.3c.4 0 .8.3.8.7v14.6c0 .4-.4.7-.8.7h-83.3c-.4 0-.8-.3-.8-.7V337c0-.3.3-.7.8-.7"/><path class="st4" d="M383.9 400.1h154.8c.6 0 1.1.5 1.1 1.1v88.6c0 .6-.5 1.1-1.1 1.1H383.9c-2.2 0-4.1-1.8-4.1-4v-30.6c0-1.5 1.3-2.8 2.8-2.8h97.5c.6 0 1.1-.5 1.1-1.1v-13.7c0-.6-.5-1.1-1.1-1.1h-97.5c-1.5 0-2.8-1.2-2.8-2.8v-30.6c0-2.2 1.8-4.1 4.1-4.1"/><path class="st5" d="M539.8 400.1h155.9c2.2 0 4.1 1.8 4.1 4V487c0 2.2-1.8 4-4.1 4H539.8v-90.9z"/><path class="st6" d="M473.2 443.4h103.4c.1 0 .2.1.2.2v4.1c0 .1-.1.2-.2.2H473.2c-.1 0-.2-.1-.2-.2v-4.1c0-.2.1-.2.2-.2"/><path class="st6" d="M397.1 437.6h83.3c.4 0 .8.3.8.7v14.6c0 .4-.4.7-.8.7h-83.3c-.4 0-.8-.3-.8-.7v-14.6c0-.4.3-.7.8-.7"/><path class="st4" d="M383.9 501.4h154.8c.6 0 1.1.5 1.1 1.1v88.6c0 .6-.5 1.1-1.1 1.1H383.9c-2.2 0-4.1-1.8-4.1-4v-30.6c0-1.5 1.3-2.8 2.8-2.8h97.5c.6 0 1.1-.5 1.1-1.1V540c0-.6-.5-1.1-1.1-1.1h-97.5c-1.5 0-2.8-1.2-2.8-2.8v-30.6c0-2.3 1.8-4.1 4.1-4.1"/><path class="st5" d="M539.8 501.4h155.9c2.2 0 4.1 1.8 4.1 4v82.8c0 2.2-1.8 4-4.1 4H539.8v-90.8z"/><path class="st6" d="M473.2 544.6h103.4c.1 0 .2.1.2.2v4.1c0 .1-.1.2-.2.2H473.2c-.1 0-.2-.1-.2-.2v-4.1c0-.1.1-.2.2-.2"/><path class="st6" d="M397.1 538.8h83.3c.4 0 .8.3.8.7v14.6c0 .4-.4.7-.8.7h-83.3c-.4 0-.8-.3-.8-.7v-14.6c0-.4.3-.7.8-.7"/><path class="st4" d="M383.9 602.6h154.8c.6 0 1.1.5 1.1 1.1v88.6c0 .6-.5 1.1-1.1 1.1H383.9c-2.2 0-4.1-1.8-4.1-4v-30.6c0-1.5 1.3-2.8 2.8-2.8h97.5c.6 0 1.1-.5 1.1-1.1v-13.7c0-.6-.5-1.1-1.1-1.1h-97.5c-1.5 0-2.8-1.2-2.8-2.8v-30.6c0-2.3 1.8-4.1 4.1-4.1"/><path class="st5" d="M539.8 602.6h155.9c2.2 0 4.1 1.8 4.1 4v82.8c0 2.2-1.8 4-4.1 4H539.8v-90.8z"/><path class="st6" d="M473.2 645.8h103.4c.1 0 .2.1.2.2v4.1c0 .1-.1.2-.2.2H473.2c-.1 0-.2-.1-.2-.2V646c0-.1.1-.2.2-.2"/><path class="st6" d="M397.1 640.1h83.3c.4 0 .8.3.8.7v14.6c0 .4-.4.7-.8.7h-83.3c-.4 0-.8-.3-.8-.7v-14.6c0-.4.3-.7.8-.7"/><path class="st7" d="M614.7 340.6c-2.7-4.7-8.7-6.3-13.4-3.6-4.7 2.7-6.3 8.7-3.6 13.4 2.7 4.7 8.7 6.3 13.4 3.6 4.7-2.7 6.3-8.7 3.6-13.4m67.2 0c-2.7-4.7-8.7-6.3-13.4-3.6-4.7 2.7-6.3 8.7-3.6 13.4 2.7 4.7 8.7 6.3 13.4 3.6 4.7-2.7 6.3-8.7 3.6-13.4m-33.6 0c-2.7-4.7-8.7-6.3-13.4-3.6-4.7 2.7-6.3 8.7-3.6 13.4 2.7 4.7 8.7 6.3 13.4 3.6 4.7-2.7 6.3-8.7 3.6-13.4m16.6 101.2c2.7-4.7 8.7-6.3 13.4-3.6 4.7 2.7 6.3 8.7 3.6 13.4-2.7 4.7-8.7 6.3-13.4 3.6-4.7-2.7-6.3-8.7-3.6-13.4m-67.2 0c2.7-4.7 8.7-6.3 13.4-3.6 4.7 2.7 6.3 8.7 3.6 13.4-2.7 4.7-8.7 6.3-13.4 3.6-4.7-2.7-6.3-8.7-3.6-13.4m33.6 0c2.7-4.7 8.7-6.3 13.4-3.6 4.7 2.7 6.3 8.7 3.6 13.4-2.7 4.7-8.7 6.3-13.4 3.6-4.7-2.7-6.3-8.7-3.6-13.4m-16.6 101.3c-2.7-4.7-8.7-6.3-13.4-3.6-4.7 2.7-6.3 8.7-3.6 13.4 2.7 4.7 8.7 6.3 13.4 3.6 4.7-2.7 6.3-8.7 3.6-13.4m67.2 0c-2.7-4.7-8.7-6.3-13.4-3.6-4.7 2.7-6.3 8.7-3.6 13.4 2.7 4.7 8.7 6.3 13.4 3.6 4.7-2.7 6.3-8.7 3.6-13.4m-33.6 0c-2.7-4.7-8.7-6.3-13.4-3.6-4.7 2.7-6.3 8.7-3.6 13.4 2.7 4.7 8.7 6.3 13.4 3.6 4.7-2.7 6.3-8.7 3.6-13.4m16.6 101.2c2.7-4.7 8.7-6.3 13.4-3.6 4.7 2.7 6.3 8.7 3.6 13.4-2.7 4.7-8.7 6.3-13.4 3.6-4.7-2.7-6.3-8.7-3.6-13.4m-67.2 0c2.7-4.7 8.7-6.3 13.4-3.6 4.7 2.7 6.3 8.7 3.6 13.4-2.7 4.7-8.7 6.3-13.4 3.6-4.7-2.7-6.3-8.7-3.6-13.4m33.6 0c2.7-4.7 8.7-6.3 13.4-3.6 4.7 2.7 6.3 8.7 3.6 13.4-2.7 4.7-8.7 6.3-13.4 3.6-4.7-2.7-6.3-8.7-3.6-13.4"/><path class="st8" d="M612.9 339.4c-2.7-4.7-8.7-6.3-13.4-3.6-4.7 2.7-6.3 8.7-3.6 13.4 2.7 4.7 8.7 6.3 13.4 3.6 4.7-2.7 6.3-8.7 3.6-13.4"/><path class="st9" d="M680.1 339.4c-2.7-4.7-8.7-6.3-13.4-3.6-4.7 2.7-6.3 8.7-3.6 13.4 2.7 4.7 8.7 6.3 13.4 3.6 4.7-2.7 6.3-8.7 3.6-13.4"/><path class="st10" d="M646.5 339.4c-2.7-4.7-8.7-6.3-13.4-3.6-4.7 2.7-6.3 8.7-3.6 13.4 2.7 4.7 8.7 6.3 13.4 3.6 4.7-2.7 6.3-8.7 3.6-13.4"/><path class="st8" d="M663.1 440.7c2.7-4.7 8.7-6.3 13.4-3.6 4.7 2.7 6.3 8.7 3.6 13.4-2.7 4.7-8.7 6.3-13.4 3.6-4.7-2.7-6.3-8.7-3.6-13.4"/><path class="st9" d="M595.9 440.7c2.7-4.7 8.7-6.3 13.4-3.6 4.7 2.7 6.3 8.7 3.6 13.4-2.7 4.7-8.7 6.3-13.4 3.6-4.7-2.7-6.3-8.7-3.6-13.4"/><path class="st10" d="M629.5 440.7c2.7-4.7 8.7-6.3 13.4-3.6 4.7 2.7 6.3 8.7 3.6 13.4-2.7 4.7-8.7 6.3-13.4 3.6-4.7-2.7-6.3-8.7-3.6-13.4"/><path class="st8" d="M612.9 541.9c-2.7-4.7-8.7-6.3-13.4-3.6-4.7 2.7-6.3 8.7-3.6 13.4 2.7 4.7 8.7 6.3 13.4 3.6 4.7-2.7 6.3-8.7 3.6-13.4"/><path class="st9" d="M680.1 541.9c-2.7-4.7-8.7-6.3-13.4-3.6-4.7 2.7-6.3 8.7-3.6 13.4 2.7 4.7 8.7 6.3 13.4 3.6 4.7-2.7 6.3-8.7 3.6-13.4"/><path class="st10" d="M646.5 541.9c-2.7-4.7-8.7-6.3-13.4-3.6-4.7 2.7-6.3 8.7-3.6 13.4 2.7 4.7 8.7 6.3 13.4 3.6 4.7-2.7 6.3-8.7 3.6-13.4"/><path class="st8" d="M663.1 643.2c2.7-4.7 8.7-6.3 13.4-3.6 4.7 2.7 6.3 8.7 3.6 13.4-2.7 4.7-8.7 6.3-13.4 3.6-4.7-2.8-6.3-8.7-3.6-13.4"/><path class="st9" d="M595.9 643.2c2.7-4.7 8.7-6.3 13.4-3.6 4.7 2.7 6.3 8.7 3.6 13.4-2.7 4.7-8.7 6.3-13.4 3.6-4.7-2.8-6.3-8.7-3.6-13.4"/><path class="st10" d="M629.5 643.2c2.7-4.7 8.7-6.3 13.4-3.6 4.7 2.7 6.3 8.7 3.6 13.4-2.7 4.7-8.7 6.3-13.4 3.6-4.7-2.8-6.3-8.7-3.6-13.4"/><path class="st3" d="M146.3 416.1h186.2c5 0 9.1 4.4 9.1 9.8v254.3c0 5.4-4.1 9.8-9.1 9.8H146.3c-5 0-9.1-4.4-9.1-9.8V425.8c0-5.3 4.1-9.7 9.1-9.7"/><path class="st4" d="M128.4 412.5h109.9c.6 0 1.1.5 1.1 1.1V476c0 .6-.5 1.1-1.1 1.1H128.4c-1.6 0-2.9-1.3-2.9-2.9v-22.6c0-.6.5-1.1 1.1-1.1h69.9c.6 0 1.1-.5 1.1-1.1v-9.1c0-.6-.5-1.1-1.1-1.1h-69.9c-.6 0-1.1-.5-1.1-1.1v-22.6c0-1.7 1.3-3 2.9-3"/><path class="st5" d="M239.4 412.5h111c1.6 0 2.9 1.3 2.9 2.9v59c0 1.6-1.3 2.9-2.9 2.9h-111v-64.8z"/><path class="st6" d="M192 443.3h73.7c.1 0 .2.1.2.1v2.9c0 .1-.1.1-.2.1H192c-.1 0-.1-.1-.1-.1v-2.9s0-.1.1-.1"/><path class="st6" d="M137.8 439.2h59.3c.3 0 .6.2.6.5v10.4c0 .3-.3.5-.6.5h-59.3c-.3 0-.6-.2-.6-.5v-10.4c0-.3.3-.5.6-.5"/><path class="st4" d="M128.4 484.6h109.9c.6 0 1.1.5 1.1 1.1v62.4c0 .6-.5 1.1-1.1 1.1H128.4c-1.6 0-2.9-1.3-2.9-2.9v-22.6c0-.6.5-1.1 1.1-1.1h69.9c.6 0 1.1-.5 1.1-1.1v-9.1c0-.6-.5-1.1-1.1-1.1h-69.9c-.6 0-1.1-.5-1.1-1.1v-22.6c0-1.7 1.3-3 2.9-3"/><path class="st5" d="M239.4 484.6h111c1.6 0 2.9 1.3 2.9 2.9v59c0 1.6-1.3 2.9-2.9 2.9h-111v-64.8z"/><path class="st6" d="M192 515.4h73.7c.1 0 .2.1.2.1v2.9c0 .1-.1.1-.2.1H192c-.1 0-.1-.1-.1-.1v-2.9c0-.1 0-.1.1-.1"/><path class="st6" d="M137.8 511.3h59.3c.3 0 .6.2.6.5v10.4c0 .3-.3.5-.6.5h-59.3c-.3 0-.6-.2-.6-.5v-10.4c0-.3.3-.5.6-.5"/><path class="st4" d="M128.4 556.7h109.9c.6 0 1.1.5 1.1 1.1v62.4c0 .6-.5 1.1-1.1 1.1H128.4c-1.6 0-2.9-1.3-2.9-2.9v-22.6c0-.6.5-1.1 1.1-1.1h69.9c.6 0 1.1-.5 1.1-1.1v-9.1c0-.6-.5-1.1-1.1-1.1h-69.9c-.6 0-1.1-.5-1.1-1.1v-22.6c0-1.7 1.3-3 2.9-3"/><path class="st5" d="M239.4 556.7h111c1.6 0 2.9 1.3 2.9 2.9v59c0 1.6-1.3 2.9-2.9 2.9h-111v-64.8z"/><path class="st6" d="M192 587.5h73.7c.1 0 .2.1.2.1v2.9c0 .1-.1.1-.2.1H192c-.1 0-.1-.1-.1-.1v-2.9c0-.1 0-.1.1-.1"/><path class="st6" d="M137.8 583.4h59.3c.3 0 .6.2.6.5v10.4c0 .3-.3.5-.6.5h-59.3c-.3 0-.6-.2-.6-.5v-10.4c0-.3.3-.5.6-.5"/><path class="st4" d="M128.4 628.8h109.9c.6 0 1.1.5 1.1 1.1v62.4c0 .6-.5 1.1-1.1 1.1H128.4c-1.6 0-2.9-1.3-2.9-2.9V668c0-.6.5-1.1 1.1-1.1h69.9c.6 0 1.1-.5 1.1-1.1v-9.1c0-.6-.5-1.1-1.1-1.1h-69.9c-.6 0-1.1-.5-1.1-1.1v-22.6c0-1.8 1.3-3.1 2.9-3.1"/><path class="st5" d="M239.4 628.8h111c1.6 0 2.9 1.3 2.9 2.9v59c0 1.6-1.3 2.9-2.9 2.9h-111v-64.8z"/><path class="st6" d="M192 659.6h73.7c.1 0 .2.1.2.1v2.9c0 .1-.1.1-.2.1H192c-.1 0-.1-.1-.1-.1v-2.9c0-.1 0-.1.1-.1"/><path class="st6" d="M137.8 655.5h59.3c.3 0 .6.2.6.5v10.4c0 .3-.3.5-.6.5h-59.3c-.3 0-.6-.2-.6-.5V656c0-.3.3-.5.6-.5"/><path class="st7" d="M292.8 442.2c-1.9-3.3-6.2-4.5-9.5-2.6s-4.5 6.2-2.6 9.5 6.2 4.5 9.5 2.6c3.4-1.9 4.5-6.1 2.6-9.5m47.8 0c-1.9-3.3-6.2-4.5-9.5-2.6s-4.5 6.2-2.6 9.5 6.2 4.5 9.5 2.6c3.4-1.9 4.6-6.1 2.6-9.5m-23.9 0c-1.9-3.3-6.2-4.5-9.5-2.6s-4.5 6.2-2.6 9.5 6.2 4.5 9.5 2.6c3.4-1.9 4.5-6.1 2.6-9.5m11.8 72.1c1.9-3.3 6.2-4.5 9.5-2.6s4.5 6.2 2.6 9.5-6.2 4.5-9.5 2.6-4.5-6.2-2.6-9.5m-47.8 0c1.9-3.3 6.2-4.5 9.5-2.6s4.5 6.2 2.6 9.5-6.2 4.5-9.5 2.6c-3.4-1.9-4.5-6.2-2.6-9.5m23.9 0c1.9-3.3 6.2-4.5 9.5-2.6s4.5 6.2 2.6 9.5-6.2 4.5-9.5 2.6c-3.4-1.9-4.5-6.2-2.6-9.5m-11.8 72.1c-1.9-3.3-6.2-4.5-9.5-2.6s-4.5 6.2-2.6 9.5 6.2 4.5 9.5 2.6c3.4-1.9 4.5-6.2 2.6-9.5m47.8 0c-1.9-3.3-6.2-4.5-9.5-2.6s-4.5 6.2-2.6 9.5 6.2 4.5 9.5 2.6c3.4-1.9 4.6-6.2 2.6-9.5m-23.9 0c-1.9-3.3-6.2-4.5-9.5-2.6s-4.5 6.2-2.6 9.5 6.2 4.5 9.5 2.6c3.4-1.9 4.5-6.2 2.6-9.5m11.8 72.1c1.9-3.3 6.2-4.5 9.5-2.6s4.5 6.2 2.6 9.5-6.2 4.5-9.5 2.6-4.5-6.2-2.6-9.5m-47.8 0c1.9-3.3 6.2-4.5 9.5-2.6s4.5 6.2 2.6 9.5-6.2 4.5-9.5 2.6c-3.4-1.9-4.5-6.2-2.6-9.5m23.9 0c1.9-3.3 6.2-4.5 9.5-2.6s4.5 6.2 2.6 9.5-6.2 4.5-9.5 2.6c-3.4-1.9-4.5-6.2-2.6-9.5"/><path class="st8" d="M291.5 441.4c-1.9-3.3-6.2-4.5-9.5-2.6s-4.5 6.2-2.6 9.5 6.2 4.5 9.5 2.6c3.4-1.9 4.5-6.2 2.6-9.5"/><path class="st9" d="M339.3 441.4c-1.9-3.3-6.2-4.5-9.5-2.6s-4.5 6.2-2.6 9.5 6.2 4.5 9.5 2.6c3.4-1.9 4.6-6.2 2.6-9.5"/><path class="st10" d="M315.4 441.4c-1.9-3.3-6.2-4.5-9.5-2.6s-4.5 6.2-2.6 9.5 6.2 4.5 9.5 2.6c3.4-1.9 4.5-6.2 2.6-9.5"/><path class="st8" d="M327.2 513.5c1.9-3.3 6.2-4.5 9.5-2.6s4.5 6.2 2.6 9.5-6.2 4.5-9.5 2.6-4.5-6.2-2.6-9.5"/><path class="st9" d="M279.4 513.5c1.9-3.3 6.2-4.5 9.5-2.6s4.5 6.2 2.6 9.5-6.2 4.5-9.5 2.6c-3.4-1.9-4.5-6.2-2.6-9.5"/><path class="st10" d="M303.3 513.5c1.9-3.3 6.2-4.5 9.5-2.6s4.5 6.2 2.6 9.5-6.2 4.5-9.5 2.6c-3.4-1.9-4.5-6.2-2.6-9.5"/><path class="st8" d="M291.5 585.6c-1.9-3.3-6.2-4.5-9.5-2.6s-4.5 6.2-2.6 9.5 6.2 4.5 9.5 2.6c3.4-1.9 4.5-6.2 2.6-9.5"/><path class="st9" d="M339.3 585.6c-1.9-3.3-6.2-4.5-9.5-2.6s-4.5 6.2-2.6 9.5 6.2 4.5 9.5 2.6c3.4-1.9 4.6-6.2 2.6-9.5"/><path class="st10" d="M315.4 585.6c-1.9-3.3-6.2-4.5-9.5-2.6s-4.5 6.2-2.6 9.5 6.2 4.5 9.5 2.6c3.4-1.9 4.5-6.2 2.6-9.5"/><path class="st8" d="M327.2 657.7c1.9-3.3 6.2-4.5 9.5-2.6s4.5 6.2 2.6 9.5-6.2 4.5-9.5 2.6-4.5-6.2-2.6-9.5"/><path class="st9" d="M279.4 657.7c1.9-3.3 6.2-4.5 9.5-2.6s4.5 6.2 2.6 9.5-6.2 4.5-9.5 2.6c-3.4-1.9-4.5-6.2-2.6-9.5"/><path class="st10" d="M303.3 657.7c1.9-3.3 6.2-4.5 9.5-2.6s4.5 6.2 2.6 9.5-6.2 4.5-9.5 2.6c-3.4-1.9-4.5-6.2-2.6-9.5"/><path class="st3" d="M745.7 437.2h172c4.6 0 8.4 4.1 8.4 9v235c0 5-3.8 9-8.4 9h-172c-4.6 0-8.4-4.1-8.4-9v-235c0-5 3.8-9 8.4-9"/><path class="st4" d="M729.2 433.9h101.5c.6 0 1.1.5 1.1 1.1v57.5c0 .6-.5 1.1-1.1 1.1H729.2c-1.5 0-2.7-1.2-2.7-2.7v-20.8c0-.6.5-1.1 1.1-1.1H792c.6 0 1.1-.5 1.1-1.1v-8.2c0-.6-.5-1.1-1.1-1.1h-64.4c-.6 0-1.1-.5-1.1-1.1v-20.8c0-1.6 1.2-2.8 2.7-2.8"/><path class="st5" d="M831.8 433.9h102.6c1.5 0 2.7 1.2 2.7 2.7V491c0 1.5-1.2 2.7-2.7 2.7H831.8v-59.8z"/><path class="st6" d="M787.9 462.3H856c.1 0 .1.1.1.1v2.7c0 .1-.1.1-.1.1h-68.1c-.1 0-.1-.1-.1-.1v-2.7l.1-.1"/><path class="st6" d="M737.8 458.5h54.8c.3 0 .5.2.5.5v9.6c0 .3-.2.5-.5.5h-54.8c-.3 0-.5-.2-.5-.5V459c0-.3.3-.5.5-.5"/><path class="st4" d="M729.2 500.5h102.6v59.8H729.2c-1.5 0-2.7-1.2-2.7-2.7v-20.2c0-1 .8-1.8 1.8-1.8h64.2c.4 0 .7-.3.7-.7v-9.1c0-.4-.3-.7-.7-.7h-64.2c-1 0-1.8-.8-1.8-1.8v-20.2c0-1.4 1.2-2.6 2.7-2.6"/><path class="st5" d="M831.8 500.5h102.6c1.5 0 2.7 1.2 2.7 2.7v54.5c0 1.5-1.2 2.7-2.7 2.7H831.8v-59.9z"/><path class="st6" d="M787.9 528.9H856c.1 0 .1.1.1.1v2.7c0 .1-.1.1-.1.1h-68.1c-.1 0-.1-.1-.1-.1V529l.1-.1"/><path class="st6" d="M737.8 525.1h54.8c.3 0 .5.2.5.5v9.6c0 .3-.2.5-.5.5h-54.8c-.3 0-.5-.2-.5-.5v-9.6c0-.3.3-.5.5-.5"/><path class="st4" d="M729.2 567.1h101.5c.6 0 1.1.5 1.1 1.1v57.5c0 .6-.5 1.1-1.1 1.1h-103c-.6 0-1.1-.5-1.1-1.1v-22.3c0-.6.5-1.1 1.1-1.1h64.4c.6 0 1.1-.5 1.1-1.1V593c0-.6-.5-1.1-1.1-1.1h-64.4c-.6 0-1.1-.5-1.1-1.1V570c-.1-1.7 1.1-2.9 2.6-2.9"/><path class="st5" d="M831.8 567.1h102.6c1.5 0 2.7 1.2 2.7 2.7v54.5c0 1.5-1.2 2.7-2.7 2.7H831.8v-59.9z"/><path class="st6" d="M787.9 595.5H856c.1 0 .1.1.1.1v2.7c0 .1-.1.1-.1.1h-68.1c-.1 0-.1-.1-.1-.1v-2.7l.1-.1"/><path class="st6" d="M737.8 591.7h54.8c.3 0 .5.2.5.5v9.6c0 .3-.2.5-.5.5h-54.8c-.3 0-.5-.2-.5-.5v-9.6c0-.3.3-.5.5-.5"/><path class="st4" d="M729.2 633.7h101.5c.6 0 1.1.5 1.1 1.1v57.5c0 .6-.5 1.1-1.1 1.1h-103c-.6 0-1.1-.5-1.1-1.1V670c0-.6.5-1.1 1.1-1.1h64.4c.6 0 1.1-.5 1.1-1.1v-8.2c0-.6-.5-1.1-1.1-1.1h-64.4c-.6 0-1.1-.5-1.1-1.1v-20.8c-.1-1.7 1.1-2.9 2.6-2.9"/><path class="st5" d="M831.8 633.7h102.6c1.5 0 2.7 1.2 2.7 2.7v54.5c0 1.5-1.2 2.7-2.7 2.7H831.8v-59.9z"/><path class="st6" d="M787.9 662.1H856c.1 0 .1.1.1.1v2.7c0 .1-.1.1-.1.1h-68.1c-.1 0-.1-.1-.1-.1v-2.7l.1-.1"/><path class="st6" d="M737.8 658.3h54.8c.3 0 .5.2.5.5v9.6c0 .3-.2.5-.5.5h-54.8c-.3 0-.5-.2-.5-.5v-9.6c0-.2.3-.5.5-.5"/><path class="st7" d="M881.1 461.3c-1.8-3.1-5.7-4.1-8.8-2.4-3.1 1.8-4.1 5.7-2.4 8.8 1.8 3.1 5.7 4.1 8.8 2.4 3.1-1.8 4.1-5.7 2.4-8.8m44.2 0c-1.8-3.1-5.7-4.1-8.8-2.4-3.1 1.8-4.1 5.7-2.4 8.8 1.8 3.1 5.7 4.1 8.8 2.4 3.1-1.8 4.1-5.7 2.4-8.8m-22.1 0c-1.8-3.1-5.7-4.1-8.8-2.4-3.1 1.8-4.1 5.7-2.4 8.8 1.8 3.1 5.7 4.1 8.8 2.4 3.1-1.8 4.1-5.7 2.4-8.8m10.9 66.6c1.8-3.1 5.7-4.1 8.8-2.4 3.1 1.8 4.1 5.7 2.4 8.8-1.8 3.1-5.7 4.1-8.8 2.4-3.1-1.7-4.2-5.7-2.4-8.8m-44.2 0c1.8-3.1 5.7-4.1 8.8-2.4 3.1 1.8 4.1 5.7 2.4 8.8-1.8 3.1-5.7 4.1-8.8 2.4-3.1-1.7-4.2-5.7-2.4-8.8m22.1 0c1.8-3.1 5.7-4.1 8.8-2.4 3.1 1.8 4.1 5.7 2.4 8.8-1.8 3.1-5.7 4.1-8.8 2.4-3.1-1.7-4.2-5.7-2.4-8.8m-10.9 66.6c-1.8-3.1-5.7-4.1-8.8-2.4-3.1 1.8-4.1 5.7-2.4 8.8 1.8 3.1 5.7 4.1 8.8 2.4 3.1-1.7 4.1-5.7 2.4-8.8m44.2 0c-1.8-3.1-5.7-4.1-8.8-2.4-3.1 1.8-4.1 5.7-2.4 8.8 1.8 3.1 5.7 4.1 8.8 2.4 3.1-1.7 4.1-5.7 2.4-8.8m-22.1 0c-1.8-3.1-5.7-4.1-8.8-2.4-3.1 1.8-4.1 5.7-2.4 8.8 1.8 3.1 5.7 4.1 8.8 2.4 3.1-1.7 4.1-5.7 2.4-8.8m10.9 66.7c1.8-3.1 5.7-4.1 8.8-2.4 3.1 1.8 4.1 5.7 2.4 8.8-1.8 3.1-5.7 4.1-8.8 2.4-3.1-1.8-4.2-5.8-2.4-8.8m-44.2 0c1.8-3.1 5.7-4.1 8.8-2.4 3.1 1.8 4.1 5.7 2.4 8.8-1.8 3.1-5.7 4.1-8.8 2.4-3.1-1.8-4.2-5.8-2.4-8.8m22.1 0c1.8-3.1 5.7-4.1 8.8-2.4 3.1 1.8 4.1 5.7 2.4 8.8-1.8 3.1-5.7 4.1-8.8 2.4-3.1-1.8-4.2-5.8-2.4-8.8"/><path class="st8" d="M879.9 460.5c-1.8-3.1-5.7-4.1-8.8-2.4-3.1 1.8-4.1 5.7-2.4 8.8 1.8 3.1 5.7 4.1 8.8 2.4 3.1-1.7 4.1-5.7 2.4-8.8"/><path class="st9" d="M924.1 460.5c-1.8-3.1-5.7-4.1-8.8-2.4-3.1 1.8-4.1 5.7-2.4 8.8 1.8 3.1 5.7 4.1 8.8 2.4 3.1-1.7 4.1-5.7 2.4-8.8"/><path class="st10" d="M902 460.5c-1.8-3.1-5.7-4.1-8.8-2.4-3.1 1.8-4.1 5.7-2.4 8.8 1.8 3.1 5.7 4.1 8.8 2.4 3.1-1.7 4.1-5.7 2.4-8.8"/><path class="st8" d="M912.9 527.2c1.8-3.1 5.7-4.1 8.8-2.4 3.1 1.8 4.1 5.7 2.4 8.8-1.8 3.1-5.7 4.1-8.8 2.4-3.1-1.8-4.2-5.8-2.4-8.8"/><path class="st9" d="M868.7 527.2c1.8-3.1 5.7-4.1 8.8-2.4 3.1 1.8 4.1 5.7 2.4 8.8-1.8 3.1-5.7 4.1-8.8 2.4-3.1-1.8-4.2-5.8-2.4-8.8"/><path class="st10" d="M890.8 527.2c1.8-3.1 5.7-4.1 8.8-2.4 3.1 1.8 4.1 5.7 2.4 8.8-1.8 3.1-5.7 4.1-8.8 2.4-3.1-1.8-4.2-5.8-2.4-8.8"/><path class="st8" d="M879.9 593.8c-1.8-3.1-5.7-4.1-8.8-2.4-3.1 1.8-4.1 5.7-2.4 8.8 1.8 3.1 5.7 4.1 8.8 2.4 3.1-1.8 4.1-5.7 2.4-8.8"/><path class="st9" d="M924.1 593.8c-1.8-3.1-5.7-4.1-8.8-2.4-3.1 1.8-4.1 5.7-2.4 8.8 1.8 3.1 5.7 4.1 8.8 2.4 3.1-1.8 4.1-5.7 2.4-8.8"/><path class="st10" d="M902 593.8c-1.8-3.1-5.7-4.1-8.8-2.4-3.1 1.8-4.1 5.7-2.4 8.8 1.8 3.1 5.7 4.1 8.8 2.4 3.1-1.8 4.1-5.7 2.4-8.8"/><path class="st8" d="M912.9 660.4c1.8-3.1 5.7-4.1 8.8-2.4 3.1 1.8 4.1 5.7 2.4 8.8-1.8 3.1-5.7 4.1-8.8 2.4-3.1-1.8-4.2-5.7-2.4-8.8"/><path class="st9" d="M868.7 660.4c1.8-3.1 5.7-4.1 8.8-2.4 3.1 1.8 4.1 5.7 2.4 8.8-1.8 3.1-5.7 4.1-8.8 2.4-3.1-1.8-4.2-5.7-2.4-8.8"/><path class="st10" d="M890.8 660.4c1.8-3.1 5.7-4.1 8.8-2.4 3.1 1.8 4.1 5.7 2.4 8.8-1.8 3.1-5.7 4.1-8.8 2.4-3.1-1.8-4.2-5.7-2.4-8.8"/><path class="st5" d="M284.5 291.4c-12.9-2.6-26.1-3.9-39.3-3.9h-.2c-111.2 0-202.3 91.1-202.3 202.3 0 104 86.5 200.5 192.4 201.9 85.5 1.1 171 2.1 256.4 1.8 115.7-.4 231.4-1.3 347.1-1.4 90.2-.1 164-72.5 164-163 0-81.3-60.9-150.8-141.3-161.6l-25.4-3.4-3.8-25.3c-19.8-130.5-132.4-227.1-264.5-227.1-106.4 0-202.4 62.9-245.1 160l-11 25.1-27-5.4zM245 253.3h.3c15.7 0 31.1 1.6 46 4.5C337.9 151.6 444.1 77.4 567.6 77.4c151.2 0 276.4 111.2 298.3 256.2 96.2 12.9 171 95.9 171 195.4 0 109.3-89.1 197.2-198.2 197.2-354.1.5-317.1 3.4-604-.4-124.9-1.6-226.2-113.6-226.2-236 0-130.1 106.4-236.5 236.5-236.5z"/><path d="M265.2 286.1c6.6.7 13.2 1.6 19.7 2.9l25.2 5 10.3-23.4c21.5-49 56.6-89.4 99.6-117.5 43-28.1 94-43.9 147.6-43.9 66.6 0 128.4 24.4 175.9 65.2 47.5 40.8 80.9 98.1 90.9 163.9L838 362l23.7 3.2c40.8 5.5 76.7 25.9 102.3 55.2 25.6 29.3 41.1 67.5 41.1 108.7 0 45.8-18.6 87-48.6 116.8-30.2 30-71.9 48.5-117.7 48.5-67.5.1-134.9.4-202.4.8-48.2.3-96.5.5-144.7.7-42.8.1-85.5 0-128.2-.4-42.8-.4-85.5-.9-128.2-1.4-52.9-.7-101-24.8-136.1-61.7-36.1-37.9-58.5-89.2-58.5-142.5 0-56.2 23-107.4 60.1-144.5 37.1-37.1 88.2-60.1 144.5-60.1h.3c6.3-.1 13 .2 19.6.8m18.8 7.5c-6.4-1.3-12.8-2.2-19.2-2.9-6.4-.6-12.9-1-19.5-1h-.3c-55 0-104.9 22.5-141.2 58.8C67.5 384.8 45 434.8 45 489.8c0 52.1 22 102.3 57.2 139.3 34.3 36 81.3 59.6 132.8 60.3 42.7.6 85.5 1.1 128.2 1.4 42.7.3 85.5.5 128.2.4 48.2-.2 96.5-.4 144.7-.7 67.5-.4 134.9-.7 202.4-.8 44.6 0 85.1-18 114.4-47.2 29.2-29 47.3-69 47.3-113.5 0-40-15-77.2-39.9-105.6-24.9-28.5-59.8-48.3-99.4-53.6l-25.4-3.4c-1-.1-1.8-1-2-2l-3.8-25.3c-9.8-64.7-42.6-120.9-89.3-161.1-46.7-40.1-107.4-64.1-172.9-64.1-52.7 0-102.8 15.6-145.1 43.1-42.3 27.6-76.7 67.3-97.9 115.5l-11 25.1c-.4 1-1.5 1.6-2.6 1.3l-26.9-5.3zm-38.7-38h-.3c-64.4 0-122.9 26.3-165.4 68.8-42.4 42.4-68.8 101-68.8 165.4 0 61.4 25.7 120.1 67.1 163.3 40.4 42.2 95.7 69.6 156.7 70.4 184.1 2.4 234.9 2.1 341.2 1.4 59.3-.4 136-.9 262.9-1 54 0 103-21.8 138.5-57.1 35.4-35.2 57.3-83.8 57.3-137.7 0-48.9-18.2-93.7-48.2-128-30.4-34.7-72.8-58.7-120.6-65.1-1.1-.1-2-.9-2.1-2-11-72.5-47.9-136.4-101-182-52.4-45-120.5-72.2-195-72.2-60.3 0-116.5 17.8-163.5 48.5-48.4 31.6-87.2 76.9-110.7 130.4-.4 1.1-1.5 1.7-2.6 1.5-7.5-1.5-15-2.6-22.6-3.4-7.5-.8-15.2-1.2-22.9-1.2zm-.3-4.6h.3c7.8 0 15.6.4 23.3 1.2 7.2.7 14.3 1.7 21.3 3.1 24-53.6 63-99.1 111.7-130.9 47.7-31.2 104.7-49.3 166-49.3 75.6 0 144.8 27.6 198 73.3 53.5 46 90.9 110.3 102.4 183.2 48.3 6.9 91.1 31.3 121.9 66.4 30.7 35.1 49.4 81 49.4 131.1 0 55.2-22.5 105-58.7 141-36.4 36.2-86.6 58.5-141.8 58.5-126.8.2-203.5.7-262.8 1-106.3.7-157.1 1-341.2-1.4-62.3-.8-118.8-28.8-160-71.8-42.2-44.1-68.4-104-68.4-166.5 0-65.7 26.9-125.4 70.1-168.6C119.6 277.8 179.3 251 245 251z" fill="#053f93"/><path class="st2" d="M82.8 168.3c2 0 3.8.2 5.6.6 5.7-13 18.7-22 33.7-22 18.4 0 33.7 13.6 36.4 31.3 11.7 1.6 20.9 11.7 20.9 23.9 0 13.3-10.9 24.1-24.2 24.1-43.2.1-38.7.4-73.7 0-15.2-.2-27.6-13.9-27.6-28.8 0-16.2 13-29.1 28.9-29.1"/><path class="st12" d="M82.8 169c-7.8 0-14.8 3.2-19.9 8.3-5.1 5.1-8.3 12.1-8.3 19.9 0 7.4 3.1 14.4 8.1 19.6 4.9 5.1 11.5 8.4 18.8 8.5 22.5.3 28.7.3 41.6.2 7.2 0 16.6-.1 32.1-.1 6.5 0 12.4-2.6 16.6-6.9 4.2-4.2 6.9-10.1 6.9-16.5 0-5.9-2.2-11.2-5.8-15.4-3.6-4.2-8.7-7-14.4-7.8-.3 0-.6-.3-.6-.6-1.3-8.7-5.8-16.5-12.2-22-6.3-5.4-14.5-8.7-23.5-8.7-7.3 0-14.1 2.2-19.7 5.9-5.8 3.8-10.5 9.3-13.3 15.7-.1.3-.4.5-.8.4-.9-.2-1.8-.3-2.7-.4-1-.1-1.9-.1-2.9-.1m0-1.4c1 0 2 0 2.9.1.8.1 1.6.2 2.3.3 3-6.5 7.7-12 13.7-15.9 5.9-3.8 12.9-6.1 20.5-6.1 9.3 0 17.9 3.4 24.4 9s11.1 13.4 12.6 22.3c5.9.9 11.1 3.9 14.8 8.2 3.8 4.4 6.1 10.1 6.1 16.3 0 6.9-2.8 13-7.3 17.5s-10.7 7.3-17.6 7.3c-15.5 0-24.8.1-32.1.1-13 .1-19.2.1-41.6-.2-7.7-.1-14.7-3.6-19.8-8.9-5.2-5.5-8.5-12.9-8.5-20.6 0-8.1 3.3-15.5 8.7-20.9 5.4-5.2 12.8-8.5 20.9-8.5z"/><path class="st2" d="M690.9 31.4c1.8 0 3.6.2 5.3.5 5.4-12.2 17.5-20.7 31.7-20.7 17.4 0 31.7 12.8 34.3 29.4 11 1.5 19.6 11 19.6 22.4 0 12.6-10.2 22.6-22.8 22.6-40.7.1-36.4.4-69.4 0-14.3-.2-26-13-26-27.1.1-14.9 12.3-27.1 27.3-27.1"/><path class="st12" d="M690.9 32c-7.3 0-13.9 3-18.7 7.8-4.8 4.8-7.8 11.4-7.8 18.7 0 6.9 2.9 13.6 7.6 18.5 4.6 4.8 10.8 7.9 17.7 8 21.1.3 27 .2 39.2.2 6.8 0 15.6-.1 30.2-.1 6.1 0 11.6-2.5 15.6-6.4 4-4 6.5-9.5 6.5-15.5 0-5.5-2.1-10.6-5.4-14.4-3.4-3.9-8.2-6.6-13.6-7.3-.3 0-.6-.2-.6-.6-1.2-8.2-5.4-15.5-11.5-20.7-5.9-5.1-13.7-8.2-22.1-8.2-6.9 0-13.2 2-18.6 5.5-5.5 3.6-9.9 8.7-12.6 14.8-.1.3-.4.5-.7.4-.9-.2-1.7-.3-2.6-.4-.8-.2-1.7-.3-2.6-.3m0-1.3c.9 0 1.8 0 2.7.1.7.1 1.5.2 2.2.3 2.8-6.1 7.3-11.3 12.8-14.9 5.5-3.6 12.2-5.7 19.3-5.7 8.8 0 16.8 3.2 23 8.5 6.1 5.3 10.5 12.6 11.8 21 5.5.9 10.4 3.7 13.9 7.7 3.6 4.1 5.8 9.5 5.8 15.3 0 6.4-2.6 12.3-6.9 16.5-4.2 4.2-10.1 6.8-16.6 6.8-14.6 0-23.4.1-30.2.1-12.2.1-18 .1-39.2-.2-7.3-.1-13.8-3.4-18.6-8.4-4.9-5.1-8-12.1-8-19.4 0-7.6 3.1-14.6 8.2-19.6 5.2-5 12.1-8.1 19.8-8.1z"/><path class="st2" d="M912.8 246c2.6 0 5.1.3 7.5.7 7.6-17.2 24.8-29.3 44.8-29.3 24.5 0 44.8 18 48.4 41.6 15.6 2.1 27.7 15.6 27.7 31.7 0 17.7-14.5 32-32.1 32-57.4.1-51.4.5-98-.1-20.3-.3-36.7-18.4-36.7-38.3 0-21 17.3-38.3 38.4-38.3"/><path class="st12" d="M933.8 266.8c-10.4 0-19.8 4.2-26.6 11-6.8 6.8-11 16.2-11 26.5 0 9.8 4.1 19.3 10.8 26.2 6.5 6.8 15.4 11.2 25.1 11.3 29.9.4 38.1.3 55.3.2 9.6-.1 22.1-.1 42.6-.2 8.6 0 16.5-3.5 22.2-9.2 5.7-5.6 9.2-13.4 9.2-22.1 0-7.8-2.9-15-7.7-20.5-4.9-5.6-11.6-9.4-19.3-10.4-.4 0-.7-.3-.7-.7-1.8-11.7-7.7-21.9-16.3-29.3C1009 242.4 998 238 986 238c-9.7 0-18.7 2.9-26.3 7.8-7.8 5.1-14 12.4-17.8 21-.1.4-.5.6-.9.5-1.2-.2-2.4-.4-3.6-.5-1.1.1-2.3 0-3.6 0m0-1.5c1.3 0 2.6.1 3.9.2 1.1.1 2.1.3 3.2.4 3.9-8.6 10.3-16 18.1-21.1 7.8-5.1 17.1-8.1 27.1-8.1 12.4 0 23.7 4.5 32.4 12s14.8 17.9 16.7 29.7c7.8 1.2 14.7 5.2 19.7 10.9 5 5.8 8.1 13.3 8.1 21.5 0 9.1-3.7 17.2-9.6 23.2-6 5.9-14.2 9.6-23.3 9.6-20.6 0-33 .1-42.6.2-17.3.1-25.5.2-55.4-.2-10.2-.1-19.5-4.7-26.2-11.8-6.9-7.2-11.2-17-11.2-27.3 0-10.8 4.4-20.5 11.5-27.6 7-7.2 16.8-11.6 27.6-11.6z"/><path class="st13" d="M237.4 124.1c2.3-1 5.3.8 6.8 4.1s.8 6.8-1.5 7.8-5.3-.8-6.8-4.1-.8-6.8 1.5-7.8m38-.7c-2.3-1-5.3.8-6.8 4.1s-.8 6.8 1.5 7.8 5.3-.8 6.8-4.1c1.4-3.3.7-6.8-1.5-7.8"/><path class="st14" d="M223.9 334.7s-1.9 8.7-2 11.5c0 0 1.4 2 1 4.2 0 0-4.3 10-2.5 17.6 0 0 3.6 9.9 5.9 12.8 0 0 4.6 2 7.8-.3 8.3-6.2 6.1-19.7 5.4-26.6 0 0-1.8-2-1.3-2.9.5-.9 2-2.5 2-2.5s1.3-3.6 1.1-5.5c-.1-1.9.3-6.6-2.3-8.8-2.5-2.3-9-3.5-15.1.5"/><path class="st3" d="M234.2 232.3L206 252.8c-4.9 3.6-1.7 14.7-1.1 20 1.5 15.2 16.9 62.9 16.9 62.9s15.6 2.4 22.7-.1c0 0-9.9-62.5-12-69.1 0 0 21.5-9.9 24.5-10.5l2.9-23.9-25.7.2z"/><path class="st15" d="M239.1 336.6c2-.2 3.9-.5 5.4-1 0 0-9.9-62.5-12-69.1 0 0 21.5-9.9 24.5-10.5l1.7-13.6c-14 8.5-35 21.4-35 21.4l15.4 72.8z"/><path class="st14" d="M286.3 341.5s-3.4 5.7-2.1 8.8c1.3 3.1 5.7 5.4 5.7 5.4s2.7-2.8 9.5 13.4c0 0-.1 7.4 13.3 9.1 0 0 6.5 2.6 11.1-2 0 0 1.9-2.7-.6-7 0 0-8.3-7.3-9.7-17.8 0 0-1.4-5.8-7.2-11.5 0 0-4.3-4.4-6.2-3-1.4 1-8-1.1-11.5-.4-1.1.2-2.3 5-2.3 5"/><path class="st3" d="M256.9 256l31.5 11.4s-5.4 20.6-3.1 68.7c.5 1.9 13.4 8.5 24.3 6 0 0 3.1-52.9 5.9-71.9.9-5.8 4.1-11.2-1-16.2-3.5-3.3-26.2-17.9-26.2-17.9l-28.5-3.9-4.1 15.2 1.2 8.6z"/><path class="st15" d="M256.9 256l31.5 11.4s-5.4 20.6-3.1 68.7c.2.8 2.5 2.3 5.9 3.7l4.4-78.6s-24.2-10.1-39.2-16.3l-.7 2.4 1.2 8.7z"/><path class="st10" d="M224.6 156.1c-7.4 3.4-6.1 19.3 4.4 59.7 0 0 .3.9.9 2.5-.3 1.5-.6 3-1 4.4-1.9 8.2 1.8 10.3 2.8 12.2 1.2 2.1 4.7 3.6 8.5 4.5l1.1 1.1 6.7.3c3 .4 5.2.5 5.2.5l3.2-.1 3.2.1s2.2-.1 5.2-.5l6.7-.3c.4-.3.7-.7 1.1-1.1 3.9-1 7.4-2.4 8.5-4.5 1-1.8 4.7-4 2.8-12.2-.3-1.4-.6-2.8-1-4.4.6-1.5.9-2.5.9-2.5 7.1-39 9.7-54.4 1.2-59.6l-18.7-8.4c-4.1-1.5-8.5-2.5-10.1-2-1.6-.5-6 .5-10.1 2l-21.5 8.3z"/><path class="st15" d="M287.8 194.7c1.4-8.5 7.9-38.7-4.3-39.4-3.3 7.1-6.9 22.8 4.3 39.4m-64.2-1c10-16.6 5.7-32 2.4-38.1-7.7-.7-11.1 20.5-2.4 38.1"/><path class="st16" d="M223.1 157.4c-12.1 2.8-27.8 43.3-24.4 53.1 0 0 15.4 23.9 24.7 32.6l14.5-3.1s-13.2-29.7-23.9-36.8c0 0 9.5-11.8 10.7-17.5 2-1.8 3.1-26.8-1.6-28.3"/><path class="st15" d="M271.8 150.1v.3c0 2.8-.9 5.5-2.7 7.7-3.1 3.8-8.3 6.5-13.4 6.4-7.8-.2-15.6-5.6-15.8-14v-.3l6.5-2.5c4.1-1.5 8.5-2.5 10.1-2 1.6-.5 6 .5 10.1 2l5.2 2.4z"/><path class="st13" d="M244.3 141.7s2.5 5.1-1.2 8.7c.4 13.2 25.5 13.4 25.5 0-3.7-3.5-1.2-8.7-1.2-8.7l-11.3-3.5v-.2l-.3.1-.3-.1v.2l-11.2 3.5z"/><path class="st17" d="M237.8 125.6s1.7 11 4.1 15.9c1.3 3.3 10.6 10.1 14 9.8 4.6-.3 12.6-5 14.5-9.8 2.4-4.9 4.1-15.9 4.1-15.9 2.8-5.9 3-8.4 1.4-17.2-.1-8.9-14.8-10.5-14.8-10.5-3.7-1.2-6.4-1.2-10.1 0 0 0-14.6 1.6-14.6 10.5-2.8 9.3-1.4 11.3 1.4 17.2"/><path class="st15" d="M224.8 116.6s6.6-.7 9.9-3.7c0 0-3.1.4-7.1-3 11.8 1.8 14.4-25 40.4-14.3.1-1.4-.2-3.2-1.1-4.3 2.8 1.8 5.2 4 6 6.2l3.2-3.1.2 5.8s4.5 2.8 4.8 12.2c.3 8.1-5.2 11.9-6.7 18.9h-1.3c.2-2.6.2-5.4.5-7.9 0 0-3.1-1.7-2.5-7.2-3 1.9-38.1 12-46.3.4"/><path class="st16" d="M286.7 157c12.1 2.8 27.8 43.3 24.4 53.1 0 0-15.4 23.9-24.7 32.6l-14.5-3.1s13.2-29.7 23.9-36.8c0 0-8.9-11.4-10.1-17.2-2.1-1.7-3.7-27.1 1-28.6"/><path d="M214.5 194.1h85.1c2.2 0 4.4 1.9 4.1 4.2l-6 45.8c-.3 2.1-1.8 4-4.1 4h-74.2c-2.3 0-3.9-1.9-4.1-4l-4.9-45.8c-.2-2.3 1.9-4.2 4.1-4.2" fill-rule="evenodd" clip-rule="evenodd" fill="#8ac6f4"/><path class="st19" d="M214.5 194.9h85.1c1.8 0 3.6 1.5 3.4 3.4l-6 45.8c-.2 1.8-1.5 3.4-3.4 3.4h-74.2c-1.8 0-3.2-1.5-3.4-3.4l-4.9-45.8c-.1-1.9 1.6-3.4 3.4-3.4"/><path class="st20" d="M382.6 496.7h93.2V548c0 1.6-1.3 3-3 3h-87.3c-1.6 0-3-1.3-3-3v-51.3z"/><path class="st21" d="M382.6 496.7h93.2v-1.4c0-.8-.7-1.5-1.5-1.5h-53c-.7 0-1.3-.2-1.8-.6l-8.4-6.1c-.6-.4-1.1-.6-1.8-.6h-23.7c-1.6 0-3 1.3-3 3v7.2z"/><path class="st16" d="M379.4 496.7h93.2V548c0 1.6-1.3 3-3 3h-87.3c-1.6 0-3-1.3-3-3v-51.3z"/><path class="st22" d="M379.4 496.7h93.2v-1.4c0-.8-.7-1.5-1.5-1.5h-53c-.7 0-1.3-.2-1.8-.6l-8.4-6.1c-.6-.4-1.1-.6-1.8-.6h-23.7c-1.6 0-3 1.3-3 3v7.2z"/><path class="st20" d="M379.4 540.7v-34.1h20.9c3.1 0 5.6 2.5 5.6 5.6v23c0 3.1-2.5 5.6-5.6 5.6h-20.9z"/><path class="st23" d="M398 504h-23c-3.1 0-5.6 2.5-5.6 5.6v23c0 3.1 2.5 5.6 5.6 5.6h23c3.1 0 5.6-2.5 5.6-5.6v-23c0-3.1-2.5-5.6-5.6-5.6"/><path class="st24" d="M401.6 532.4v-22.6c0-2-1.7-3.7-3.7-3.7h-22.6c-2 0-3.7 1.7-3.7 3.7v22.6c0 2 1.7 3.7 3.7 3.7h22.6c2 0 3.7-1.7 3.7-3.7"/><path class="st23" d="M394.1 520.3l-12.2-7.1c-.3-.2-.6-.2-.9 0-.3.2-.5.4-.5.8v14.1c0 .3.2.6.5.8.3.2.6.2.9 0l12.2-7.1c.3-.2.5-.4.5-.8 0-.3-.2-.5-.5-.7"/><path class="st14" d="M317.9 703.2s-4.8 10.3-3.8 13c.4 1.1.2 7.6.1 10.5 0 1.2 1.1.7 1.3.9.6.6 2-6.9 2-6.9s4.1-4 9.5 10.2c4.7 3.2 17.4 2.9 21.7 1.3.9-1.3 1-5.9-2-6.1-2.8-.1-9.2-1.2-10-8.4 0 0-1.1-5-5.7-10.2 0 0-3.5-2.9-5-1.8-1.7 1.1-8.1-2.5-8.1-2.5"/><path class="st3" d="M379.5 567.2l-10.3 75c-6 14.8-27.1 39.7-38.9 64.7-6.3.4-13-1.2-15.6-3.2 15.8-22 20.2-54.5 34.6-64.4 5.1-19.1-16.5-66.8-2.3-78.7l32.5 6.6z"/><path class="st15" d="M379.5 567.2l-10.3 75c-6 14.8-27.1 39.7-38.9 64.7-2.7.2-5.5 0-8-.5 7.3-17.5 39.4-66.3 39.4-66.3 4.1-8 1.3-51.3-.8-76.7l18.6 3.8z"/><path class="st14" d="M389.4 710.3s2.1 13.1 4.5 14.7c1 .6 3 6.1 4.6 8.5.7 1 1.5.2 1.8.3.8.2-1.1-7.1-1.1-7.1s.5-5.1 13.1 5.2c5.9 2.6 18.9.7 20.6-6.2 0 0-.1-2.8-3.9-4.7-2.8-.1-11-.5-17.4-8 0 0-2.6-3.4-9.4-4.9 0 0-3.8-1.2-4.4.5-.5 1.9-8.4 1.7-8.4 1.7"/><path class="st3" d="M404.7 708.9s-18.9 4.6-18 1.2c5.3-18.9-13.2-47.9-6.6-70.9 2.1-7.3-10.7-29.1-20.3-43.7-5.9-9-12-18.9-5-34.4l32 8c7.6 13.7 12.8 49.4 12.1 69.5-.4 9.9 1.6 46.3 5.8 70.3"/><path class="st15" d="M404.7 708.9s-2.9.7-6.4 1.4c-11.9-67.3-5.6-81.3-5.6-81.3-2-28-13.9-51.3-21.8-63.8l15.9 4c7.6 13.7 12.8 49.4 12.1 69.5-.4 9.8 1.6 46.2 5.8 70.2"/><path class="st8" d="M351.7 469.6c-2.2-1-3.5-.1-8.4 6.2-4.5 5.8-12.4 16.3-4.9 43.1 12.7 45.6-.5 28.5-.2 48.4.1 3.5 2.4 6.4 4.8 8.6 0 0 34.8 6.2 44.6-6.5 1.5-3.4-1.5-11.9-4.2-15.9-7-10.5-5.2-18.4-4-32.7.3-3.3 12.4-11.7 6.4-21.6-4-6.6-9.9-11.6-15.3-18 0 0-1.7-1.7-2.8-2.2-4.2-2-10.9-7.4-16-9.4"/><path d="M379 525.9c-.4-2.2-1-4.5-1.7-6.5-1.1-3.2-8-4.4-9.5-7.4-.7-1.3-1.3-2.7-2.1-4-1.8-6.4-4.7-14.3-9-19.5-2.5-3-6-5.6-10-4.7-5.3 1.2-5.6 7.1-6.4 12-.6 24.7 62.9 48.8 5.8 66.9 0 0 11 .9 22.2-2.5-9.8 6.9-18.2 10.2-29.5 10.3.9 2.1 2.5 3.9 4.1 5.4 8.9 2.7 39.8 3.1 44.6-6.5 1.2-4.5-1.3-11-3.7-15.1-6.4-9.4-5.9-16.6-4.8-28.4" fill-rule="evenodd" clip-rule="evenodd" fill="#f61d2d"/><path class="st17" d="M404.9 548c-13.4-7.4-27.8-11.9-39.2-15.9 0-5.4-.7-10.5-2-16.9l-16.9 1.9c.2 6.6 2.9 14.4 3.3 21.8 13.3 12.6 45.1 9.4 54 17.1 8.2 3.6 10.7 4.2 16.6 1.3 6.7-3.3 5.8-6.4 4.9-7.6-1.4-1.5-1.1.9-9.2.4-.1 0-2.3-.7-2.1-1.8.1-1 3.8-2.9 3.8-3.4.1-3-10.9 3.1-11 3.1-.5-.1-.7.5-2.2 0"/><path class="st8" d="M364.7 509.8l.4 14.3c-5.5 1.8-12 2.1-17.7 1.6l-3-16.9c-4.4-28.9 24.4-43.3 20.3 1"/><path class="st13" d="M369.4 469.2s-6.1 9.5.7 14.8c.6 6.7-19-5.7-22.2-10.4 3.9-.8 5.6-10.1 4.8-13.4l2.6-.1 14.1 9.1z"/><path class="st15" d="M353 451s16.9-13.6 7.7-19.8c3.8-21.8-56.7-16.9-39.9 33.2 1.9 5.6 5 26.1-8.3 24.3 6.3 15 45.4 7.1 40.5-37.7"/><path d="M350.8 427.7c4-2.6 9.2-1.8 11.7 1.9 2.4 3.7 1.2 8.8-2.8 11.5-4 2.6-9.2 1.8-11.7-1.9-2.5-3.8-1.2-8.9 2.8-11.5" fill-rule="evenodd" clip-rule="evenodd" fill="#f20010"/><path class="st8" d="M352.7 428.7c4.8-3.2 10.7-2.6 13.3 1.3 2.6 3.9.8 9.6-4 12.8-4.8 3.2-10.7 2.6-13.3-1.3-2.6-3.9-.8-9.6 4-12.8"/><path class="st17" d="M379.8 454c-.3 2.9 2.5 8.3 2.4 9.3-.1.9-4 .3-4.3.9-1.4 3.4-1.5 3.6-3.3 10-1.1 3.9-19.8-5.7-22-14-.1-.5-.6.7-1.3 0-4.5-4.4-8.5-14.7-1.6-13.6 0 0 3.3-15.6 14.6-14.6 0 0 13.1-1 14.7 5.5 3.7 6.3 1.9 11.7.8 16.5"/><path class="st3" d="M382.8 453.6c-7.6-.2-15.9-5.3-18.2-12-.4 4.8-6 9.7-11.5 9.8l.8 10.4-3.9-11.7c-12.4-30.9 37.2-30.9 34.4-3.9l-1.6 7.4z"/><path class="st20" d="M461.4 676.2h96.2v52.9c0 1.7-1.4 3-3 3h-90.1c-1.7 0-3.1-1.4-3.1-3v-52.9z"/><path class="st21" d="M461.4 676.2h96.2v-1.4c0-.8-.7-1.5-1.5-1.5h-54.7c-.7 0-1.3-.2-1.9-.6l-8.7-6.3c-.6-.4-1.2-.6-1.9-.6h-24.4c-1.7 0-3.1 1.4-3.1 3v7.4z"/><path class="st16" d="M458 676.2h96.2v52.9c0 1.7-1.4 3-3.1 3H461c-1.7 0-3-1.4-3-3v-52.9z"/><path class="st22" d="M458 676.2h96.2v-1.4c0-.8-.7-1.5-1.5-1.5H498c-.7 0-1.3-.2-1.9-.6l-8.7-6.3c-.6-.4-1.2-.6-1.9-.6h-24.4c-1.7 0-3 1.4-3 3v7.4z"/><path class="st19" d="M458 721.6v-35.2h21.6c3.2 0 5.8 2.6 5.8 5.8v23.7c0 3.2-2.6 5.8-5.8 5.8H458z"/><path class="st23" d="M477.3 683.8h-23.7c-3.2 0-5.8 2.6-5.8 5.8v23.7c0 3.2 2.6 5.8 5.8 5.8h23.7c3.2 0 5.8-2.6 5.8-5.8v-23.7c-.1-3.3-2.7-5.8-5.8-5.8"/><path class="st24" d="M480.9 713v-23.3c0-2.1-1.7-3.8-3.8-3.8h-23.3c-2.1 0-3.8 1.7-3.8 3.8V713c0 2.1 1.7 3.8 3.8 3.8h23.3c2.1.1 3.8-1.7 3.8-3.8"/><path class="st23" d="M460 696.8l-7.4 13.7c-.3.6-.3 1.3 0 1.9.4.6 1 .9 1.7.9h22.2c.7 0 1.3-.3 1.7-.9.4-.6.4-1.3 0-1.9l-4-7.5c-.3-.6-1-1-1.7-1s-1.3.4-1.7 1l-1.3 2.4c-.1.3-.4.4-.7.4-.3 0-.5-.1-.7-.4l-4.7-8.6c-.3-.6-1-1-1.7-1s-1.3.4-1.7 1m13.9-7.4c-1.8 0-3.3 1.5-3.3 3.3 0 1.8 1.5 3.3 3.3 3.3 1.8 0 3.3-1.5 3.3-3.3.1-1.8-1.4-3.3-3.3-3.3"/><path class="st20" d="M690.2 483h88.7v48.8c0 1.5-1.3 2.8-2.8 2.8H693c-1.5 0-2.8-1.3-2.8-2.8V483z"/><path class="st21" d="M690.2 483h88.7v-1.3c0-.8-.6-1.4-1.4-1.4H727c-.7 0-1.2-.2-1.7-.6l-8-5.8c-.5-.4-1.1-.6-1.7-.6H693c-1.5 0-2.8 1.3-2.8 2.8v6.9z"/><path class="st16" d="M687.1 483h88.7v48.8c0 1.5-1.3 2.8-2.8 2.8h-83.1c-1.5 0-2.8-1.3-2.8-2.8V483z"/><path class="st22" d="M687.1 483h88.7v-1.3c0-.8-.6-1.4-1.4-1.4H724c-.7 0-1.2-.2-1.7-.6l-8-5.8c-.5-.4-1.1-.6-1.7-.6h-22.5c-1.5 0-2.8 1.3-2.8 2.8v6.9z"/><path class="st20" d="M687.1 524.8v-32.5H707c2.9 0 5.3 2.4 5.3 5.3v21.8c0 2.9-2.4 5.3-5.3 5.3h-19.9z"/><path class="st23" d="M704.8 489.9H683c-2.9 0-5.3 2.4-5.3 5.3V517c0 2.9 2.4 5.3 5.3 5.3h21.8c2.9 0 5.3-2.4 5.3-5.3v-21.8c.1-2.9-2.3-5.3-5.3-5.3"/><path class="st24" d="M708.2 516.9v-21.5c0-2-1.6-3.5-3.5-3.5h-21.5c-2 0-3.5 1.6-3.5 3.5v21.5c0 1.9 1.6 3.5 3.5 3.5h21.5c1.9.1 3.5-1.5 3.5-3.5"/><path class="st23" d="M686.8 510.6c.7 0 1.3.1 1.8.4v-11.3l13-3.5v13.9c0 1.4-1.6 2.5-3.6 2.5s-3.6-1.1-3.6-2.5 1.6-2.5 3.6-2.5c.7 0 1.3.1 1.8.4v-6.6l-9.5 2.6v9.1c0 1.7-2.1 2.5-3.6 2.5-2 0-3.6-1.1-3.6-2.5.1-1.3 1.7-2.5 3.7-2.5"/><path class="st3" d="M743.2 706.3l1.1 13.4 15.3.2 1-14.8zm68-2.8l2.6 11.7 14.6-.8-.9-14.1z"/><path class="st15" d="M809.9 707.7s23.3.4 21.8-3.1c-8.7-21.2-5.8-42.2-24.8-63.6-1.3-13.7-2.5-28.5 4.4-46.2 2.9-7.4 8.4-22.3.8-38.8l-32.2 8c-1.7 14.9-3.8 42.2 2.7 77.4 3.3 18.2 25.6 43 27.3 66.3"/><path class="st3" d="M809.9 707.7s7.6.1 13.8-.4c-7.3-20.6-7.7-46.1-25.5-66.3-1.3-13.7-2.5-28.5 4.4-46.2 2.5-6.5 7.1-22.2 3-37.2l-25.6 6.3c-1.7 14.9-3.8 42.2 2.7 77.4 3.2 18.3 25.5 43.1 27.2 66.4"/><path class="st15" d="M740.6 711c7.6 1.8 15.2 2.2 22.4 0-1.8-28.6 10.5-48.6 4.8-70.9 8.2-20.3 22.2-32.3 34.5-51.4 8.3-12.9 8-25.6 4.3-34.4-12.8 1.6-26.3 2-39.1 3.6-5.4 28.5-19.1 54.1-23.5 77-1.5 23.3-1.2 56.3-3.4 76.1"/><path class="st3" d="M740.6 711c3.8.9 7.7 1.5 11.4 1.5-1.6-28.3 10.5-50.3 4.8-72.5 8.2-20.3 22.2-32.3 34.5-51.4 7.3-11.5 8-24.5 5.4-33.4-9.7.9-19.7 1.4-29.2 2.6-5.4 28.5-19.1 54.1-23.5 77-1.5 23.4-1.2 56.4-3.4 76.2"/><path class="st9" d="M808.1 453.2c2.3-.8 4.4-.2 8.9 6.7s13.7 24.8-.2 57c-4.5 14.1 1.8 27.3.8 38-.3 3.6-3 6.3-5.5 8.3 0 0-28.4 13.8-46.2-2.7-1.2-3.6.3-9.6 3.3-13.5 7.9-10.1 4.5-31.6 3.9-46.3-.3-7.2 2.4-25.4 13.8-37.9 0 0 1.9-1.6 3-2.1 4.5-1.7 12.8-6 18.2-7.5"/><path d="M804.2 467.4c5.6 1.7 6.3 9 6.8 14.3 2.4 29.2-56.6 60.1-3.5 69.7 0 0-11.9.1-23.6-4.5 10.1 8.3 18.9 12.6 31.2 13.6l-3 2.9h-.1c-1.7.8-28.8 13.3-46.1-2.8-1.2-3.6.3-9.6 3.3-13.5 2.8-3.6 4.2-8.5 4.8-14 .2-.4.3-.8.4-1.1 30.3-4.9 13.1-69.8 29.8-64.6" fill-rule="evenodd" clip-rule="evenodd" fill="#ff7200"/><path class="st13" d="M746.2 528.2c15-6.5 30.9-9.8 43.4-12.9.6-5.7 1.8-11.1 3.9-17.8l17.8 3.8c-.9 7-4.6 15-5.8 22.8-15.4 12.1-49 5.3-59.2 12.6-9.1 3-13.6 3.4-19.6-.4-6.8-4.2-5.5-7.4-4.4-8.6 1.6-1.4 2.9 1.1 11.5 1.4.1 0 2.5-.5 2.4-1.7 0-1.1-3.7-3.4-3.7-4.1.2-3.2 11.3 4.5 11.3 4.4.5.2.7.8 2.4.5"/><path d="M792.9 491.6l-1.9 15.1c5.7 2.4 12.5 3.5 18.7 3.5l4.9-17.6c7.6-30.2-21.6-48.6-21.7-1" fill-rule="evenodd" clip-rule="evenodd" fill="#ffa715"/><path d="M783.6 449.9s8.2 11.2 2.8 15.7c-.4 7.2 20-6.7 23.3-11.8 0 0-1.8-.3-2.2-1.5 0 0-2.6-6.7-1.3-13.5l-5 1-17.6 10.1z" fill-rule="evenodd" clip-rule="evenodd" fill="#fcb054"/><path class="st13" d="M775 434.1c.4 3-2.3 9-2.2 10 .1 1 4.3.2 4.6.9 1.6 3.6 1.7 3.8 3.8 10.5 1.2 3.7 16.8-4.3 19.1-7 2.9-3.1 3.6-5.5 3.8-8.4 0-.5.7.3 1.4-.3 8.3-6.6 5.9-14 3.8-17.6 0 0-6.6-13.4-18.5-12 0 0-14-.6-15.4 6.4-3.7 6.7-1.6 12.4-.4 17.5"/><path class="st15" d="M761 421.2c12.3.8 22.5-39.5 51.7-13.1 10.1.7 7.3 22.3-1 30.1 0 0-2.9 8.1-5.5 11.5-.1-3.1-1.1-6.1-1.6-9.9 5.5-3.8 7.7-16 .2-12.5 0 0-2.3 5.7-2.3 9.9 0 0-4.5-10.1-3.9-13.8.1.1-33.6 8.7-37.6-2.2"/><path class="st14" d="M752.6 736.6c-7.1.1-11.5-.8-19.1-.1-20.8 2-24.2-.1-23.4-6 0-1.7 23.3-9.4 31.6-17.9 1-1.1 4.9.3 5.7 1.7.6 1.2.6 2.9.3 3.8 3.4 1.3 8.5-.2 11.6-.9 1.5-.4 1.8 2.5 1.9 5.8.2 9.6 1 13.5-8.6 13.6m71.5-6.2c-7 1.2-11.5 1-18.9 2.9-20.2 5.2-23.9 3.7-24.1-2.3-.3-1.7 21.5-12.9 28.4-22.6.9-1.2 4.9-.5 5.9.8.8 1.1 1 2.8.9 3.7 3.5.7 8.4-1.5 11.3-2.7 1.5-.6 2.2 2.2 2.8 5.5 1.8 9.3 3.2 13.1-6.3 14.7"/></g></switch></svg>