<?xml version="1.0" encoding="utf-8"?>
<!-- Generator: Adobe Illustrator 16.0.0, SVG Export Plug-In . SVG Version: 6.00 Build 0)  -->
<!DOCTYPE svg PUBLIC "-//W3C//DTD SVG 1.1//EN" "http://www.w3.org/Graphics/SVG/1.1/DTD/svg11.dtd">
<svg version="1.1" id="Layer_1" xmlns="http://www.w3.org/2000/svg" xmlns:xlink="http://www.w3.org/1999/xlink" x="0px" y="0px"
	 width="688px" height="560px" viewBox="0 0 688 560" enable-background="new 0 0 688 560" xml:space="preserve">
<g>
	<g>
		<g>
			<path opacity="0.5" fill="#BBB8F6" d="M328.358,262.588c2.786-1.609,7.277-1.609,10.035-0.005l188.323,109.641
				c2.759,1.604,2.744,4.205-0.041,5.813l-83.856,48.616c-2.786,1.608-7.277,1.608-10.035,0.005L244.46,317.018
				c-2.758-1.604-2.744-4.205,0.042-5.814L328.358,262.588z"/>
			<g>
				<path fill="#9796F7" d="M527.548,368.356l-5.622-3.586v1.234L336.144,258.041c-2.688-1.564-7.071-1.564-9.788,0.003
					l-79.269,45.935v-0.669l-5.62,3.183v2.439h0.007c0.018,1.007,0.677,2.01,2,2.778l189.395,110.064
					c2.691,1.563,7.072,1.563,9.788-0.005l82.842-47.996c2.049-1.204,1.897-2.152,1.962-3.382
					C527.489,369.846,527.548,368.356,527.548,368.356z"/>
				<path fill="#D9DFF6" d="M326.356,255.605c2.716-1.569,7.099-1.569,9.788-0.005l189.395,110.065
					c2.691,1.563,2.677,4.101-0.04,5.668l-82.842,47.998c-2.716,1.566-7.097,1.566-9.788,0.003L243.474,309.27
					c-2.69-1.563-2.676-4.1,0.04-5.668L326.356,255.605z"/>
				<path fill="#B4B9F6" d="M326.161,263.008c0.694-0.401,1.826-0.406,2.523,0l8.676,5.042c0.7,0.406,0.686,1.062-0.007,1.463
					l-6.689,3.862c-0.703,0.406-1.834,0.411-2.534,0.005l-8.676-5.044c-0.7-0.406-0.686-1.06,0.018-1.466L326.161,263.008z
					 M331.643,273.942c-0.703,0.406-0.716,1.062-0.017,1.468l8.676,5.042c0.699,0.406,1.831,0.4,2.534-0.005l6.688-3.862
					c0.693-0.401,0.707-1.056,0.008-1.463l-8.676-5.042c-0.7-0.406-1.832-0.401-2.523,0L331.643,273.942z M344.057,281.157
					c-0.703,0.406-0.706,1.065-0.018,1.467l8.678,5.042c0.698,0.408,1.839,0.408,2.542,0l6.688-3.86c0.695-0.4,0.698-1.062,0-1.468
					l-8.677-5.042c-0.69-0.401-1.83-0.401-2.525,0L344.057,281.157z M356.61,288.452c-0.703,0.406-0.717,1.063-0.017,1.469
					l8.677,5.042c0.698,0.406,1.83,0.401,2.534-0.005l6.688-3.862c0.694-0.401,0.706-1.057,0.007-1.463l-8.676-5.042
					c-0.698-0.407-1.83-0.401-2.523,0L356.61,288.452z M369.025,295.666c-0.704,0.405-0.707,1.066-0.019,1.468l8.676,5.042
					c0.7,0.406,1.843,0.406,2.545,0l6.688-3.862c0.694-0.399,0.7-1.06,0-1.466l-8.677-5.044c-0.69-0.399-1.83-0.399-2.525,0
					L369.025,295.666z M381.458,302.892c-0.704,0.405-0.717,1.063-0.019,1.468l8.678,5.042c0.698,0.406,1.829,0.401,2.532-0.006
					l6.689-3.861c0.694-0.4,0.708-1.057,0.009-1.462l-8.676-5.042c-0.7-0.407-1.832-0.401-2.526,0L381.458,302.892z
					 M393.872,310.106c-0.705,0.406-0.709,1.065-0.01,1.472l8.678,5.042c0.69,0.402,1.831,0.402,2.534-0.003l6.688-3.863
					c0.694-0.399,0.698-1.061,0.007-1.462l-8.676-5.042c-0.698-0.406-1.841-0.406-2.533-0.005L393.872,310.106z M406.304,317.33
					c-0.702,0.406-0.706,1.067-0.017,1.469l8.676,5.042c0.699,0.406,1.841,0.406,2.543,0l6.689-3.862
					c0.693-0.4,0.698-1.06-0.002-1.467l-8.677-5.041c-0.688-0.401-1.83-0.401-2.525,0L406.304,317.33z M418.726,324.55
					c-0.702,0.406-0.715,1.062-0.016,1.469l8.678,5.042c0.696,0.406,1.828,0.401,2.534-0.005l6.688-3.862
					c0.693-0.4,0.707-1.057,0.008-1.463l-8.676-5.042c-0.7-0.406-1.832-0.401-2.526,0L418.726,324.55z M431.178,331.786
					c-0.702,0.406-0.707,1.067-0.007,1.474l8.677,5.042c0.688,0.401,1.828,0.401,2.534-0.005l6.688-3.862
					c0.693-0.4,0.696-1.062,0.008-1.463l-8.676-5.042c-0.7-0.406-1.841-0.406-2.534-0.005L431.178,331.786z M443.602,339.005
					c-0.703,0.408-0.717,1.062-0.018,1.468l8.676,5.042c0.7,0.406,1.832,0.401,2.534-0.005l6.689-3.862
					c0.694-0.399,0.707-1.055,0.008-1.461l-8.678-5.042c-0.696-0.406-1.828-0.401-2.523,0L443.602,339.005z M456.033,346.23
					c-0.702,0.405-0.716,1.063-0.017,1.468l8.676,5.042c0.7,0.406,1.831,0.401,2.534-0.005l6.689-3.862
					c0.694-0.399,0.707-1.055,0.009-1.462l-8.679-5.043c-0.697-0.405-1.829-0.4-2.523,0L456.033,346.23z M468.449,353.445
					c-0.705,0.405-0.709,1.065-0.019,1.467l8.676,5.044c0.699,0.404,1.839,0.404,2.545,0l6.688-3.863
					c0.693-0.399,0.696-1.062,0-1.467l-8.678-5.042c-0.69-0.401-1.831-0.401-2.524,0L468.449,353.445z M480.88,360.669
					c-0.703,0.407-0.715,1.063-0.018,1.469l8.678,5.042c0.698,0.406,1.83,0.401,2.532-0.005l6.689-3.862
					c0.694-0.401,0.707-1.055,0.009-1.461l-8.677-5.044c-0.699-0.404-1.83-0.399-2.525,0L480.88,360.669z M493.295,367.884
					c-0.703,0.406-0.709,1.067-0.009,1.474l8.677,5.042c0.69,0.401,1.83,0.401,2.533-0.005l6.69-3.861
					c0.693-0.401,0.696-1.063,0.006-1.464l-8.676-5.042c-0.698-0.406-1.841-0.406-2.532-0.005L493.295,367.884z M309.219,272.788
					c-0.703,0.406-0.708,1.057-0.008,1.463l29.265,17.005c0.698,0.406,1.821,0.406,2.523,0l6.69-3.861
					c0.702-0.406,0.706-1.056,0.008-1.462l-29.265-17.005c-0.699-0.406-1.821-0.406-2.525,0L309.219,272.788z M342.295,292.011
					c-0.705,0.405-0.697,1.063,0,1.468l8.677,5.042c0.69,0.401,1.822,0.406,2.524,0l6.688-3.862c0.706-0.405,0.7-1.061,0.01-1.462
					l-8.678-5.042c-0.698-0.406-1.828-0.412-2.532-0.005L342.295,292.011z M354.717,299.23c-0.702,0.407-0.707,1.056-0.007,1.462
					l8.677,5.042c0.698,0.406,1.83,0.412,2.534,0.007l6.688-3.862c0.704-0.405,0.698-1.062,0-1.468l-8.677-5.042
					c-0.7-0.406-1.822-0.406-2.525,0L354.717,299.23z M367.149,306.454c-0.702,0.406-0.706,1.058-0.007,1.464l8.677,5.042
					c0.699,0.406,1.82,0.406,2.523,0l6.688-3.862c0.703-0.406,0.707-1.055,0.008-1.461l-8.676-5.044
					c-0.699-0.404-1.822-0.406-2.524,0L367.149,306.454z M379.564,313.669c-0.705,0.406-0.697,1.063-0.009,1.462l8.677,5.044
					c0.699,0.406,1.831,0.411,2.533,0.003l6.69-3.859c0.703-0.406,0.697-1.063-0.003-1.469l-8.676-5.042
					c-0.688-0.401-1.82-0.406-2.525,0L379.564,313.669z M391.997,320.895c-0.704,0.406-0.708,1.057-0.009,1.462l8.677,5.043
					c0.7,0.405,1.821,0.405,2.525,0l6.688-3.863c0.704-0.405,0.707-1.055,0.009-1.461l-8.677-5.042c-0.7-0.406-1.82-0.406-2.525,0
					L391.997,320.895z M404.41,328.108c-0.703,0.406-0.697,1.063,0.002,1.468l8.677,5.043c0.688,0.4,1.82,0.405,2.523,0l6.688-3.861
					c0.703-0.406,0.698-1.063,0.01-1.464l-8.678-5.042c-0.698-0.406-1.83-0.411-2.533-0.005L404.41,328.108z M416.871,335.35
					c-0.704,0.405-0.698,1.063-0.009,1.463l8.679,5.042c0.696,0.406,1.828,0.411,2.534,0.005l6.686-3.861
					c0.704-0.405,0.698-1.061-0.001-1.468l-8.676-5.042c-0.689-0.401-1.821-0.406-2.523,0L416.871,335.35z M429.294,342.57
					c-0.702,0.406-0.708,1.055-0.009,1.461l8.677,5.042c0.7,0.406,1.822,0.406,2.525,0l6.688-3.861
					c0.704-0.404,0.709-1.056,0.009-1.462l-8.677-5.042c-0.699-0.406-1.82-0.406-2.525,0L429.294,342.57z M441.718,349.788
					c-0.704,0.406-0.698,1.063,0,1.469l8.677,5.042c0.69,0.401,1.822,0.406,2.525,0l6.688-3.861
					c0.704-0.407,0.698-1.061,0.009-1.462l-8.677-5.042c-0.699-0.406-1.829-0.413-2.534-0.005L441.718,349.788z M454.141,357.009
					c-0.703,0.406-0.707,1.056-0.008,1.461l8.677,5.044c0.697,0.404,1.829,0.412,2.534,0.005l6.688-3.861
					c0.705-0.406,0.697-1.063,0-1.469l-8.679-5.042c-0.697-0.406-1.82-0.406-2.523,0L454.141,357.009z M466.573,364.233
					c-0.703,0.407-0.707,1.057-0.008,1.462l8.677,5.042c0.7,0.406,1.821,0.406,2.523,0l6.689-3.862
					c0.703-0.405,0.706-1.055,0.009-1.461l-8.677-5.042c-0.7-0.406-1.822-0.406-2.525,0L466.573,364.233z M478.988,371.447
					c-0.705,0.406-0.698,1.063-0.009,1.463l8.676,5.043c0.699,0.405,1.831,0.41,2.534,0.005l6.688-3.862
					c0.704-0.405,0.698-1.062-0.001-1.468l-8.676-5.042c-0.691-0.401-1.821-0.406-2.525,0L478.988,371.447z M298.89,278.751
					c-0.703,0.407-0.707,1.057-0.007,1.463l9.374,5.448c0.699,0.406,1.823,0.406,2.525,0l6.688-3.861
					c0.705-0.406,0.708-1.057,0.008-1.463l-9.376-5.449c-0.697-0.406-1.821-0.406-2.523,0L298.89,278.751z M311.817,286.264
					c-0.703,0.406-0.697,1.063,0.002,1.469l9.374,5.448c0.7,0.406,1.822,0.406,2.526,0l6.688-3.862
					c0.704-0.406,0.708-1.056,0.008-1.461l-9.376-5.45c-0.698-0.406-1.829-0.412-2.534-0.006L311.817,286.264z M278.402,290.58
					c-0.703,0.406-0.707,1.056-0.007,1.463l6.569,3.819c0.7,0.406,1.821,0.406,2.525,0l16.875-9.744
					c0.703-0.406,0.717-1.063,0.018-1.469l-6.571-3.818c-0.698-0.406-1.829-0.401-2.534,0.005L278.402,290.58z M298.918,290.7
					c-0.694,0.401-0.708,1.055-0.009,1.461l9.374,5.45c0.7,0.405,1.84,0.405,2.534,0.006l6.689-3.862
					c0.703-0.406,0.707-1.067,0.009-1.474l-9.376-5.448c-0.699-0.406-1.831-0.401-2.534,0.005L298.918,290.7z M338.034,301.434
					c-0.694,0.401-0.707,1.057-0.009,1.463l8.676,5.042c0.7,0.405,1.832,0.4,2.526,0l6.688-3.861
					c0.704-0.406,0.717-1.062,0.017-1.467l-8.676-5.043c-0.698-0.407-1.829-0.4-2.532,0.005L338.034,301.434z M315.236,300.053
					c-0.703,0.407-0.707,1.068-0.009,1.475l17.167,9.977c0.7,0.404,1.831,0.398,2.534-0.008l6.689-3.859
					c0.694-0.401,0.707-1.057,0.007-1.464l-7.232-4.201l8.979-5.185c0.703-0.406,0.707-1.066,0.017-1.467l-8.676-5.043
					c-0.699-0.407-1.84-0.407-2.542,0l-10.244,5.914l-2.449,1.413L315.236,300.053z M350.447,308.648
					c-0.694,0.401-0.698,1.063,0.002,1.469l8.677,5.042c0.688,0.401,1.829,0.401,2.523,0l6.688-3.862
					c0.703-0.406,0.707-1.067,0.018-1.469l-8.676-5.041c-0.7-0.407-1.841-0.407-2.543,0L350.447,308.648z M362.88,315.874
					c-0.694,0.401-0.697,1.063-0.009,1.461l8.678,5.042c0.698,0.406,1.841,0.406,2.533,0.008l6.688-3.862
					c0.703-0.406,0.709-1.067,0.009-1.474l-8.677-5.042c-0.688-0.401-1.83-0.401-2.534,0.005L362.88,315.874z M375.293,323.087
					c-0.692,0.401-0.697,1.063,0.002,1.469l8.677,5.042c0.7,0.406,1.83,0.4,2.525,0l6.688-3.862
					c0.704-0.406,0.717-1.063,0.019-1.467l-8.678-5.044c-0.698-0.405-1.839-0.405-2.543,0L375.293,323.087z M387.728,330.313
					c-0.694,0.4-0.7,1.062-0.01,1.463l8.687,5.047c0.69,0.401,1.83,0.401,2.525,0l6.688-3.861c0.703-0.406,0.706-1.067,0.018-1.469
					l-8.687-5.047c-0.689-0.4-1.83-0.4-2.534,0.005L387.728,330.313z M400.15,337.533c-0.695,0.4-0.707,1.055-0.01,1.462
					l8.678,5.042c0.698,0.406,1.83,0.4,2.524,0l6.689-3.862c0.702-0.406,0.717-1.062,0.017-1.467l-8.676-5.042
					c-0.699-0.406-1.831-0.4-2.534,0.005L400.15,337.533z M412.601,344.769c-0.694,0.399-0.697,1.062,0.002,1.468l8.677,5.042
					c0.699,0.405,1.829,0.399,2.525,0l6.688-3.861c0.703-0.407,0.717-1.063,0.017-1.468l-8.676-5.043
					c-0.699-0.405-1.84-0.405-2.543,0L412.601,344.769z M425.024,351.987c-0.693,0.401-0.697,1.063-0.008,1.464l8.676,5.042
					c0.699,0.406,1.84,0.406,2.534,0.005l6.688-3.861c0.703-0.406,0.707-1.068,0.008-1.475l-8.677-5.042
					c-0.689-0.4-1.829-0.4-2.534,0.006L425.024,351.987z M437.457,359.213c-0.694,0.401-0.708,1.055-0.009,1.461l8.677,5.042
					c0.699,0.409,1.831,0.401,2.525,0l6.688-3.859c0.705-0.406,0.717-1.063,0.02-1.469l-8.679-5.042
					c-0.697-0.406-1.829-0.4-2.534,0.006L437.457,359.213z M449.87,366.426c-0.693,0.401-0.697,1.063,0.002,1.469l8.677,5.042
					c0.689,0.401,1.829,0.401,2.523,0l6.689-3.862c0.703-0.406,0.707-1.064,0.017-1.466l-8.676-5.044
					c-0.699-0.405-1.84-0.405-2.543,0L449.87,366.426z M462.479,373.755c-0.693,0.4-0.706,1.057-0.006,1.462l18.974,11.027
					c0.688,0.401,1.831,0.401,2.525,0l6.688-3.862c0.705-0.406,0.708-1.065,0.018-1.466l-18.975-11.028
					c-0.7-0.406-1.832-0.401-2.534,0.006L462.479,373.755z M336.149,312.207c-0.704,0.405-0.707,1.066-0.018,1.468l8.677,5.042
					c0.699,0.406,1.839,0.406,2.545,0l6.687-3.862c0.694-0.401,0.697-1.06,0-1.467l-8.678-5.044c-0.689-0.399-1.83-0.399-2.524,0
					L336.149,312.207z M348.583,319.433c-0.704,0.405-0.717,1.06-0.019,1.466l8.676,5.044c0.7,0.406,1.832,0.4,2.534-0.007
					l6.689-3.86c0.694-0.401,0.707-1.058,0.009-1.463l-8.679-5.043c-0.697-0.405-1.829-0.399-2.523,0L348.583,319.433z
					 M360.997,326.646c-0.705,0.406-0.709,1.067-0.009,1.474l8.676,5.042c0.689,0.401,1.831,0.401,2.534-0.005l6.688-3.862
					c0.695-0.401,0.698-1.062,0.008-1.461l-8.676-5.042c-0.698-0.406-1.841-0.406-2.534-0.008L360.997,326.646z M373.43,333.871
					c-0.706,0.406-0.709,1.067-0.019,1.469l8.677,5.041c0.7,0.407,1.84,0.407,2.543,0l6.689-3.861
					c0.692-0.401,0.697-1.063-0.002-1.469l-8.677-5.042c-0.688-0.401-1.831-0.401-2.524,0L373.43,333.871z M385.853,341.091
					c-0.704,0.406-0.717,1.061-0.019,1.467l8.676,5.044c0.7,0.406,1.832,0.399,2.534-0.008l6.689-3.859
					c0.694-0.401,0.707-1.057,0.009-1.463l-8.677-5.042c-0.7-0.407-1.83-0.401-2.525,0L385.853,341.091z M398.305,348.327
					c-0.705,0.406-0.709,1.065-0.011,1.472l8.678,5.044c0.69,0.401,1.83,0.401,2.534-0.008l6.688-3.859
					c0.694-0.401,0.698-1.063,0.009-1.463l-8.677-5.042c-0.698-0.406-1.84-0.406-2.533-0.006L398.305,348.327z M410.727,355.545
					c-0.703,0.406-0.717,1.063-0.017,1.469l8.676,5.042c0.699,0.406,1.831,0.401,2.534-0.005l6.688-3.862
					c0.693-0.401,0.708-1.055,0.009-1.461l-8.677-5.044c-0.698-0.405-1.83-0.399-2.523,0L410.727,355.545z M423.149,362.767
					c-0.704,0.405-0.707,1.066-0.008,1.472l8.677,5.043c0.699,0.406,1.831,0.401,2.533-0.006l6.689-3.861
					c0.693-0.401,0.707-1.057,0.008-1.462l-8.678-5.043c-0.697-0.406-1.839-0.406-2.534-0.006L423.149,362.767z M435.572,369.984
					c-0.703,0.407-0.707,1.067-0.018,1.469l8.679,5.042c0.697,0.406,1.838,0.406,2.543,0l6.687-3.862
					c0.694-0.398,0.698-1.061,0-1.466l-8.676-5.042c-0.69-0.401-1.832-0.401-2.525,0L435.572,369.984z M448.005,377.21
					c-0.704,0.406-0.715,1.063-0.018,1.469l8.677,5.042c0.699,0.406,1.831,0.4,2.534-0.006l6.688-3.861
					c0.694-0.401,0.706-1.057,0.01-1.464l-8.678-5.042c-0.699-0.406-1.831-0.4-2.524,0L448.005,377.21z M460.419,384.425
					c-0.702,0.406-0.707,1.065-0.008,1.472l10.784,6.268c0.688,0.401,1.828,0.401,2.534-0.005l6.688-3.862
					c0.693-0.401,0.696-1.063,0.008-1.463l-10.784-6.266c-0.699-0.406-1.838-0.406-2.534-0.005L460.419,384.425z M288.729,296.58
					c-0.703,0.408-0.708,1.057-0.009,1.463l9.376,5.448c0.7,0.407,1.83,0.412,2.534,0.006l6.688-3.862
					c0.705-0.406,0.697-1.06,0-1.466l-9.376-5.448c-0.699-0.407-1.821-0.407-2.525,0L288.729,296.58z M302.224,304.358
					c-0.694,0.401-0.698,1.063,0.002,1.468l11.444,6.651c0.689,0.401,1.83,0.401,2.524,0l6.689-3.862
					c0.703-0.406,0.707-1.066,0.018-1.466l-11.445-6.652c-0.698-0.406-1.84-0.406-2.542,0L302.224,304.358z M317.546,313.264
					c-0.694,0.399-0.708,1.055-0.009,1.462l8.677,5.042c0.7,0.405,1.831,0.4,2.525,0l6.688-3.861
					c0.705-0.407,0.717-1.063,0.018-1.468l-8.676-5.043c-0.698-0.405-1.829-0.399-2.534,0.006L317.546,313.264z M329.96,320.477
					c-0.694,0.401-0.698,1.063,0.002,1.469l8.676,5.042c0.689,0.401,1.831,0.401,2.523,0l6.69-3.861
					c0.702-0.407,0.707-1.068,0.017-1.469l-8.676-5.04c-0.7-0.408-1.84-0.408-2.543,0L329.96,320.477z M342.393,327.702
					c-0.694,0.401-0.698,1.061-0.009,1.461l8.678,5.042c0.698,0.407,1.84,0.407,2.534,0.008l6.688-3.861
					c0.705-0.407,0.708-1.068,0.009-1.475l-8.677-5.042c-0.69-0.4-1.831-0.4-2.534,0.006L342.393,327.702z M354.808,334.916
					c-0.694,0.4-0.699,1.062,0,1.468l8.676,5.042c0.7,0.406,1.832,0.401,2.525,0l6.688-3.862c0.705-0.406,0.718-1.06,0.02-1.466
					l-8.677-5.044c-0.699-0.405-1.84-0.405-2.544,0L354.808,334.916z M367.24,342.142c-0.695,0.4-0.698,1.062-0.009,1.462
					l8.685,5.048c0.69,0.401,1.831,0.401,2.525,0l6.689-3.862c0.703-0.406,0.706-1.067,0.018-1.467l-8.687-5.048
					c-0.69-0.401-1.83-0.401-2.534,0.005L367.24,342.142z M379.662,349.361c-0.695,0.399-0.706,1.056-0.008,1.462l8.677,5.042
					c0.7,0.406,1.83,0.401,2.523,0l6.689-3.861c0.703-0.407,0.717-1.062,0.019-1.467l-8.678-5.042
					c-0.699-0.406-1.831-0.401-2.534,0.005L379.662,349.361z M392.113,356.598c-0.694,0.399-0.697,1.061,0.002,1.467l8.677,5.042
					c0.699,0.405,1.829,0.4,2.524,0l6.688-3.86c0.703-0.408,0.717-1.063,0.019-1.468l-8.678-5.043c-0.699-0.405-1.839-0.405-2.542,0
					L392.113,356.598z M404.537,363.815c-0.694,0.401-0.698,1.063-0.009,1.464l8.677,5.042c0.699,0.406,1.84,0.406,2.534,0.005
					l6.689-3.861c0.702-0.406,0.706-1.067,0.008-1.474l-8.678-5.042c-0.688-0.401-1.83-0.401-2.532,0.005L404.537,363.815z
					 M416.97,371.041c-0.695,0.401-0.706,1.056-0.009,1.462l8.677,5.044c0.699,0.406,1.831,0.398,2.525,0l6.688-3.862
					c0.703-0.406,0.715-1.062,0.018-1.468l-8.678-5.042c-0.698-0.407-1.83-0.401-2.534,0.005L416.97,371.041z M429.383,378.254
					c-0.694,0.401-0.697,1.063,0.002,1.469l8.676,5.042c0.689,0.401,1.832,0.401,2.523,0l6.689-3.861
					c0.704-0.406,0.709-1.065,0.019-1.467l-8.678-5.044c-0.699-0.405-1.839-0.405-2.542,0L429.383,378.254z M441.992,385.583
					c-0.694,0.401-0.707,1.057-0.007,1.462l18.974,11.027c0.69,0.401,1.831,0.401,2.526,0l6.688-3.861
					c0.702-0.406,0.707-1.067,0.017-1.467l-18.974-11.028c-0.699-0.406-1.831-0.401-2.534,0.005L441.992,385.583z M257.84,302.452
					c-0.703,0.405-0.717,1.062-0.018,1.468l6.571,3.818c0.697,0.407,1.829,0.401,2.533-0.006l16.952-9.786
					c0.703-0.406,0.716-1.063,0.018-1.469l-6.57-3.818c-0.699-0.405-1.831-0.401-2.534,0.005L257.84,302.452z M278.168,302.378
					c-0.694,0.398-0.707,1.055-0.008,1.461l9.898,5.752c0.7,0.406,1.84,0.406,2.534,0.005l6.688-3.861
					c0.705-0.406,0.708-1.067,0.009-1.475l-9.897-5.749c-0.699-0.408-1.831-0.401-2.536,0.003L278.168,302.378z M291.869,310.339
					c-0.694,0.4-0.699,1.061,0,1.467l4.901,2.85c0.7,0.406,1.842,0.406,2.534,0.006l6.689-3.862
					c0.703-0.406,0.708-1.067,0.009-1.474l-4.903-2.848c-0.698-0.406-1.84-0.406-2.543,0L291.869,310.339z M300.945,315.614
					c-0.693,0.399-0.707,1.055-0.007,1.461l5.134,2.984c0.699,0.406,1.839,0.406,2.534,0.006l6.689-3.862
					c0.703-0.406,0.706-1.067,0.009-1.473l-5.136-2.983c-0.7-0.406-1.83-0.401-2.534,0.005L300.945,315.614z M310.005,320.878
					c-0.694,0.401-0.698,1.061-0.009,1.461l14.222,8.265c0.7,0.406,1.84,0.406,2.534,0.008l6.688-3.864
					c0.705-0.404,0.708-1.065,0.009-1.472l-14.222-8.265c-0.689-0.401-1.83-0.401-2.534,0.006L310.005,320.878z M327.983,331.325
					c-0.694,0.399-0.708,1.057-0.009,1.462l8.677,5.042c0.7,0.406,1.831,0.401,2.523,0l6.689-3.861
					c0.703-0.405,0.717-1.061,0.019-1.467l-8.677-5.043c-0.698-0.406-1.83-0.4-2.534,0.005L327.983,331.325z M340.396,338.54
					c-0.694,0.401-0.698,1.06,0.001,1.467l8.676,5.044c0.689,0.399,1.829,0.399,2.524,0l6.689-3.863
					c0.702-0.405,0.705-1.066,0.017-1.468l-8.676-5.042c-0.7-0.406-1.841-0.406-2.543,0L340.396,338.54z M352.829,345.766
					c-0.695,0.398-0.698,1.06-0.01,1.461l8.678,5.042c0.699,0.406,1.839,0.406,2.534,0.005l6.688-3.86
					c0.703-0.407,0.706-1.066,0.009-1.473l-8.677-5.042c-0.69-0.401-1.831-0.401-2.534,0.005L352.829,345.766z M365.252,352.983
					c-0.693,0.401-0.707,1.057-0.008,1.464l8.676,5.042c0.7,0.406,1.832,0.4,2.525,0l6.688-3.862
					c0.705-0.406,0.718-1.063,0.018-1.469l-8.677-5.042c-0.699-0.406-1.828-0.4-2.534,0.006L365.252,352.983z M377.704,360.22
					c-0.694,0.401-0.699,1.063,0,1.469l8.676,5.042c0.692,0.4,1.832,0.4,2.526,0l6.688-3.862c0.704-0.406,0.708-1.067,0.019-1.469
					l-8.677-5.042c-0.698-0.406-1.84-0.406-2.544,0L377.704,360.22z M390.126,367.439c-0.693,0.401-0.706,1.057-0.007,1.462
					l8.677,5.044c0.697,0.404,1.829,0.398,2.523,0l6.688-3.862c0.703-0.407,0.717-1.062,0.019-1.469l-8.677-5.042
					c-0.7-0.406-1.832-0.4-2.534,0.006L390.126,367.439z M402.551,374.659c-0.695,0.399-0.698,1.062,0.001,1.468l8.676,5.041
					c0.698,0.407,1.83,0.401,2.523,0l6.689-3.861c0.704-0.405,0.718-1.061,0.019-1.467l-8.678-5.043
					c-0.699-0.406-1.839-0.406-2.542,0L402.551,374.659z M414.974,381.879c-0.694,0.401-0.698,1.063-0.009,1.463l8.677,5.04
					c0.699,0.408,1.839,0.408,2.534,0.007l6.688-3.861c0.704-0.406,0.708-1.067,0.008-1.474l-8.676-5.042
					c-0.689-0.4-1.83-0.4-2.534,0.006L414.974,381.879z M427.406,389.104c-0.695,0.401-0.709,1.055-0.009,1.461l8.677,5.042
					c0.699,0.406,1.831,0.401,2.524,0l6.688-3.861c0.705-0.406,0.717-1.061,0.018-1.467l-8.676-5.042
					c-0.7-0.406-1.83-0.401-2.534,0.006L427.406,389.104z M439.819,396.317c-0.694,0.401-0.697,1.063,0.002,1.469l8.676,5.042
					c0.689,0.401,1.83,0.401,2.523,0l6.69-3.862c0.703-0.406,0.706-1.067,0.017-1.468l-8.677-5.042
					c-0.699-0.407-1.839-0.407-2.542,0L439.819,396.317z M271.959,310.658c-0.703,0.404-0.716,1.061-0.017,1.467l8.677,5.042
					c0.699,0.406,1.831,0.4,2.534-0.006l6.689-3.861c0.694-0.401,0.707-1.055,0.007-1.461l-8.676-5.042
					c-0.7-0.407-1.83-0.401-2.524,0L271.959,310.658z M284.373,317.871c-0.703,0.406-0.706,1.067-0.007,1.474l8.677,5.042
					c0.689,0.401,1.829,0.401,2.534-0.005l6.688-3.862c0.694-0.4,0.698-1.062,0.009-1.463l-8.676-5.042
					c-0.7-0.405-1.84-0.405-2.534-0.005L284.373,317.871z M296.927,325.166c-0.704,0.406-0.717,1.063-0.018,1.469l8.676,5.042
					c0.7,0.406,1.832,0.401,2.534-0.006l6.689-3.861c0.694-0.401,0.707-1.055,0.007-1.461l-8.675-5.042
					c-0.699-0.408-1.831-0.401-2.525,0L296.927,325.166z M309.342,332.382c-0.704,0.405-0.708,1.065-0.008,1.473l8.676,5.042
					c0.689,0.401,1.829,0.401,2.534-0.005l6.688-3.861c0.694-0.4,0.7-1.063,0.009-1.463l-8.677-5.043
					c-0.7-0.405-1.84-0.405-2.534-0.005L309.342,332.382z M321.774,339.607c-0.705,0.405-0.717,1.061-0.019,1.467l58.407,33.941
					c0.7,0.406,1.831,0.401,2.534-0.005l6.688-3.862c0.696-0.4,0.709-1.055,0.009-1.461l-58.406-33.941
					c-0.7-0.406-1.831-0.401-2.525,0L321.774,339.607z M383.918,375.721c-0.704,0.406-0.707,1.067-0.018,1.467l8.677,5.043
					c0.699,0.406,1.839,0.406,2.545,0l6.688-3.861c0.693-0.401,0.696-1.063-0.003-1.468l-8.676-5.043c-0.689-0.4-1.83-0.4-2.523,0
					L383.918,375.721z M396.351,382.944c-0.704,0.407-0.718,1.063-0.019,1.469l8.678,5.042c0.699,0.405,1.831,0.401,2.533-0.005
					l6.689-3.862c0.694-0.4,0.706-1.056,0.009-1.461l-8.677-5.043c-0.699-0.405-1.831-0.4-2.525,0L396.351,382.944z
					 M408.765,390.159c-0.704,0.406-0.708,1.067-0.008,1.475l8.676,5.042c0.689,0.4,1.831,0.4,2.534-0.006l6.688-3.861
					c0.694-0.401,0.699-1.063,0.009-1.462l-8.677-5.044c-0.699-0.406-1.84-0.406-2.534-0.005L408.765,390.159z M421.197,397.385
					c-0.705,0.406-0.708,1.065-0.018,1.467l8.678,5.044c0.696,0.406,1.837,0.406,2.542,0l6.688-3.861
					c0.695-0.401,0.698-1.063-0.001-1.469l-8.677-5.042c-0.691-0.401-1.831-0.401-2.525,0L421.197,397.385z M433.61,404.599
					c-0.702,0.405-0.705,1.066-0.009,1.473l6.73,3.91c0.688,0.401,1.83,0.401,2.534-0.004l6.688-3.862
					c0.694-0.4,0.697-1.063,0.007-1.462l-6.729-3.91c-0.697-0.406-1.837-0.406-2.532-0.007L433.61,404.599z"/>
			</g>
		</g>
		<g>
			<g>
				<path opacity="0.5" fill="#BBB8F6" d="M400.699,251.594c1.771-1.022,4.627-1.022,6.383-0.001l123.49,71.766
					c1.756,1.018,1.745,2.674-0.026,3.696l-26.339,14.519c-1.773,1.022-4.629,1.022-6.382,0.002L374.332,269.81
					c-1.753-1.019-1.745-2.673,0.027-3.697L400.699,251.594z"/>
				<path fill="#9796F7" d="M402.372,250.417c1.713-0.989,4.479-0.989,6.176-0.003l120.767,67.023c0,0,0.003,3.562,0,4.209
					c-0.005,0.647-0.436,1.295-1.293,1.791l-25.488,14.049c-1.714,0.989-4.478,0.989-6.175,0.003l-119.501-69.446
					c-0.848-0.493-1.271-1.14-1.266-1.788c0.003-0.646,0.083-4.458,0.083-4.458L402.372,250.417z"/>
				<path fill="#D9DFF6" d="M402.372,246.441c1.713-0.99,4.479-0.99,6.176-0.002l119.5,69.446c1.697,0.985,1.688,2.588-0.026,3.577
					l-25.488,14.048c-1.714,0.991-4.478,0.989-6.175,0.003l-119.501-69.445c-1.696-0.985-1.688-2.588,0.025-3.577L402.372,246.441z"
					/>
			</g>
			<path fill="#9796F7" d="M580.202,139.788L346.35,4.772c-1.735-1.002-3.291-1.046-4.395-0.333l-0.021-0.012l-4.664,2.771
				l3.028,1.762l-0.514,180.935c-0.01,3.828,2.677,8.483,6.009,10.407l232.464,134.213l-2.837,1.687l3.858,2.246l4.737-2.763
				l-0.034-0.021c1.043-0.645,1.707-1.93,1.713-3.793l0.516-181.676C586.222,146.366,583.534,141.712,580.202,139.788z"/>
			<g>
				<polygon fill="#9796F7" points="487.434,261.173 487.434,304.372 483.235,306.642 432.837,274.555 432.837,228.458 				"/>
				<polygon fill="#B4B9F6" points="483.235,261.871 483.235,306.642 428.641,275.252 428.641,229.155 				"/>
			</g>
			<path fill="#D9DFF6" d="M574.592,142.59c3.333,1.924,6.021,6.579,6.01,10.408l-0.516,181.675
				c-0.011,3.828-2.717,5.369-6.047,3.447L340.185,203.104c-3.333-1.924-6.02-6.579-6.009-10.408l0.515-181.675
				c0.011-3.828,2.716-5.37,6.047-3.446L574.592,142.59z"/>
			<g>
				<path fill="#F7F7F7" d="M341.493,174.158c-0.016,4.462,3.143,9.905,7.022,12.137l131.877,76.135l85.439,49.337
					c3.88,2.25,7.039,0.448,7.056-4.016l0.395-143.602c0.017-4.48-3.125-9.905-7.003-12.155L459.174,90.16L348.962,26.521
					c-3.88-2.231-7.056-0.446-7.056,4.035L341.493,174.158z"/>
			</g>
		</g>
		<g opacity="0.47">
			<path fill="#D9DFF6" d="M376.418,58.298l163.751,94.709c1.534,0.887,2.479,2.525,2.482,4.297l0.135,116.222
				c0.006,3.834-4.148,6.229-7.464,4.302L371.573,182.74c-1.528-0.889-2.471-2.523-2.473-4.292L368.96,62.606
				C368.955,58.776,373.104,56.38,376.418,58.298z"/>
			<g opacity="0.5">
				<polygon fill="#FFFFFF" points="532.023,221.57 373.341,129.421 373.342,130.846 532.025,222.994 				"/>
				<polygon fill="#FFFFFF" points="532.043,236.508 373.357,144.36 373.361,145.785 532.045,237.934 				"/>
				<polygon fill="#FFFFFF" points="532.061,251.447 373.377,159.299 373.379,160.724 532.063,252.872 				"/>
				<polygon fill="#FFFFFF" points="531.953,161.996 373.27,69.847 373.271,71.272 531.954,163.421 				"/>
				<polygon fill="#FFFFFF" points="532.078,266.387 373.395,174.238 373.396,175.663 532.081,267.81 				"/>
				<polygon fill="#FFFFFF" points="531.97,176.753 373.287,84.605 373.288,86.029 531.972,178.177 				"/>
				<polygon fill="#FFFFFF" points="531.987,191.691 373.304,99.543 373.307,100.968 531.988,193.117 				"/>
				<polygon fill="#FFFFFF" points="532.007,206.63 373.323,114.481 373.325,115.907 532.009,208.055 				"/>
				<polygon fill="#FFFFFF" points="373.27,70.493 373.395,174.244 374.692,174.993 374.567,71.237 				"/>
				<polygon fill="#FFFFFF" points="389.032,79.676 389.157,183.426 390.454,184.174 390.329,80.418 				"/>
				<polygon fill="#FFFFFF" points="404.796,88.857 404.922,192.609 406.217,193.357 406.092,89.602 				"/>
				<polygon fill="#FFFFFF" points="420.558,98.041 420.682,201.792 421.98,202.541 421.855,98.783 				"/>
				<polygon fill="#FFFFFF" points="436.32,107.222 436.445,210.975 437.744,211.721 437.618,107.965 				"/>
				<polygon fill="#FFFFFF" points="452.083,116.405 452.211,220.156 453.505,220.905 453.38,117.148 				"/>
				<polygon fill="#FFFFFF" points="467.847,125.588 467.974,229.339 469.269,230.087 469.143,126.331 				"/>
				<polygon fill="#FFFFFF" points="483.607,134.77 483.732,238.522 485.031,239.27 484.906,135.512 				"/>
				<polygon fill="#FFFFFF" points="499.371,143.953 499.498,247.703 500.795,248.451 500.67,144.695 				"/>
				<polygon fill="#FFFFFF" points="515.134,153.134 515.261,256.886 516.56,257.634 516.433,153.877 				"/>
				<polygon fill="#FFFFFF" points="530.896,161.369 531.025,267.189 532.32,267.937 532.191,162.113 				"/>
			</g>
			<g>
				<polygon fill="#9796F7" points="483.634,211.67 454.8,150.863 425.536,175.705 412.904,155.627 376.897,177.966 
					375.707,176.731 413.301,152.86 426.08,173.19 455.874,147.815 484.564,207.246 529.377,162.248 530.858,163.112 				"/>
			</g>
		</g>
		<g>
			<g>
				<path fill="#B4B9F6" d="M315.743,84.566l36.263,20.97c2.766,1.599,6.222-0.396,6.222-3.589V53.515
					c0-1.48-0.789-2.848-2.069-3.589l-36.263-20.97c-2.765-1.599-6.222,0.396-6.222,3.589v48.433
					C313.673,82.457,314.462,83.825,315.743,84.566z"/>
				<path fill="#FFFAFF" d="M338.281,66.764v-15.47c0-1.323,1.432-2.15,2.577-1.488l11.496,6.646
					c0.531,0.308,0.856,0.875,0.856,1.489V73.41c0,1.324-1.432,2.15-2.577,1.488l-11.495-6.647
					C338.607,67.944,338.281,67.376,338.281,66.764z M336.437,49.586c0.309,0,0.609-0.16,0.776-0.447
					c0.25-0.428,0.104-0.978-0.322-1.227l-17.562-10.227c-0.423-0.247-0.977-0.105-1.227,0.324
					c-0.252,0.428-0.106,0.978,0.322,1.228l17.56,10.226C336.126,49.546,336.283,49.586,336.437,49.586z M335.984,53.482
					l-17.56-10.227c-0.428-0.25-0.574-0.799-0.322-1.227c0.25-0.431,0.804-0.574,1.227-0.325l17.562,10.226
					c0.427,0.25,0.572,0.8,0.322,1.228c-0.167,0.287-0.467,0.447-0.776,0.447C336.283,53.604,336.126,53.565,335.984,53.482z
					 M335.984,57.501l-17.56-10.227c-0.428-0.25-0.574-0.8-0.322-1.229c0.25-0.429,0.804-0.571,1.227-0.324l17.562,10.227
					c0.427,0.25,0.572,0.8,0.322,1.229c-0.167,0.286-0.467,0.447-0.776,0.447C336.283,57.624,336.126,57.583,335.984,57.501z
					 M335.984,61.52l-17.56-10.227c-0.428-0.25-0.574-0.8-0.322-1.228c0.25-0.431,0.804-0.574,1.227-0.324l17.562,10.227
					c0.427,0.25,0.572,0.8,0.322,1.228c-0.167,0.286-0.467,0.446-0.776,0.446C336.283,61.642,336.126,61.603,335.984,61.52z
					 M335.984,65.538l-17.56-10.227c-0.428-0.25-0.574-0.8-0.322-1.228c0.25-0.43,0.804-0.573,1.227-0.324l17.562,10.227
					c0.427,0.25,0.572,0.8,0.322,1.228c-0.167,0.286-0.467,0.446-0.776,0.446C336.283,65.66,336.126,65.621,335.984,65.538z"/>
				<path fill="#FFFAFF" d="M338.281,90.875v-15.47c0-1.323,1.432-2.15,2.577-1.487l11.496,6.646
					c0.531,0.307,0.856,0.874,0.856,1.487v15.47c0,1.323-1.432,2.15-2.577,1.488l-11.495-6.647
					C338.607,92.055,338.281,91.488,338.281,90.875z M336.437,73.697c0.309,0,0.609-0.16,0.776-0.446
					c0.25-0.428,0.104-0.978-0.322-1.228l-17.562-10.227c-0.423-0.248-0.977-0.105-1.227,0.324
					c-0.252,0.428-0.106,0.978,0.322,1.228l17.56,10.227C336.126,73.658,336.283,73.697,336.437,73.697z M335.984,77.594
					l-17.56-10.226c-0.428-0.25-0.574-0.8-0.322-1.228c0.25-0.431,0.804-0.574,1.227-0.325l17.562,10.227
					c0.427,0.25,0.572,0.8,0.322,1.228c-0.167,0.287-0.467,0.446-0.776,0.446C336.283,77.716,336.126,77.677,335.984,77.594z
					 M335.984,81.613l-17.56-10.228c-0.428-0.25-0.574-0.799-0.322-1.227c0.25-0.43,0.804-0.572,1.227-0.325l17.562,10.228
					c0.427,0.25,0.572,0.799,0.322,1.227c-0.167,0.288-0.467,0.447-0.776,0.447C336.283,81.735,336.126,81.695,335.984,81.613z
					 M335.984,85.631l-17.56-10.227c-0.428-0.25-0.574-0.8-0.322-1.228c0.25-0.431,0.804-0.574,1.227-0.325l17.562,10.227
					c0.427,0.25,0.572,0.8,0.322,1.228c-0.167,0.287-0.467,0.447-0.776,0.447C336.283,85.754,336.126,85.714,335.984,85.631z
					 M335.984,89.649l-17.56-10.227c-0.428-0.25-0.574-0.799-0.322-1.227c0.25-0.43,0.804-0.573,1.227-0.324l17.562,10.226
					c0.427,0.25,0.572,0.8,0.322,1.227c-0.167,0.288-0.467,0.447-0.776,0.447C336.283,89.771,336.126,89.732,335.984,89.649z"/>
			</g>
			<g>
				<path fill="#B4B9F6" d="M314.358,153.39l36.263,20.97c2.765,1.599,6.223-0.396,6.223-3.59v-48.431
					c0-1.48-0.79-2.849-2.071-3.589L318.51,97.778c-2.765-1.598-6.222,0.397-6.222,3.59V149.8
					C312.288,151.281,313.077,152.648,314.358,153.39z"/>
				<path fill="#FFFAFF" d="M336.896,135.586v-15.469c0-1.324,1.432-2.15,2.578-1.488l11.495,6.646
					c0.531,0.307,0.857,0.874,0.857,1.487v15.471c0,1.323-1.432,2.15-2.577,1.487l-11.496-6.646
					C337.222,136.766,336.896,136.2,336.896,135.586z M335.052,118.408c0.309,0,0.609-0.16,0.776-0.446
					c0.25-0.428,0.104-0.978-0.323-1.228l-17.562-10.227c-0.423-0.247-0.977-0.105-1.227,0.325
					c-0.251,0.428-0.106,0.978,0.323,1.228l17.56,10.226C334.742,118.369,334.898,118.408,335.052,118.408z M334.6,122.306
					l-17.56-10.227c-0.429-0.25-0.574-0.8-0.323-1.228c0.25-0.43,0.804-0.573,1.227-0.324l17.562,10.227
					c0.427,0.25,0.573,0.8,0.323,1.228c-0.167,0.287-0.467,0.446-0.776,0.446C334.898,122.427,334.742,122.387,334.6,122.306z
					 M334.6,126.325l-17.56-10.228c-0.429-0.25-0.574-0.8-0.323-1.228c0.25-0.43,0.804-0.572,1.227-0.324l17.562,10.227
					c0.427,0.25,0.573,0.8,0.323,1.228c-0.167,0.287-0.467,0.446-0.776,0.446C334.898,126.446,334.742,126.406,334.6,126.325z
					 M334.6,130.342l-17.56-10.227c-0.429-0.249-0.574-0.799-0.323-1.227c0.25-0.431,0.804-0.574,1.227-0.325l17.562,10.228
					c0.427,0.25,0.573,0.8,0.323,1.228c-0.167,0.287-0.467,0.447-0.776,0.447C334.898,130.465,334.742,130.425,334.6,130.342z
					 M334.6,134.36l-17.56-10.227c-0.429-0.25-0.574-0.799-0.323-1.227c0.25-0.43,0.804-0.573,1.227-0.324l17.562,10.227
					c0.427,0.25,0.573,0.799,0.323,1.227c-0.167,0.287-0.467,0.447-0.776,0.447C334.898,134.483,334.742,134.443,334.6,134.36z"/>
				<path fill="#FFFAFF" d="M336.896,159.699v-15.47c0-1.324,1.432-2.15,2.578-1.488l11.495,6.646
					c0.531,0.308,0.857,0.875,0.857,1.489v15.47c0,1.323-1.432,2.15-2.577,1.487l-11.496-6.647
					C337.222,160.879,336.896,160.312,336.896,159.699z M335.052,142.521c0.309,0,0.609-0.16,0.776-0.447
					c0.25-0.428,0.104-0.977-0.323-1.227l-17.562-10.227c-0.423-0.248-0.977-0.105-1.227,0.324
					c-0.251,0.428-0.106,0.978,0.323,1.228l17.56,10.226C334.742,142.481,334.898,142.521,335.052,142.521z M334.6,146.417
					l-17.56-10.227c-0.429-0.25-0.574-0.8-0.323-1.228c0.25-0.43,0.804-0.573,1.227-0.324l17.562,10.227
					c0.427,0.249,0.573,0.799,0.323,1.227c-0.167,0.287-0.467,0.446-0.776,0.446C334.898,146.539,334.742,146.5,334.6,146.417z
					 M334.6,150.437l-17.56-10.228c-0.429-0.25-0.574-0.8-0.323-1.227c0.25-0.431,0.804-0.572,1.227-0.325l17.562,10.227
					c0.427,0.251,0.573,0.8,0.323,1.228c-0.167,0.287-0.467,0.447-0.776,0.447C334.898,150.559,334.742,150.519,334.6,150.437z
					 M334.6,154.455l-17.56-10.227c-0.429-0.25-0.574-0.8-0.323-1.228c0.25-0.431,0.804-0.574,1.227-0.325l17.562,10.228
					c0.427,0.25,0.573,0.799,0.323,1.228c-0.167,0.286-0.467,0.446-0.776,0.446C334.898,154.577,334.742,154.538,334.6,154.455z
					 M334.6,158.473l-17.56-10.227c-0.429-0.25-0.574-0.8-0.323-1.228c0.25-0.43,0.804-0.573,1.227-0.324l17.562,10.227
					c0.427,0.25,0.573,0.8,0.323,1.228c-0.167,0.286-0.467,0.446-0.776,0.446C334.898,158.595,334.742,158.556,334.6,158.473z"/>
			</g>
			<g>
				<path fill="#B4B9F6" d="M373.805,191.958l44.391,25.67c3.384,1.957,7.616-0.485,7.616-4.394v-59.287
					c0-1.812-0.966-3.486-2.534-4.394l-44.392-25.669c-3.385-1.957-7.615,0.485-7.615,4.394v59.287
					C371.271,189.376,372.235,191.051,373.805,191.958z"/>
				<path fill="#FFFAFF" d="M389.494,151.624c4.897-3.19,12.438-0.294,16.841,6.467c4.404,6.761,4.001,14.829-0.896,18.019
					c-4.899,3.189-12.438,0.294-16.841-6.467C384.193,162.88,384.595,154.813,389.494,151.624z M384.839,198.339l25.342,14.655
					c0,0,0-18.92-3.846-26.189c-3.773-7.131-12.929-10.227-16.841-6.467C384.646,184.996,384.839,198.339,384.839,198.339z"/>
			</g>
			<g>
				<defs>
					<path id="SVGID_1_" d="M524.599,176.57l33.297,19.255c1.192,0.69,2.685-0.171,2.685-1.549v-29.414
						c0-0.639-0.34-1.229-0.894-1.549L526.39,144.06c-1.191-0.69-2.685,0.171-2.685,1.549v29.414
						C523.705,175.66,524.045,176.251,524.599,176.57z"/>
				</defs>
				<clipPath id="SVGID_2_">
					<use xlink:href="#SVGID_1_"  overflow="visible"/>
				</clipPath>
				<polygon clip-path="url(#SVGID_2_)" fill="#D1D3FF" points="523.705,176.055 560.58,197.378 560.58,163.831 523.705,142.507 
									"/>
				<polygon clip-path="url(#SVGID_2_)" fill="#D9DFF6" points="523.705,176.055 560.58,197.378 541.124,167.526 				"/>
				<path clip-path="url(#SVGID_2_)" fill="#D9DFF6" d="M542.855,169.941l17.725-6.11l-36.875-21.324l15.84,26.233
					C540.227,169.871,541.606,170.372,542.855,169.941z"/>
			</g>
		</g>
	</g>
	<g>
		<polygon opacity="0.5" fill="#9997E9" points="166.667,206.026 197.973,224.249 197.975,224.249 229.317,206.265 197.785,187.912 
			197.785,187.912 		"/>
		<polygon opacity="0.5" fill="#BBB8F6" points="206.045,229.763 237.353,247.986 268.697,230.003 237.165,211.65 237.165,211.65 		
			"/>
		<polygon opacity="0.5" fill="#BBB8F6" points="246.282,252.54 277.59,270.763 308.932,252.78 277.401,234.426 277.401,234.426 		
			"/>
		<g>
			<polygon fill="#8184EB" points="171.653,206.293 195.735,220.31 219.845,206.478 219.845,52.509 171.653,52.325 			"/>
			<polygon fill="#D9DFF7" points="171.653,52.325 195.735,66.342 219.845,52.509 195.589,38.392 			"/>
			<polygon fill="#BBB8F6" points="195.735,220.31 195.735,66.342 219.845,52.509 219.845,206.478 			"/>
		</g>
		<g>
			<polygon fill="#8184EB" points="212.33,230.121 236.412,244.138 260.522,230.306 260.522,97.75 212.33,97.566 			"/>
			<polygon fill="#D9DFF7" points="212.33,97.566 236.412,111.583 260.522,97.75 236.266,83.633 			"/>
			<polygon fill="#B4B9F6" points="236.412,244.138 236.412,111.583 260.522,97.75 260.522,230.306 			"/>
		</g>
		<g>
			<polygon fill="#8184EB" points="253.006,253.949 277.088,267.966 301.198,254.134 301.198,151.633 253.006,151.449 			"/>
			<polygon fill="#D9DFF7" points="253.006,151.449 277.088,165.465 301.198,151.633 276.942,137.515 			"/>
			<polygon fill="#B4B9F6" points="277.088,267.966 277.088,165.465 301.198,151.633 301.198,254.134 			"/>
		</g>
	</g>
	<g>
		<g>
			<path opacity="0.5" fill="#BBB8F6" d="M468.021,441.67c0,7.808,11.92,14.137,26.628,14.137c14.703,0,26.623-6.329,26.623-14.137
				c0-7.804-11.92-14.134-26.623-14.134C479.94,427.536,468.021,433.866,468.021,441.67z"/>
			<path opacity="0.5" fill="#BBB8F6" d="M501.008,426.653c0,7.807,11.921,14.138,26.629,14.138
				c14.702,0,26.622-6.331,26.622-14.138c0-7.804-11.92-14.133-26.622-14.133C512.929,412.521,501.008,418.85,501.008,426.653z"/>
			<path opacity="0.5" fill="#BBB8F6" d="M526.139,450.546c0,7.808,11.92,14.137,26.629,14.137c14.702,0,26.622-6.329,26.622-14.137
				c0-7.804-11.92-14.133-26.622-14.133C538.059,436.413,526.139,442.742,526.139,450.546z"/>
		</g>
		<g>
			<g>
				<g>
					<path fill="#9796F7" d="M551.127,418.01v5.461c0,7.378-11.001,13.359-24.57,13.359c-13.571,0-24.572-5.981-24.572-13.359
						v-5.461H551.127z"/>
					<path opacity="0.41" fill="#6782EA" d="M539.048,434.933c-0.786,0.263-1.59,0.512-2.44,0.718v-13.745h2.44V434.933z
						 M514.101,434.986c0.785,0.263,1.59,0.512,2.439,0.718V421.96h-2.439V434.986z M545.47,431.992
						c1.862-1.217,3.311-2.625,4.284-4.153v-9.198h-4.284V431.992z"/>
					<ellipse fill="#D9DFF6" cx="526.556" cy="418.01" rx="24.571" ry="13.359"/>
					<path fill="#B4B9F6" d="M507.642,417.841c0,5.546,8.469,10.043,18.915,10.043s18.913-4.497,18.913-10.043
						c0-5.543-8.467-10.04-18.913-10.04S507.642,412.298,507.642,417.841z"/>
					<path fill="#9796F7" d="M526.557,409.192c10.005,0,18.172,4.128,18.847,9.345c0.032-0.23,0.066-0.461,0.066-0.696
						c0-5.543-8.467-10.04-18.913-10.04s-18.916,4.497-18.916,10.04c0,0.235,0.035,0.466,0.067,0.696
						C508.383,413.32,516.55,409.192,526.557,409.192z"/>
					<path fill="#9796F7" d="M534.924,413.775l1.73-1.009l-1.366-0.79l-1.733,1.007c-3.122-1.587-6.964-1.964-9.627-0.415
						c-3.357,1.951-1.122,3.99,0.578,5.672l-3.375,1.964c-0.5-0.568-0.391-1.127,0.407-1.683l-3.917-2.263
						c-2.666,1.664-2.046,3.774,0.625,5.62l-1.753,1.022l1.37,0.787l1.729-1.005c3.554,1.873,7.437,1.764,9.749,0.421
						c3.313-1.927,0.979-3.984-0.68-5.691l3.313-1.924c0.396,0.469,0.311,0.993-0.391,1.503l3.941,2.274
						C538.036,417.578,537.65,415.616,534.924,413.775z M525.357,420.955c-0.788,0.46-1.909,0.485-2.912,0.071l3.026-1.76
						C525.993,419.935,526.127,420.509,525.357,420.955z M527.744,416.361c-0.444-0.65-0.504-1.205,0.244-1.638
						c0.834-0.485,1.8-0.472,2.726-0.09L527.744,416.361z"/>
					<path fill="#D9DFF6" d="M534.924,413.145l1.73-1.009l-1.366-0.789l-1.733,1.006c-3.122-1.585-6.964-1.962-9.627-0.416
						c-3.357,1.952-1.122,3.991,0.578,5.674l-3.375,1.962c-0.5-0.566-0.391-1.127,0.407-1.681l-3.917-2.265
						c-2.666,1.666-2.046,3.774,0.625,5.621l-1.753,1.021l1.37,0.789l1.729-1.005c3.554,1.87,7.437,1.764,9.749,0.42
						c3.313-1.927,0.979-3.983-0.68-5.69l3.313-1.924c0.396,0.469,0.311,0.993-0.391,1.504l3.941,2.272
						C538.036,416.947,537.65,414.984,534.924,413.145z M525.357,420.325c-0.788,0.46-1.909,0.486-2.912,0.069l3.026-1.759
						C525.993,419.305,526.127,419.879,525.357,420.325z M527.744,415.731c-0.444-0.651-0.504-1.206,0.244-1.64
						c0.834-0.484,1.8-0.47,2.726-0.088L527.744,415.731z"/>
				</g>
			</g>
		</g>
		<g>
			<g>
				<g>
					<path fill="#9796F7" d="M551.127,409.739v5.46c0,7.379-11.001,13.359-24.57,13.359c-13.571,0-24.572-5.98-24.572-13.359v-5.46
						H551.127z"/>
					<path opacity="0.41" fill="#6782EA" d="M539.048,426.662c-0.786,0.264-1.59,0.513-2.44,0.719v-13.747h2.44V426.662z
						 M514.101,426.718c0.785,0.262,1.59,0.511,2.439,0.719v-13.747h-2.439V426.718z M545.47,423.723
						c1.862-1.218,3.311-2.625,4.284-4.154v-9.197h-4.284V423.723z"/>
					<ellipse fill="#D9DFF6" cx="526.556" cy="409.739" rx="24.571" ry="13.359"/>
					<path fill="#B4B9F6" d="M507.642,409.571c0,5.547,8.469,10.044,18.915,10.044s18.913-4.497,18.913-10.044
						c0-5.544-8.467-10.041-18.913-10.041S507.642,404.027,507.642,409.571z"/>
					<path fill="#9796F7" d="M526.557,400.923c10.005,0,18.172,4.127,18.847,9.345c0.032-0.23,0.066-0.463,0.066-0.696
						c0-5.544-8.467-10.041-18.913-10.041s-18.916,4.497-18.916,10.041c0,0.233,0.035,0.466,0.067,0.696
						C508.383,405.05,516.55,400.923,526.557,400.923z"/>
					<path fill="#9796F7" d="M534.924,405.504l1.73-1.008l-1.366-0.788l-1.733,1.005c-3.122-1.586-6.964-1.963-9.627-0.415
						c-3.357,1.953-1.122,3.992,0.578,5.673l-3.375,1.962c-0.5-0.567-0.391-1.125,0.407-1.682l-3.917-2.263
						c-2.666,1.666-2.046,3.775,0.625,5.621l-1.753,1.021l1.37,0.789l1.729-1.006c3.554,1.873,7.437,1.764,9.749,0.42
						c3.313-1.925,0.979-3.982-0.68-5.69l3.313-1.923c0.396,0.47,0.311,0.992-0.391,1.503l3.941,2.275
						C538.036,409.31,537.65,407.346,534.924,405.504z M525.357,412.687c-0.788,0.458-1.909,0.484-2.912,0.069l3.026-1.758
						C525.993,411.664,526.127,412.24,525.357,412.687z M527.744,408.091c-0.444-0.649-0.504-1.205,0.244-1.637
						c0.834-0.484,1.8-0.473,2.726-0.091L527.744,408.091z"/>
					<path fill="#D9DFF6" d="M534.924,404.875l1.73-1.009l-1.366-0.79l-1.733,1.007c-3.122-1.587-6.964-1.964-9.627-0.417
						c-3.357,1.953-1.122,3.992,0.578,5.674l-3.375,1.963c-0.5-0.567-0.391-1.128,0.407-1.681l-3.917-2.266
						c-2.666,1.666-2.046,3.776,0.625,5.622L516.493,414l1.37,0.788l1.729-1.005c3.554,1.873,7.437,1.764,9.749,0.421
						c3.313-1.927,0.979-3.984-0.68-5.692l3.313-1.923c0.396,0.47,0.311,0.992-0.391,1.503l3.941,2.274
						C538.036,408.678,537.65,406.716,534.924,404.875z M525.357,412.055c-0.788,0.46-1.909,0.485-2.912,0.07l3.026-1.759
						C525.993,411.033,526.127,411.608,525.357,412.055z M527.744,407.46c-0.444-0.649-0.504-1.204,0.244-1.638
						c0.834-0.484,1.8-0.471,2.726-0.089L527.744,407.46z"/>
				</g>
			</g>
		</g>
		<g>
			<g>
				<g>
					<path fill="#9796F7" d="M551.127,401.469v5.461c0,7.378-11.001,13.36-24.57,13.36c-13.571,0-24.572-5.982-24.572-13.36v-5.461
						H551.127z"/>
					<path opacity="0.41" fill="#6782EA" d="M539.048,418.392c-0.786,0.264-1.59,0.512-2.44,0.721v-13.747h2.44V418.392z
						 M514.101,418.447c0.785,0.264,1.59,0.51,2.439,0.719v-13.747h-2.439V418.447z M545.47,415.453
						c1.862-1.219,3.311-2.627,4.284-4.155v-9.197h-4.284V415.453z"/>
					<ellipse fill="#D9DFF6" cx="526.556" cy="401.469" rx="24.571" ry="13.359"/>
					<path fill="#B4B9F6" d="M507.642,401.301c0,5.547,8.469,10.045,18.915,10.045s18.913-4.498,18.913-10.045
						c0-5.544-8.467-10.041-18.913-10.041S507.642,395.757,507.642,401.301z"/>
					<path fill="#9796F7" d="M526.557,392.651c10.005,0,18.172,4.128,18.847,9.345c0.032-0.23,0.066-0.46,0.066-0.695
						c0-5.544-8.467-10.041-18.913-10.041s-18.916,4.497-18.916,10.041c0,0.235,0.035,0.465,0.067,0.695
						C508.383,396.779,516.55,392.651,526.557,392.651z"/>
					<path fill="#9796F7" d="M534.924,397.234l1.73-1.008l-1.366-0.789l-1.733,1.005c-3.122-1.584-6.964-1.961-9.627-0.414
						c-3.357,1.952-1.122,3.992,0.578,5.673l-3.375,1.962c-0.5-0.567-0.391-1.127,0.407-1.683l-3.917-2.263
						c-2.666,1.666-2.046,3.774,0.625,5.621l-1.753,1.021l1.37,0.789l1.729-1.006c3.554,1.873,7.437,1.765,9.749,0.421
						c3.313-1.927,0.979-3.985-0.68-5.69l3.313-1.926c0.396,0.471,0.311,0.993-0.391,1.504l3.941,2.274
						C538.036,401.038,537.65,399.076,534.924,397.234z M525.357,404.416c-0.788,0.459-1.909,0.484-2.912,0.069l3.026-1.759
						C525.993,403.396,526.127,403.971,525.357,404.416z M527.744,399.82c-0.444-0.649-0.504-1.202,0.244-1.638
						c0.834-0.484,1.8-0.472,2.726-0.089L527.744,399.82z"/>
					<path fill="#D9DFF6" d="M534.924,396.604l1.73-1.009l-1.366-0.787l-1.733,1.005c-3.122-1.586-6.964-1.963-9.627-0.415
						c-3.357,1.95-1.122,3.992,0.578,5.672l-3.375,1.964c-0.5-0.568-0.391-1.126,0.407-1.683l-3.917-2.264
						c-2.666,1.667-2.046,3.775,0.625,5.62l-1.753,1.022l1.37,0.789l1.729-1.006c3.554,1.873,7.437,1.764,9.749,0.42
						c3.313-1.927,0.979-3.982-0.68-5.69l3.313-1.924c0.396,0.469,0.311,0.993-0.391,1.504l3.941,2.275
						C538.036,400.406,537.65,398.445,534.924,396.604z M525.357,403.786c-0.788,0.458-1.909,0.484-2.912,0.069l3.026-1.758
						C525.993,402.764,526.127,403.34,525.357,403.786z M527.744,399.19c-0.444-0.649-0.504-1.205,0.244-1.637
						c0.834-0.484,1.8-0.472,2.726-0.091L527.744,399.19z"/>
				</g>
			</g>
		</g>
		<g>
			<g>
				<g>
					<path fill="#9796F7" d="M551.127,393.199v5.462c0,7.376-11.001,13.359-24.57,13.359c-13.571,0-24.572-5.983-24.572-13.359
						v-5.462H551.127z"/>
					<path opacity="0.41" fill="#6782EA" d="M539.048,410.123c-0.786,0.262-1.59,0.511-2.44,0.718v-13.745h2.44V410.123z
						 M514.101,410.177c0.785,0.264,1.59,0.512,2.439,0.719v-13.746h-2.439V410.177z M545.47,407.183
						c1.862-1.219,3.311-2.626,4.284-4.154v-9.197h-4.284V407.183z"/>
					<ellipse fill="#D9DFF6" cx="526.556" cy="393.199" rx="24.571" ry="13.359"/>
					<path fill="#B4B9F6" d="M507.642,393.03c0,5.548,8.469,10.044,18.915,10.044s18.913-4.496,18.913-10.044
						c0-5.544-8.467-10.04-18.913-10.04S507.642,387.486,507.642,393.03z"/>
					<path fill="#9796F7" d="M526.557,384.382c10.005,0,18.172,4.127,18.847,9.347c0.032-0.232,0.066-0.462,0.066-0.698
						c0-5.544-8.467-10.04-18.913-10.04s-18.916,4.496-18.916,10.04c0,0.236,0.035,0.466,0.067,0.698
						C508.383,388.509,516.55,384.382,526.557,384.382z"/>
					<path fill="#9796F7" d="M534.924,388.966l1.73-1.009l-1.366-0.79l-1.733,1.007c-3.122-1.587-6.964-1.963-9.627-0.417
						c-3.357,1.953-1.122,3.992,0.578,5.675l-3.375,1.96c-0.5-0.567-0.391-1.125,0.407-1.679l-3.917-2.266
						c-2.666,1.666-2.046,3.775,0.625,5.622l-1.753,1.02l1.37,0.79l1.729-1.007c3.554,1.873,7.437,1.766,9.749,0.423
						c3.313-1.927,0.979-3.985-0.68-5.691l3.313-1.923c0.396,0.469,0.311,0.993-0.391,1.502l3.941,2.274
						C538.036,392.769,537.65,390.805,534.924,388.966z M525.357,396.146c-0.788,0.46-1.909,0.484-2.912,0.069l3.026-1.758
						C525.993,395.126,526.127,395.699,525.357,396.146z M527.744,391.551c-0.444-0.65-0.504-1.204,0.244-1.638
						c0.834-0.484,1.8-0.472,2.726-0.091L527.744,391.551z"/>
					<path fill="#D9DFF6" d="M534.924,388.334l1.73-1.009l-1.366-0.788l-1.733,1.005c-3.122-1.584-6.964-1.961-9.627-0.415
						c-3.357,1.953-1.122,3.992,0.578,5.673l-3.375,1.963c-0.5-0.567-0.391-1.127,0.407-1.682l-3.917-2.264
						c-2.666,1.667-2.046,3.775,0.625,5.622l-1.753,1.021l1.37,0.787l1.729-1.004c3.554,1.873,7.437,1.763,9.749,0.42
						c3.313-1.925,0.979-3.984-0.68-5.691l3.313-1.923c0.396,0.47,0.311,0.993-0.391,1.502l3.941,2.276
						C538.036,392.138,537.65,390.175,534.924,388.334z M525.357,395.517c-0.788,0.458-1.909,0.483-2.912,0.069l3.026-1.759
						C525.993,394.495,526.127,395.069,525.357,395.517z M527.744,390.92c-0.444-0.648-0.504-1.203,0.244-1.637
						c0.834-0.484,1.8-0.473,2.726-0.09L527.744,390.92z"/>
				</g>
			</g>
		</g>
		<g>
			<g>
				<g>
					<path fill="#9796F7" d="M551.127,384.928v5.462c0,7.378-11.001,13.359-24.57,13.359c-13.571,0-24.572-5.981-24.572-13.359
						v-5.462H551.127z"/>
					<path opacity="0.41" fill="#6782EA" d="M539.048,401.852c-0.786,0.265-1.59,0.514-2.44,0.72v-13.747h2.44V401.852z
						 M514.101,401.907c0.785,0.263,1.59,0.511,2.439,0.718v-13.747h-2.439V401.907z M545.47,398.912
						c1.862-1.217,3.311-2.625,4.284-4.153v-9.199h-4.284V398.912z"/>
					<ellipse fill="#D9DFF6" cx="526.556" cy="384.928" rx="24.571" ry="13.359"/>
					<ellipse fill="#B4B9F6" cx="526.556" cy="384.762" rx="18.914" ry="10.043"/>
					<path fill="#9796F7" d="M526.557,376.113c10.005,0,18.172,4.125,18.847,9.345c0.032-0.231,0.066-0.462,0.066-0.696
						c0-5.545-8.467-10.041-18.913-10.041s-18.916,4.496-18.916,10.041c0,0.234,0.035,0.465,0.067,0.696
						C508.383,380.238,516.55,376.113,526.557,376.113z"/>
					<path fill="#9796F7" d="M534.924,380.694l1.73-1.007l-1.366-0.791l-1.733,1.008c-3.122-1.587-6.964-1.964-9.627-0.417
						c-3.357,1.953-1.122,3.992,0.578,5.674l-3.375,1.961c-0.5-0.565-0.391-1.127,0.407-1.681l-3.917-2.264
						c-2.666,1.665-2.046,3.773,0.625,5.621l-1.753,1.021l1.37,0.79l1.729-1.006c3.554,1.872,7.437,1.764,9.749,0.42
						c3.313-1.926,0.979-3.982-0.68-5.69l3.313-1.923c0.396,0.468,0.311,0.992-0.391,1.503l3.941,2.273
						C538.036,384.497,537.65,382.535,534.924,380.694z M525.357,387.876c-0.788,0.459-1.909,0.485-2.912,0.068l3.026-1.758
						C525.993,386.854,526.127,387.43,525.357,387.876z M527.744,383.281c-0.444-0.649-0.504-1.204,0.244-1.639
						c0.834-0.483,1.8-0.47,2.726-0.089L527.744,383.281z"/>
					<path fill="#D9DFF6" d="M534.924,380.065l1.73-1.009l-1.366-0.79l-1.733,1.006c-3.122-1.586-6.964-1.962-9.627-0.415
						c-3.357,1.952-1.122,3.991,0.578,5.674l-3.375,1.961c-0.5-0.567-0.391-1.126,0.407-1.68l-3.917-2.266
						c-2.666,1.666-2.046,3.775,0.625,5.622l-1.753,1.02l1.37,0.791l1.729-1.008c3.554,1.873,7.437,1.766,9.749,0.423
						c3.313-1.927,0.979-3.985-0.68-5.692l3.313-1.924c0.396,0.471,0.311,0.992-0.391,1.504l3.941,2.274
						C538.036,383.868,537.65,381.904,534.924,380.065z M525.357,387.245c-0.788,0.46-1.909,0.484-2.912,0.069l3.026-1.758
						C525.993,386.225,526.127,386.799,525.357,387.245z M527.744,382.65c-0.444-0.65-0.504-1.204,0.244-1.638
						c0.834-0.484,1.8-0.472,2.726-0.091L527.744,382.65z"/>
				</g>
			</g>
		</g>
		<g>
			<g>
				<g>
					<path fill="#9796F7" d="M577.335,441.92v5.46c0,7.378-11.001,13.359-24.57,13.359c-13.57,0-24.571-5.981-24.571-13.359v-5.46
						H577.335z"/>
					<path opacity="0.41" fill="#6782EA" d="M565.257,458.843c-0.787,0.264-1.59,0.512-2.44,0.719v-13.747h2.44V458.843z
						 M540.308,458.897c0.787,0.263,1.59,0.511,2.44,0.72V445.87h-2.44V458.897z M571.678,455.902
						c1.862-1.217,3.309-2.624,4.284-4.153v-9.197h-4.284V455.902z"/>
					<ellipse fill="#D9DFF6" cx="552.764" cy="441.92" rx="24.571" ry="13.359"/>
					<ellipse fill="#B4B9F6" cx="552.763" cy="441.752" rx="18.915" ry="10.044"/>
					<path fill="#9796F7" d="M552.765,433.103c10.003,0,18.173,4.127,18.848,9.345c0.03-0.23,0.065-0.461,0.065-0.695
						c0-5.545-8.466-10.041-18.913-10.041c-10.449,0-18.917,4.496-18.917,10.041c0,0.234,0.037,0.465,0.067,0.695
						C534.591,437.229,542.759,433.103,552.765,433.103z"/>
					<path fill="#9796F7" d="M561.133,437.685l1.729-1.008l-1.365-0.788l-1.734,1.005c-3.122-1.586-6.965-1.961-9.628-0.414
						c-3.356,1.951-1.121,3.991,0.58,5.671l-3.376,1.964c-0.499-0.567-0.391-1.127,0.408-1.683l-3.917-2.264
						c-2.666,1.667-2.047,3.775,0.625,5.622l-1.754,1.021l1.368,0.787l1.73-1.004c3.554,1.872,7.437,1.763,9.751,0.419
						c3.313-1.925,0.979-3.982-0.68-5.69l3.313-1.924c0.396,0.469,0.311,0.993-0.391,1.504l3.939,2.272
						C564.245,441.489,563.857,439.527,561.133,437.685z M551.565,444.867c-0.788,0.458-1.909,0.484-2.913,0.069l3.027-1.761
						C552.201,443.845,552.334,444.422,551.565,444.867z M553.95,440.271c-0.443-0.649-0.502-1.204,0.247-1.638
						c0.832-0.483,1.8-0.472,2.725-0.09L553.95,440.271z"/>
					<path fill="#D9DFF6" d="M561.133,437.055l1.729-1.008l-1.365-0.79l-1.734,1.007c-3.122-1.587-6.965-1.963-9.628-0.415
						c-3.356,1.951-1.121,3.99,0.58,5.673l-3.376,1.962c-0.499-0.567-0.391-1.128,0.408-1.682l-3.917-2.263
						c-2.666,1.664-2.047,3.775,0.625,5.619l-1.754,1.022l1.368,0.789l1.73-1.006c3.554,1.871,7.437,1.764,9.751,0.42
						c3.313-1.927,0.979-3.982-0.68-5.691l3.313-1.922c0.396,0.468,0.311,0.992-0.391,1.502l3.939,2.274
						C564.245,440.857,563.857,438.896,561.133,437.055z M551.565,444.235c-0.788,0.46-1.909,0.486-2.913,0.071l3.027-1.76
						C552.201,443.215,552.334,443.789,551.565,444.235z M553.95,439.641c-0.443-0.648-0.502-1.204,0.247-1.638
						c0.832-0.484,1.8-0.471,2.725-0.089L553.95,439.641z"/>
				</g>
			</g>
		</g>
		<g>
			<g>
				<g>
					<path fill="#9796F7" d="M577.335,433.681v5.462c0,7.377-11.001,13.359-24.57,13.359c-13.57,0-24.571-5.982-24.571-13.359
						v-5.462H577.335z"/>
					<path opacity="0.41" fill="#6782EA" d="M565.257,450.604c-0.787,0.265-1.59,0.513-2.44,0.72v-13.747h2.44V450.604z
						 M540.308,450.658c0.787,0.265,1.59,0.513,2.44,0.72v-13.747h-2.44V450.658z M571.678,447.665
						c1.862-1.217,3.309-2.624,4.284-4.155v-9.197h-4.284V447.665z"/>
					<ellipse fill="#D9DFF6" cx="552.764" cy="433.681" rx="24.571" ry="13.359"/>
					<ellipse fill="#B4B9F6" cx="552.763" cy="433.515" rx="18.915" ry="10.042"/>
					<path fill="#9796F7" d="M552.765,424.865c10.003,0,18.173,4.127,18.848,9.345c0.03-0.23,0.065-0.462,0.065-0.695
						c0-5.546-8.466-10.041-18.913-10.041c-10.449,0-18.917,4.495-18.917,10.041c0,0.233,0.037,0.465,0.067,0.695
						C534.591,428.992,542.759,424.865,552.765,424.865z"/>
					<path fill="#9796F7" d="M561.133,429.447l1.729-1.009l-1.365-0.789l-1.734,1.006c-3.122-1.585-6.965-1.962-9.628-0.415
						c-3.356,1.951-1.121,3.992,0.58,5.673l-3.376,1.964c-0.499-0.568-0.391-1.129,0.408-1.683l-3.917-2.264
						c-2.666,1.665-2.047,3.775,0.625,5.62l-1.754,1.022l1.368,0.788l1.73-1.005c3.554,1.872,7.437,1.764,9.751,0.42
						c3.313-1.927,0.979-3.982-0.68-5.69l3.313-1.924c0.396,0.469,0.311,0.993-0.391,1.504l3.939,2.272
						C564.245,433.25,563.857,431.289,561.133,429.447z M551.565,436.628c-0.788,0.46-1.909,0.486-2.913,0.071l3.027-1.761
						C552.201,435.607,552.334,436.183,551.565,436.628z M553.95,432.034c-0.443-0.649-0.502-1.204,0.247-1.64
						c0.832-0.484,1.8-0.469,2.725-0.088L553.95,432.034z"/>
					<path fill="#D9DFF6" d="M561.133,428.817l1.729-1.008l-1.365-0.79l-1.734,1.007c-3.122-1.587-6.965-1.964-9.628-0.417
						c-3.356,1.953-1.121,3.992,0.58,5.675l-3.376,1.96c-0.499-0.567-0.391-1.125,0.408-1.68l-3.917-2.266
						c-2.666,1.667-2.047,3.775,0.625,5.622l-1.754,1.021l1.368,0.79l1.73-1.005c3.554,1.871,7.437,1.764,9.751,0.42
						c3.313-1.927,0.979-3.984-0.68-5.691l3.313-1.922c0.396,0.468,0.311,0.99-0.391,1.502l3.939,2.274
						C564.245,432.62,563.857,430.657,561.133,428.817z M551.565,435.998c-0.788,0.46-1.909,0.484-2.913,0.069l3.027-1.758
						C552.201,434.978,552.334,435.552,551.565,435.998z M553.95,431.403c-0.443-0.65-0.502-1.204,0.247-1.638
						c0.832-0.484,1.8-0.473,2.725-0.091L553.95,431.403z"/>
				</g>
			</g>
		</g>
		<g>
			<g>
				<g>
					<path fill="#9796F7" d="M519.217,432.975v5.462c0,7.377-11.001,13.359-24.57,13.359c-13.571,0-24.572-5.982-24.572-13.359
						v-5.462H519.217z"/>
					<path opacity="0.41" fill="#6782EA" d="M507.138,449.898c-0.786,0.264-1.59,0.513-2.44,0.719v-13.746h2.44V449.898z
						 M482.189,449.953c0.786,0.263,1.591,0.512,2.44,0.718v-13.746h-2.44V449.953z M513.561,446.959
						c1.862-1.217,3.31-2.627,4.283-4.155v-9.197h-4.283V446.959z"/>
					<ellipse fill="#D9DFF6" cx="494.646" cy="432.975" rx="24.571" ry="13.359"/>
					<ellipse fill="#B4B9F6" cx="494.646" cy="432.808" rx="18.915" ry="10.043"/>
					<path fill="#9796F7" d="M494.646,424.159c10.005,0,18.173,4.126,18.85,9.345c0.029-0.23,0.064-0.462,0.064-0.696
						c0-5.545-8.467-10.04-18.914-10.04c-10.448,0-18.917,4.495-18.917,10.04c0,0.234,0.037,0.466,0.068,0.696
						C476.473,428.285,484.641,424.159,494.646,424.159z"/>
					<path fill="#9796F7" d="M503.014,428.741l1.731-1.009l-1.366-0.79l-1.734,1.007c-3.122-1.586-6.963-1.963-9.627-0.416
						c-3.357,1.953-1.121,3.992,0.579,5.674l-3.375,1.961c-0.501-0.565-0.391-1.126,0.407-1.68l-3.918-2.265
						c-2.666,1.665-2.045,3.774,0.626,5.621l-1.753,1.021l1.369,0.79l1.729-1.006c3.554,1.872,7.437,1.764,9.749,0.421
						c3.313-1.927,0.979-3.985-0.68-5.69l3.313-1.924c0.396,0.469,0.311,0.993-0.391,1.503l3.939,2.273
						C506.126,432.544,505.741,430.581,503.014,428.741z M493.447,435.921c-0.787,0.46-1.909,0.486-2.912,0.069l3.027-1.758
						C494.082,434.901,494.216,435.476,493.447,435.921z M495.834,431.328c-0.444-0.652-0.503-1.205,0.244-1.64
						c0.834-0.484,1.801-0.47,2.726-0.089L495.834,431.328z"/>
					<path fill="#D9DFF6" d="M503.014,428.109l1.731-1.007l-1.366-0.789l-1.734,1.004c-3.122-1.584-6.963-1.96-9.627-0.415
						c-3.357,1.953-1.121,3.992,0.579,5.675l-3.375,1.961c-0.501-0.567-0.391-1.126,0.407-1.682l-3.918-2.264
						c-2.666,1.667-2.045,3.775,0.626,5.622l-1.753,1.021l1.369,0.789l1.729-1.006c3.554,1.873,7.437,1.766,9.749,0.422
						c3.313-1.927,0.979-3.985-0.68-5.691l3.313-1.925c0.396,0.471,0.311,0.993-0.391,1.504l3.939,2.274
						C506.126,431.914,505.741,429.95,503.014,428.109z M493.447,435.292c-0.787,0.458-1.909,0.483-2.912,0.069l3.027-1.759
						C494.082,434.271,494.216,434.845,493.447,435.292z M495.834,430.697c-0.444-0.65-0.503-1.205,0.244-1.639
						c0.834-0.484,1.801-0.472,2.726-0.09L495.834,430.697z"/>
				</g>
			</g>
		</g>
		<g>
			<g>
				<g>
					<path fill="#9796F7" d="M519.217,424.807v5.46c0,7.378-11.001,13.359-24.57,13.359c-13.571,0-24.572-5.981-24.572-13.359v-5.46
						H519.217z"/>
					<path opacity="0.41" fill="#6782EA" d="M507.138,441.729c-0.786,0.264-1.59,0.512-2.44,0.718v-13.746h2.44V441.729z
						 M482.189,441.783c0.786,0.264,1.591,0.512,2.44,0.718v-13.744h-2.44V441.783z M513.561,438.789
						c1.862-1.217,3.31-2.625,4.283-4.153v-9.199h-4.283V438.789z"/>
					<ellipse fill="#D9DFF6" cx="494.646" cy="424.807" rx="24.571" ry="13.359"/>
					<ellipse fill="#B4B9F6" cx="494.646" cy="424.638" rx="18.915" ry="10.043"/>
					<path fill="#9796F7" d="M494.646,415.989c10.005,0,18.173,4.127,18.85,9.345c0.029-0.23,0.064-0.461,0.064-0.696
						c0-5.544-8.467-10.04-18.914-10.04c-10.448,0-18.917,4.496-18.917,10.04c0,0.235,0.037,0.466,0.068,0.696
						C476.473,420.116,484.641,415.989,494.646,415.989z"/>
					<path fill="#9796F7" d="M503.014,420.571l1.731-1.008l-1.366-0.791l-1.734,1.008c-3.122-1.587-6.963-1.963-9.627-0.415
						c-3.357,1.951-1.121,3.99,0.579,5.672l-3.375,1.964c-0.501-0.567-0.391-1.127,0.407-1.683l-3.918-2.263
						c-2.666,1.663-2.045,3.774,0.626,5.62l-1.753,1.022l1.369,0.787l1.729-1.004c3.554,1.871,7.437,1.763,9.749,0.42
						c3.313-1.927,0.979-3.984-0.68-5.691l3.313-1.924c0.396,0.469,0.311,0.993-0.391,1.503l3.939,2.273
						C506.126,424.374,505.741,422.413,503.014,420.571z M493.447,427.752c-0.787,0.459-1.909,0.485-2.912,0.071l3.027-1.761
						C494.082,426.731,494.216,427.306,493.447,427.752z M495.834,423.158c-0.444-0.65-0.503-1.205,0.244-1.638
						c0.834-0.485,1.801-0.472,2.726-0.091L495.834,423.158z"/>
					<path fill="#D9DFF6" d="M503.014,419.941l1.731-1.009l-1.366-0.789l-1.734,1.006c-3.122-1.586-6.963-1.962-9.627-0.415
						c-3.357,1.951-1.121,3.991,0.579,5.673l-3.375,1.962c-0.501-0.566-0.391-1.127,0.407-1.681l-3.918-2.266
						c-2.666,1.667-2.045,3.775,0.626,5.622l-1.753,1.021l1.369,0.789l1.729-1.005c3.554,1.871,7.437,1.764,9.749,0.42
						c3.313-1.927,0.979-3.982-0.68-5.691l3.313-1.923c0.396,0.469,0.311,0.993-0.391,1.503l3.939,2.273
						C506.126,423.744,505.741,421.781,503.014,419.941z M493.447,427.122c-0.787,0.46-1.909,0.486-2.912,0.069l3.027-1.759
						C494.082,426.102,494.216,426.676,493.447,427.122z M495.834,422.527c-0.444-0.648-0.503-1.204,0.244-1.639
						c0.834-0.484,1.801-0.471,2.726-0.088L495.834,422.527z"/>
				</g>
			</g>
		</g>
	</g>
	<g>
		<g>
			<g enable-background="new    ">
				<path fill="#9796F7" d="M634.221,302.31c-0.191-0.17-0.357-0.346-0.493-0.528c-0.013-0.019-0.024-0.035-0.037-0.051
					c-0.14-0.201-0.247-0.406-0.321-0.617c-0.004-0.01-0.006-0.02-0.011-0.032c-0.072-0.215-0.112-0.437-0.113-0.654l0.52,84.635
					c0,0.009,0,0.019,0,0.028c0.001,0.079,0.008,0.159,0.019,0.239c0.012,0.078,0.027,0.158,0.047,0.236
					c0.014,0.05,0.031,0.101,0.049,0.151c0.004,0.011,0.007,0.021,0.01,0.032c0.005,0.019,0.011,0.035,0.018,0.054
					c0.029,0.08,0.065,0.16,0.105,0.24c0.042,0.083,0.091,0.164,0.144,0.246c0.017,0.024,0.038,0.051,0.055,0.075
					c0.013,0.017,0.026,0.034,0.039,0.052c0.032,0.045,0.062,0.09,0.097,0.134c0.08,0.096,0.166,0.19,0.262,0.284
					c0.04,0.039,0.091,0.074,0.132,0.111c0.04,0.034,0.08,0.069,0.122,0.104c0.052,0.043,0.097,0.088,0.154,0.131
					c0.17,0.129,0.359,0.25,0.563,0.367c0.276,0.155,0.576,0.289,0.889,0.407c0.103,0.039,0.211,0.068,0.316,0.104
					c0.157,0.053,0.31,0.112,0.474,0.155c0.076,0.021,0.158,0.035,0.235,0.052c0.068,0.016,0.134,0.031,0.202,0.045
					c0.076,0.018,0.153,0.039,0.23,0.053c0.18,0.033,0.359,0.061,0.544,0.083c0.063,0.009,0.13,0.014,0.195,0.021
					c0.034,0.003,0.066,0.006,0.102,0.011c0.061,0.006,0.121,0.014,0.184,0.019c0.147,0.012,0.296,0.019,0.445,0.025
					c0.144,0.004,0.286,0.007,0.428,0.005c0.012,0,0.024,0,0.036,0c0.011,0,0.023-0.001,0.033-0.001c0.116,0,0.23-0.004,0.348-0.01
					c0.137-0.004,0.271-0.014,0.409-0.024c0.121-0.011,0.241-0.023,0.361-0.038c0.009,0,0.017-0.002,0.024-0.002
					c0.009-0.003,0.015-0.003,0.024-0.004c0.137-0.018,0.275-0.036,0.41-0.06c0.144-0.024,0.285-0.052,0.425-0.081
					c0.067-0.014,0.135-0.032,0.203-0.049c0.029-0.007,0.059-0.014,0.088-0.021c0.05-0.014,0.103-0.024,0.153-0.038
					c0.164-0.043,0.326-0.093,0.485-0.146c0.096-0.032,0.184-0.07,0.277-0.105c0.049-0.019,0.097-0.036,0.146-0.056
					c0.045-0.017,0.095-0.032,0.139-0.052c0.262-0.113,0.513-0.237,0.747-0.379c1.166-0.692,1.744-1.592,1.738-2.485l-0.52-84.635
					c0.006,0.894-0.572,1.793-1.739,2.485c-0.274,0.163-0.572,0.304-0.883,0.43c-0.05,0.021-0.1,0.039-0.148,0.056
					c-0.295,0.111-0.599,0.211-0.916,0.291c-0.03,0.006-0.058,0.014-0.087,0.02c-0.346,0.082-0.702,0.147-1.063,0.193
					c-0.009,0-0.018,0.002-0.025,0.002c-0.369,0.045-0.741,0.069-1.115,0.072c-0.012,0-0.024,0.002-0.036,0.002
					c-0.366,0.003-0.73-0.016-1.092-0.051c-0.034-0.003-0.069-0.007-0.102-0.01c-0.329-0.035-0.653-0.089-0.969-0.155
					c-0.067-0.015-0.136-0.029-0.203-0.046c-0.243-0.057-0.478-0.131-0.71-0.207c-0.104-0.036-0.214-0.065-0.314-0.104
					c-0.312-0.118-0.613-0.252-0.891-0.409c-0.271-0.153-0.507-0.321-0.719-0.497C634.298,302.379,634.258,302.344,634.221,302.31z"
					/>
				<g>
					<path fill="#9391EA" d="M635.059,302.911c-2.386-1.349-2.421-3.57-0.087-4.959c2.345-1.395,6.188-1.433,8.574-0.086
						c2.379,1.342,2.413,3.567,0.066,4.961C641.277,304.215,637.437,304.254,635.059,302.911z"/>
				</g>
			</g>
		</g>
		<path fill="#9796F7" d="M605.947,214.008l9.709-5.577l0,0c0.131-0.076,0.265-0.149,0.398-0.221
			c0.136-0.073,0.278-0.132,0.415-0.201c0.235-0.118,0.468-0.235,0.706-0.343c0.209-0.095,0.423-0.181,0.637-0.268
			c0.242-0.099,0.487-0.194,0.735-0.283c0.089-0.031,0.173-0.071,0.264-0.102c0.132-0.044,0.27-0.076,0.401-0.117
			c0.248-0.078,0.497-0.152,0.751-0.22c0.229-0.062,0.46-0.116,0.693-0.169c0.257-0.058,0.515-0.111,0.776-0.159
			c0.113-0.021,0.222-0.051,0.334-0.07c0.123-0.02,0.25-0.028,0.373-0.047c0.28-0.041,0.564-0.076,0.849-0.105
			c0.239-0.025,0.479-0.046,0.72-0.063c0.292-0.02,0.583-0.032,0.879-0.041c0.145-0.004,0.284-0.019,0.431-0.02
			c0.095,0,0.193,0.009,0.287,0.009c0.359,0.001,0.723,0.016,1.087,0.033c0.219,0.012,0.436,0.02,0.658,0.036
			c0.412,0.032,0.833,0.082,1.253,0.134c0.149,0.019,0.295,0.026,0.446,0.048c0.024,0.004,0.052,0.011,0.078,0.015
			c0.668,0.099,1.346,0.229,2.032,0.382c0.179,0.04,0.361,0.089,0.539,0.133c0.528,0.129,1.06,0.272,1.596,0.433
			c0.12,0.036,0.236,0.06,0.355,0.097c0.125,0.039,0.252,0.089,0.377,0.129c0.311,0.101,0.623,0.209,0.937,0.321
			c0.291,0.104,0.58,0.208,0.874,0.321c0.316,0.122,0.635,0.251,0.954,0.385c0.294,0.122,0.589,0.247,0.886,0.378
			c0.321,0.144,0.644,0.295,0.966,0.45c0.301,0.142,0.6,0.285,0.901,0.438c0.324,0.165,0.653,0.339,0.98,0.515
			c0.202,0.107,0.397,0.202,0.599,0.313c0.212,0.117,0.424,0.237,0.638,0.359c1.126,0.647,2.234,1.364,3.337,2.112
			c0.289,0.197,0.575,0.397,0.861,0.599c0.979,0.692,1.947,1.416,2.901,2.182c0.12,0.096,0.24,0.182,0.36,0.278
			c0.852,0.695,1.694,1.414,2.523,2.163c0.148,0.135,0.29,0.288,0.438,0.424c0.674,0.62,1.332,1.274,1.99,1.929
			c0.502,0.499,1.007,0.98,1.498,1.497c0.668,0.702,1.313,1.438,1.957,2.172c0.379,0.428,0.775,0.83,1.145,1.268
			c0.095,0.112,0.185,0.231,0.279,0.344c0.192,0.232,0.379,0.47,0.569,0.704c0.763,0.931,1.505,1.882,2.232,2.853
			c0.21,0.282,0.422,0.56,0.629,0.844c0.133,0.181,0.27,0.353,0.4,0.536c0.691,0.963,1.358,1.949,2.013,2.943
			c0.145,0.219,0.285,0.439,0.428,0.66c0.258,0.4,0.522,0.796,0.775,1.202c0.248,0.4,0.469,0.818,0.711,1.223
			c0.494,0.815,0.975,1.635,1.439,2.466c0.172,0.309,0.364,0.604,0.533,0.915c0.21,0.388,0.393,0.785,0.596,1.173
			c0.41,0.783,0.812,1.569,1.199,2.363c0.169,0.349,0.362,0.689,0.527,1.04c0.177,0.373,0.323,0.756,0.495,1.132
			c0.361,0.796,0.711,1.595,1.047,2.4c0.159,0.378,0.342,0.75,0.494,1.129c0.139,0.346,0.247,0.696,0.381,1.042
			c0.339,0.873,0.655,1.748,0.962,2.626c0.145,0.415,0.317,0.826,0.455,1.241c0.164,0.502,0.311,1.003,0.467,1.505
			c0.067,0.222,0.141,0.444,0.206,0.668c0.316,1.059,0.617,2.119,0.883,3.18c0.06,0.245,0.104,0.488,0.164,0.732
			c0.088,0.372,0.167,0.74,0.25,1.111c0.243,1.092,0.456,2.178,0.643,3.265c0.055,0.318,0.118,0.637,0.166,0.953
			c0.024,0.151,0.058,0.302,0.078,0.452c0.128,0.845,0.196,1.68,0.285,2.52c0.052,0.483,0.127,0.969,0.164,1.449
			c0.115,1.441,0.182,2.871,0.182,4.28c-0.006,11.797-4.179,20.094-10.9,23.943l-9.71,5.576L605.947,214.008z"/>
		<path fill="#D9DFF6" d="M595.049,237.951c0.01-23.442,16.473-33.06,36.703-21.444c20.231,11.617,36.674,40.131,36.664,63.573
			c-0.012,23.442-16.475,33.06-36.706,21.445C611.481,289.907,595.036,261.394,595.049,237.951z M663.428,278
			c-0.365-20.476-14.886-45.645-32.359-56.11c-17.481-10.471-31.397-2.335-31.033,18.139c0.366,20.467,14.88,45.641,32.361,56.111
			C649.869,306.607,663.794,298.467,663.428,278"/>
		<path fill="#FFFFFF" d="M663.428,278c0.366,20.466-13.559,28.607-31.031,18.14c-17.481-10.471-31.995-35.645-32.361-56.111
			c-0.364-20.475,13.552-28.61,31.033-18.139C648.542,232.356,663.063,257.525,663.428,278"/>
		<path fill="#9391EA" d="M603.704,237.915c0.366,20.466,14.88,45.64,32.359,56.111c7.747,4.638,14.79,5.615,20.205,3.49
			c-5.676,4.501-14.231,4.4-23.872-1.375c-17.481-10.471-31.995-35.645-32.361-56.111c-0.203-11.399,4.025-18.967,10.825-21.636
			C606.252,222.049,603.541,228.738,603.704,237.915z"/>
	</g>
	<g>
		<path opacity="0.3" fill="#6642CC" d="M358.888,295.301l21.862,12.743c3.702,2.159,3.674,7.518-0.049,9.639l-3.731,2.125
			c-3.569,2.033-7.955,2.011-11.504-0.059l-21.862-12.743c-3.702-2.157-3.674-7.515,0.049-9.635l3.731-2.127
			C350.954,293.212,355.339,293.232,358.888,295.301z"/>
		<g>
			<g>
				<path fill="#130159" d="M350.347,298.96c0,0,0.901-3.002,6.247-2.019c0.885,0.162,1.812,3.856,1.812,3.856l9.766,2.94
					c0,0-18.521,6.92-18.357,3.952C350.059,303.259,350.347,298.96,350.347,298.96z"/>
				<path fill="#5601F3" d="M347.384,221.084l2.96,78.698c1.773,2.408,7.784,0.383,7.784,0.383
					c0.303-2.32,6.031-74.864,6.031-74.864L347.384,221.084z"/>
			</g>
			<g>
				<path fill="#F4C5A2" d="M384.985,173.712c1.258,0.569,1.47-0.861,1.64-1.98c0.071-0.467,0.332-1.614,0.451-1.674
					c0.219-0.111,0.529,1.238,0.727,0.853c0.128-0.257,2.606-3.85,4.48-1.736c0.974,1.098-1.82,4.618-2.917,5.146
					c-2.114,1.019-2.511,0.021-3.864,1.659L384.985,173.712z"/>
				<path fill="#00CDC4" d="M365.077,176.415c5.171,3.457,9.583,4.035,9.583,4.035l11.484-8.268c0,0,1.544-0.641,2.098,3.149
					c0,0-11.77,13.389-14.368,13.715c-2.602,0.326-6.39-1.553-12.564-4.962C350.857,178.313,359.669,172.798,365.077,176.415z"/>
			</g>
			<g>
				<path fill="#130159" d="M359.867,302.874c0,0,0.9-3.005,6.246-2.021c0.886,0.163,1.813,3.856,1.813,3.856l9.765,2.94
					c0,0-18.52,6.922-18.356,3.952C359.578,307.171,359.867,302.874,359.867,302.874z"/>
				<path fill="#681EF7" d="M356.947,227.231l2.958,76.297c1.773,2.407,7.784,0.381,7.784,0.381
					c0.303-2.32,6.031-74.863,6.031-74.863L356.947,227.231z"/>
			</g>
			<g>
				<polygon fill="#FED4BD" points="365.548,167.401 366.713,174.604 359.905,174.133 361.24,168.048 				"/>
				<polygon fill="#FFFFFF" points="368.932,173.079 359.231,171.867 358.126,175.785 369.314,176.302 				"/>
				<path fill="#FED4BD" d="M367.914,161.999c0.495,3.435-0.455,7.188-4.146,6.951c-2.81-0.182-5.448-2.054-5.946-5.488
					c-0.498-3.435,1.357-6.547,4.143-6.95C364.752,156.106,367.415,158.564,367.914,161.999z"/>
				<path fill="#3D00BD" d="M360.732,169.514c0,0,1.281,1.026,3.036-0.564c0,0,1.013-2.219,0.976-3.309
					c-0.03-0.886-1.275-2.002-0.983-2.763c0.563-1.475,1.936-1.204,2.315,1.683c0.16-1.361,7.415-4.886,2.896-8.169
					c-5.863-4.26-14.798-0.509-11.703,4.987C354.646,162.122,358.546,167.106,360.732,169.514z"/>
			</g>
			<path fill="#01E4D0" d="M372.295,179.496c1.169,3.863,2.81,36.004,5.336,47.964c-4.698,6.02-26.495,7.34-32.692,0.316
				c0,0,1.773-23.661,8.292-45.729C355.986,172.711,364.392,169.575,372.295,179.496z"/>
			<g>
				<path fill="#F4C5A2" d="M396.543,181.803c1.799,0.356,2.39-1.881,2.9-2.972c1.76-3.761,1.397-1.069,1.662-1.006
					c0.698,0.163,3.864-1.363,4.267,0.354c0.449,1.922-2.051,3.285-3.474,4.044c-2.736,1.464-2.712-0.116-4.321,1.853
					L396.543,181.803z"/>
				<path fill="#01E4D0" d="M370.16,176.803c8.939,9.552,9.748,10.683,9.748,10.683l18.364-7.626c0,0,3.503,0.448,2.259,4.324
					c0,0-17.002,14.401-21.208,14.14c-4.205-0.262-9.675-6.567-15.782-13.436C355.363,175.689,364.44,170.689,370.16,176.803z"/>
			</g>
		</g>
	</g>
	<g>
		<g>
			<path opacity="0.5" fill="#BBB8F6" d="M109.771,258.03c-56.084,0-101.542,24.722-101.542,55.211
				c0,30.485,45.458,55.207,101.542,55.207c56.072,0,101.532-24.722,101.532-55.207C211.302,282.752,165.842,258.03,109.771,258.03z
				 M109.77,346.499c-40.479,0-73.29-14.893-73.29-33.261c0-18.366,32.811-33.258,73.29-33.258
				c40.471,0,73.282,14.892,73.282,33.258C183.051,331.606,150.24,346.499,109.77,346.499z"/>
			<path fill="#8285DF" d="M209.24,274.156c0,0-15.024-37.252-99.475-37.252S10.29,291.516,10.29,291.516v18.74
				c0,29.868,44.536,54.088,99.48,54.088c54.933,0,99.47-24.22,99.47-54.088V274.156z M109.77,342.839
				c-39.658,0-71.802-14.59-71.802-32.583s32.144-32.585,71.802-32.585c39.648,0,71.794,14.592,71.794,32.585
				S149.417,342.839,109.77,342.839z"/>
			<path fill="#B3B8F6" d="M109.771,220.067c-54.945,0-99.48,24.22-99.48,54.089c0,29.866,44.536,54.087,99.48,54.087
				c54.933,0,99.47-24.221,99.47-54.087C209.24,244.287,164.704,220.067,109.771,220.067z M109.77,306.738
				c-39.658,0-71.802-14.589-71.802-32.582c0-17.994,32.144-32.584,71.802-32.584c39.648,0,71.794,14.59,71.794,32.584
				C181.564,292.149,149.417,306.738,109.77,306.738z"/>
		</g>
		<g>
			<path fill="#F6BF03" d="M169.854,306.829c-12.823,8.884-34.938,14.759-60.084,14.759c-0.627,0-1.247-0.017-1.87-0.022v42.752
				c0.625,0.005,1.244,0.026,1.871,0.026c37.261,0,69.719-11.151,86.76-27.642c0-6.902,0-36.101,0-36.101
				S172.694,307.722,169.854,306.829z"/>
		</g>
		<g>
			<path fill="#F6DD03" d="M169.854,291.981c-12.823,8.885-34.938,14.757-60.084,14.757c-0.627,0-1.247-0.014-1.87-0.02v21.499
				c0.625,0.006,1.244,0.025,1.871,0.025c37.261,0,69.719-11.151,86.76-27.642c-6.059-1.951-12.104-3.955-18.151-5.944
				C175.544,293.727,172.694,292.873,169.854,291.981z"/>
		</g>
		<g>
			<path fill="#00CDC4" d="M108.312,327.793c-34.565,1.229-71.856-18.318-70.268-37.4c-9.272,0-27.754-14.846-27.754-14.846v34.73
				c0,29.602,43.752,53.641,98.021,54.067V327.793z"/>
			<path fill="#01E4D0" d="M108.313,306.722c-37.96-0.343-68.682-14.049-70.269-31.175H10.354
				c1.349,28.959,44.543,52.257,97.958,52.677V306.722z"/>
		</g>
	</g>
	<path opacity="0.5" fill="#BBB8F6" d="M197.508,352.384l3.445,1.962c3.438,1.958,3.462,6.904,0.045,8.897l-20.184,11.765
		c-3.279,1.91-7.324,1.932-10.622,0.053l-3.445-1.961c-3.438-1.957-3.463-6.906-0.043-8.898l20.184-11.764
		C190.164,350.526,194.211,350.505,197.508,352.384z"/>
	<g>
		<path opacity="0.3" fill="#6642CC" d="M439.317,334.056l3.444,1.962c3.438,1.96,3.464,6.906,0.045,8.899l-20.185,11.764
			c-3.276,1.911-7.324,1.933-10.622,0.054l-3.444-1.961c-3.438-1.959-3.463-6.906-0.044-8.898l20.185-11.765
			C431.973,332.199,436.021,332.179,439.317,334.056z"/>
		<path fill="#F4C5A2" d="M417.826,238.854c0,0-4.003-2.002-4.501-2.509c-0.501-0.507-2.245-2.616-3.392-2.687
			c-0.717-0.044-0.133,0.564,0.365,1.365c1.149,1.849-3.008-1.729-3.998-0.291c-0.634,0.92-0.073,4.368,4.761,5.267
			c2.038,0.378,4.124,2.1,4.985,2.39L417.826,238.854z"/>
		<path fill="#F6DD03" d="M429.294,230.098c1.821,10.166,4.206,15.64,4.206,15.64l-20.052-9.915c0,0-4.146-0.846-2.347,4.824
			c0,0,25.567,17.02,34.136,11.467c4.565-2.959-1.309-24.869-8.414-28.426C433.038,222.477,427.766,221.564,429.294,230.098z"/>
		<polygon fill="#FED4BD" points="423.869,216.591 423.869,224.012 429.758,223.3 427.536,215.747 		"/>
		<polygon fill="#FFFAFF" points="423.926,220.503 429.635,219.689 431.001,222.885 422.666,224.134 		"/>
		<path fill="#130159" d="M437.18,338.491c0,0-2.328-0.973-7.078,0.459c-3.175,0.958-10.447,3.596-10.447,3.596
			s17.53,4.79,17.547,2.075C437.23,340.572,437.18,338.491,437.18,338.491z"/>
		<path fill="#130159" d="M427.126,343.689c0,0-2.153-0.134-7.078,0.46c-2.098,0.252-10.446,3.594-10.446,3.594
			s17.529,4.791,17.548,2.076C427.177,345.771,427.126,343.689,427.126,343.689z"/>
		<path fill="#5601F3" d="M442.609,265.766l-4.059,73.48c0,0-3.845,1.804-9.291-0.618l-0.528-71.512L442.609,265.766z"/>
		<path fill="#681EF7" d="M434.055,268.348l-5.726,76.845c-8.019,0.909-8.473-1.544-8.473-1.544
			c0.454-4.388-1.699-78.626-1.699-78.626L434.055,268.348z"/>
		<path fill="#FED4BD" d="M419.846,211.542c0.34,3.446,2.16,6.855,5.677,5.74c2.679-0.847,4.787-3.292,4.447-6.738
			c-0.34-3.447-2.882-6.017-5.678-5.742C421.496,205.078,419.505,208.096,419.846,211.542z"/>
		<path fill="#3D00BD" d="M428.598,217.102c0,0-0.993,1.3-3.075,0.18c0,0-1.512-1.906-1.737-2.971
			c-0.182-0.866,0.758-2.245,0.293-2.913c-0.899-1.294-2.163-0.703-1.841,2.185c-0.48-1.28-8.353-2.958-4.761-7.22
			c4.66-5.529,14.214-4.036,12.531,2.031C432.727,208.485,430.14,214.247,428.598,217.102z"/>
		<path fill="#F6BF03" d="M416.75,227.238c0,0,1.54,29.308,1.54,45.205c5.87,5.296,25.173,0.76,26.464-2.334
			c1.292-3.093-0.613-5.796-1.119-9.442c-1.619-11.652-0.082-26.988-3.208-32.817C436.2,219.971,426.243,219.393,416.75,227.238z"/>
		<g>
			<polygon fill="#3D00BD" points="423.615,284.24 404.435,272.732 404.435,291.011 423.256,301.99 			"/>
			<path fill="#7676E5" d="M404.933,279.697c0,0-0.955-0.609-0.955-0.491c0,0.12,0,6.042,0,6.042l0.955,0.397V279.697z"/>
		</g>
		<path fill="#F4C5A2" d="M410.769,280.729c-1.607,2.097-2.826,8.497,1.063,9.233c1.14,0.216,3.323-4.205,3.535-7.675"/>
		<path fill="#F6DD03" d="M414.246,232.475c1.63-8.515,7.872-8.624,8.813,5.461c0.479,7.156,0.293,11.068-0.723,19.923
			c-0.764,6.647-6.056,26.03-6.091,26.059c-0.713,0.603-6.213-1.974-6.369-4.084c2.694-8.764,3.423-11.401,4.265-22.869
			C414.854,247.243,413.002,238.987,414.246,232.475z"/>
	</g>
	<g>
		<path fill="#3D00BD" d="M128.55,247.472c-0.538,3.286-1.673,8.578-2.211,11.862c-0.191,1.159-0.381,2.338-0.245,3.506
			c0.136,1.167,0.644,2.343,1.6,3.025c1.238,0.885,2.904,0.769,4.417,0.616c2.267-0.229,4.534-0.458,6.801-0.688
			c1.167-0.116,2.353-0.239,3.441-0.679c1.088-0.437,2.085-1.244,2.477-2.35c0.485-1.371-0.031-2.872-0.544-4.235
			c-0.904-2.398-1.808-4.797-2.712-7.196c-0.42-1.114-0.841-2.232-1.382-3.292"/>
		<polygon fill="#130159" points="171.368,357.152 171.052,364.337 185.167,370.461 178.313,359.794 176.489,355.606 		"/>
		<polygon fill="#130159" points="181.98,352.493 181.665,359.676 197.041,361.448 188.926,355.132 187.101,350.946 		"/>
		<path fill="#5601F3" d="M136.935,295.091c-2.456,10.28,3.057,12.572,9.363,14.848c6.757,2.44,20.268,4.445,20.268,4.445
			l14.512,39.453c2.502,1.79,5.151,1.162,7.902-1.15l-12.282-45.002l-24.27-13.555L136.935,295.091z"/>
		<path fill="#681EF7" d="M130.432,300.079c-2.456,10.28,3.058,12.572,9.364,14.848c6.757,2.44,20.267,4.445,20.267,4.445
			l9.996,38.68c2.097,1.905,4.947,1.621,8.254,0l-9.611-44.813l-21.885-14.093L130.432,300.079z"/>
		<path fill="#F70083" d="M154.526,295.3c-0.417-2.753-5.916-2.081-5.388-14.1c0.34-7.76-0.926-17.767-5.281-20.079
			c-3.661-1.942-11.093,1.474-13.07,2.732c-4.206,2.678-2.077,4.265-2.977,9.169c-0.899,4.905-0.595,26.726-0.595,31.712
			c0,1.901,17.124,5.756,26.295-6.154"/>
		<g>
			<path fill="#827FDE" d="M153.386,312.349c-1.165-0.677-10.889-6.333-12.903-7.505c-0.166-0.097-0.158-0.332,0.007-0.429
				l23.641-13.737c0.078-0.045,0.174-0.045,0.251,0l12.882,7.494c0.165,0.097,0.165,0.337,0,0.433l-23.64,13.737
				C153.549,312.387,153.463,312.395,153.386,312.349z"/>
			<path fill="#DFE3FF" d="M177.171,298.225l-23.516,13.666c-0.098,0.055-0.217,0.055-0.314,0l-12.756-7.423
				c-0.208-0.12-0.208-0.42,0-0.542l23.515-13.665c0.098-0.057,0.217-0.057,0.314,0l12.757,7.422
				C177.377,297.805,177.377,298.104,177.171,298.225z"/>
		</g>
		<path fill="#FED4BD" d="M161.389,292.254c2.142,0.467,6.087,3.116,5.686,3.881c-0.4,0.763-2.482,2.643-7.367-1.94
			C154.821,289.61,161.389,292.254,161.389,292.254z"/>
		<path fill="#F1539A" d="M151.922,292.229l7.758,3.586c0.187-1.839,2.088-2.723,4.14-2.735l-12.896-8.62l-1.786-6.441
			c0,0-0.062,4.466,0,6.203C149.257,287.617,150.118,290.609,151.922,292.229z"/>
		<path fill="#FED4BD" d="M134.651,263.107c-0.112,1.701,4.843,0.677,4.189-0.664c-0.329-1.805-0.658-3.608-0.987-5.413
			c-0.109-0.599-0.229-1.22-0.593-1.708c-1.373-1.833-2.416-0.429-2.495,1.048C134.645,258.608,134.689,260.866,134.651,263.107z"/>
		<path fill="#FED4BD" d="M140.933,252.319c0.61-1.839,0.772-3.895,0.054-5.693c-0.72-1.8-2.444-3.261-4.381-3.304
			c-2.061-0.045-3.919,1.511-4.713,3.414c-0.794,1.902-0.69,4.066-0.252,6.082c0.366,1.682,1.007,3.394,2.314,4.515
			C137.81,260.633,139.931,255.334,140.933,252.319z"/>
		<path fill="#3D00BD" d="M136.336,249.928c0.005,0.699,0.551,1.357,1.238,1.491s1.439-0.273,1.707-0.918
			c0.167,0.762,1.065,1.222,1.828,1.053s1.348-0.835,1.591-1.578c0.244-0.743,0.191-1.55,0.046-2.319
			c-0.143-0.752-0.373-1.485-0.685-2.185c-0.332-0.745-0.76-1.451-1.317-2.047c-1.355-1.442-5.371-2.363-7.332-0.661
			c-4.01-0.512-4.943,3.246-4.994,6.511c-0.274,1.812,1.039,3.178,1.608,4.92c0.314,0.963,1.114,1.316,2.118,1.17
			c0.854-0.125-1.428-1.909-0.954-4.174c0.247-1.177,1.417,1.441,1.818,1.298c-0.025,0.009,0.313-2.565,0.401-2.708
			C134.201,250.374,135.521,251.321,136.336,249.928z"/>
		<path fill="#FED4BD" d="M146.523,300.468c2.142,0.468,6.088,3.115,5.687,3.881c-0.401,0.765-2.483,2.644-7.369-1.94
			S146.523,300.468,146.523,300.468z"/>
		<path fill="#F1539A" d="M129.922,264.645c-6.1,1.033-5.229,23.826-3.088,28.385c2.141,4.56,17.949,10.405,17.949,10.405
			c0.6-2.081,1.652-3.176,3.099-3.414l-15.056-11.012c0,0-0.032-9.995,0.077-13.576C132.975,272.988,135.098,263.77,129.922,264.645
			z"/>
		<g>
			<path fill="#8285DF" d="M153.165,311.451c0.893-3.006,3.708-12.49,4.208-14.177c0.051-0.17,0.162-0.307,0.316-0.397l23.07-13.405
				c0.297-0.174,0.654,0.107,0.556,0.437l-4.207,14.165c-0.05,0.17-0.163,0.314-0.316,0.404l-23.07,13.406
				C153.425,312.056,153.068,311.781,153.165,311.451z"/>
			<path fill="#D9DFF6" d="M153.769,311.721c0.891-3.006,3.708-12.49,4.209-14.178c0.051-0.169,0.162-0.306,0.314-0.396
				l23.07-13.406c0.299-0.174,0.655,0.107,0.557,0.438l-4.207,14.165c-0.05,0.169-0.165,0.313-0.318,0.404l-23.068,13.405
				C154.028,312.325,153.67,312.05,153.769,311.721z"/>
		</g>
	</g>
	<g>
		<path opacity="0.5" fill="#BBB8F6" d="M260.119,348.521c2.163-1.248,5.653-1.248,7.795-0.004l150.851,87.665
			c2.142,1.244,2.131,3.266-0.033,4.514l-112.906,64.361c-2.163,1.249-5.653,1.249-7.795,0.003L147.18,417.396
			c-2.141-1.244-2.13-3.266,0.033-4.514L260.119,348.521z"/>
		<g>
			<path fill="#B4B9F6" d="M260.503,346.739c2.127-1.228,5.559-1.228,7.665-0.004l148.313,86.19
				c2.106,1.224,2.096,3.211-0.032,4.438l-111.006,63.28c-2.128,1.227-5.56,1.227-7.665,0.004l-148.313-86.191
				c-2.106-1.223-2.095-3.21,0.032-4.439L260.503,346.739z"/>
			<path fill="#FFFFFF" d="M262.104,352.226c1.975-1.141,5.162-1.141,7.118-0.004l137.739,80.045
				c1.956,1.136,1.945,2.982-0.03,4.124L303.84,495.155c-1.975,1.143-5.161,1.143-7.118,0.006l-137.739-80.047
				c-1.956-1.137-1.945-2.981,0.03-4.122L262.104,352.226z"/>
			<path fill="#9796F7" d="M241.93,351.567c1.522-0.878,3.978-0.878,5.484-0.002l5.762,3.529c1.509,0.876,1.5,2.298-0.022,3.176
				l-79.429,45.277c-1.522,0.878-3.978,0.878-5.485,0.003l-5.762-3.529c-1.508-0.875-1.5-2.297,0.022-3.177L241.93,351.567z"/>
			<g>
				<path fill="#DFE3FF" d="M288.518,479.032c-0.583,0-1.149-0.3-1.461-0.83c-0.465-0.795-0.186-1.812,0.618-2.271l89.331-50.817
					c0.811-0.46,1.834-0.185,2.299,0.607c0.466,0.795,0.188,1.812-0.615,2.268l-89.331,50.82
					C289.09,478.96,288.804,479.032,288.518,479.032z M275.965,471.397c-0.581,0-1.147-0.298-1.459-0.829
					c-0.465-0.795-0.188-1.813,0.616-2.268l89.33-50.82c0.808-0.461,1.835-0.186,2.301,0.607c0.466,0.795,0.188,1.812-0.617,2.271
					l-89.33,50.817C276.54,471.327,276.25,471.397,275.965,471.397z M263.414,463.767c-0.583,0-1.149-0.299-1.461-0.831
					c-0.465-0.795-0.188-1.813,0.618-2.27l89.332-50.821c0.811-0.46,1.837-0.184,2.301,0.607c0.465,0.795,0.188,1.813-0.616,2.271
					l-89.333,50.821C263.986,463.693,263.698,463.767,263.414,463.767z M250.861,456.133c-0.582,0-1.147-0.298-1.46-0.831
					c-0.465-0.795-0.188-1.813,0.617-2.269l89.33-50.821c0.806-0.46,1.833-0.185,2.3,0.607c0.465,0.795,0.188,1.813-0.616,2.271
					l-89.331,50.821C251.436,456.062,251.147,456.133,250.861,456.133z M238.308,448.5c-0.582,0-1.148-0.299-1.46-0.832
					c-0.465-0.794-0.188-1.812,0.616-2.269l89.333-50.821c0.809-0.458,1.834-0.186,2.302,0.607c0.465,0.795,0.187,1.812-0.618,2.271
					l-89.332,50.822C238.882,448.429,238.594,448.5,238.308,448.5z M225.757,440.866c-0.583,0-1.147-0.298-1.46-0.831
					c-0.467-0.796-0.187-1.813,0.617-2.269l89.33-50.821c0.808-0.457,1.833-0.185,2.3,0.609c0.465,0.793,0.188,1.81-0.616,2.268
					l-89.331,50.822C226.33,440.796,226.043,440.866,225.757,440.866z M213.205,433.231c-0.581,0-1.147-0.298-1.46-0.83
					c-0.464-0.795-0.187-1.812,0.617-2.27l89.33-50.82c0.807-0.458,1.835-0.186,2.302,0.609c0.465,0.795,0.188,1.811-0.618,2.269
					l-89.33,50.819C213.779,433.16,213.491,433.231,213.205,433.231z M200.652,425.599c-0.583,0-1.149-0.3-1.461-0.83
					c-0.465-0.795-0.187-1.812,0.618-2.271l89.332-50.819c0.811-0.458,1.834-0.183,2.299,0.609c0.465,0.795,0.188,1.812-0.616,2.268
					l-89.332,50.82C201.225,425.526,200.937,425.599,200.652,425.599z M188.1,417.964c-0.582,0-1.147-0.298-1.459-0.829
					c-0.465-0.795-0.188-1.812,0.616-2.27l89.33-50.82c0.805-0.456,1.833-0.184,2.3,0.609c0.467,0.795,0.188,1.812-0.616,2.269
					l-89.33,50.819C188.674,417.894,188.385,417.964,188.1,417.964z"/>
			</g>
		</g>
	</g>
	<g>
		<path opacity="0.5" fill="#BBB8F6" d="M406.841,554.327l-59.069-34.104c-2.877-1.66-2.877-5.813,0-7.473l86.743-50.082
			c4.843-2.796,10.809-2.796,15.651,0l53.444,30.855c5.054,2.919,5.054,10.215,0,13.132l-82.569,47.672
			C416.648,556.863,411.235,556.863,406.841,554.327z"/>
		<path fill="#9796F7" d="M505.042,491.573l-3.621,0.529l-59.565-34.388l-88.813,51.276v-0.99l-5.033-0.163v5.07
			c0,2.155,1.15,4.148,3.016,5.228l56.064,32.452c4.501,2.603,10.046,2.611,14.555,0.021l80.091-46.097
			c2.044-1.177,3.307-3.357,3.307-5.718V491.573z"/>
		<path fill="#B4B9F6" d="M407.587,544.695L350,511.447c-2.652-1.531-2.652-5.359,0-6.89l84.378-48.716
			c4.627-2.671,10.327-2.671,14.954,0l52.138,30.101c4.761,2.75,4.761,9.621,0,12.371l-80.335,46.382
			C416.943,547.114,411.778,547.114,407.587,544.695z"/>
		<g>
			<path fill="#D9DFF6" d="M494.716,488.232l-46.235-26.694c-4.676-2.7-10.438-2.7-15.114,0l0,0c-3.345,1.932-3.345,6.761,0,8.692
				l46.237,26.694c4.676,2.7,10.437,2.7,15.112,0l0,0C498.063,494.992,498.063,490.164,494.716,488.232z"/>
			<path fill="#9796F7" d="M413.531,486.994l-9.881-5.704c-1.038-0.599-1.038-2.094,0-2.692l9.881-5.705
				c0.481-0.277,1.072-0.277,1.554,0l9.883,5.705c1.036,0.599,1.036,2.094,0,2.692l-9.883,5.704
				C414.604,487.272,414.013,487.272,413.531,486.994z"/>
			<path fill="#9796F7" d="M429.67,496.312l-9.882-5.705c-1.036-0.597-1.036-2.093,0-2.692l9.882-5.705
				c0.479-0.276,1.071-0.276,1.555,0l9.881,5.705c1.036,0.6,1.036,2.096,0,2.692l-9.881,5.705
				C430.744,496.59,430.149,496.59,429.67,496.312z"/>
			<path fill="#9796F7" d="M445.808,505.63l-9.881-5.705c-1.037-0.598-1.037-2.094,0-2.692l9.881-5.704
				c0.48-0.277,1.074-0.277,1.555,0l9.882,5.704c1.036,0.599,1.036,2.095,0,2.692l-9.882,5.705
				C446.882,505.908,446.288,505.908,445.808,505.63z"/>
			<path fill="#01E4D0" d="M461.947,514.947l-9.883-5.705c-1.036-0.599-1.036-2.093,0-2.691l9.882-5.706
				c0.479-0.277,1.073-0.277,1.555,0l9.881,5.706c1.036,0.599,1.036,2.093,0,2.691l-9.881,5.705
				C463.02,515.226,462.426,515.226,461.947,514.947z"/>
			<path fill="#D9DFF6" d="M397.227,496.407l-9.881-5.705c-1.036-0.597-1.036-2.093,0-2.692l9.881-5.705
				c0.482-0.277,1.074-0.277,1.555,0l9.882,5.705c1.036,0.6,1.036,2.096,0,2.692l-9.882,5.705
				C398.301,496.687,397.709,496.687,397.227,496.407z"/>
			<path fill="#D9DFF6" d="M413.366,505.726l-9.883-5.705c-1.036-0.599-1.036-2.095,0-2.691l9.882-5.706
				c0.479-0.277,1.073-0.277,1.555,0l9.881,5.706c1.036,0.597,1.036,2.093,0,2.691l-9.881,5.705
				C414.438,506.004,413.847,506.004,413.366,505.726z"/>
			<path fill="#D9DFF6" d="M429.505,515.042l-9.881-5.704c-1.038-0.599-1.038-2.095,0-2.691l9.881-5.705
				c0.48-0.278,1.072-0.278,1.553,0l9.883,5.705c1.037,0.598,1.037,2.093,0,2.691l-9.883,5.704
				C430.577,515.32,429.985,515.32,429.505,515.042z"/>
			<path fill="#D9DFF6" d="M445.642,524.359l-9.88-5.705c-1.036-0.597-1.036-2.093,0-2.691l9.88-5.706
				c0.481-0.276,1.075-0.276,1.557,0l9.881,5.706c1.036,0.599,1.036,2.095,0,2.691l-9.881,5.705
				C446.717,524.638,446.123,524.638,445.642,524.359z"/>
			<path fill="#D9DFF6" d="M380.924,505.822l-9.881-5.706c-1.036-0.599-1.036-2.095,0-2.691l9.881-5.705
				c0.48-0.278,1.072-0.278,1.555,0l9.882,5.705c1.036,0.597,1.036,2.093,0,2.691l-9.882,5.706
				C381.996,506.099,381.404,506.099,380.924,505.822z"/>
			<path fill="#D9DFF6" d="M397.062,515.138l-9.881-5.705c-1.036-0.599-1.036-2.093,0-2.691l9.881-5.705
				c0.48-0.277,1.074-0.277,1.556,0l9.881,5.705c1.035,0.599,1.035,2.093,0,2.691l-9.881,5.705
				C398.136,515.416,397.542,515.416,397.062,515.138z"/>
			<path fill="#D9DFF6" d="M413.199,524.455l-9.881-5.705c-1.035-0.597-1.035-2.093,0-2.691l9.881-5.705
				c0.481-0.278,1.075-0.278,1.556,0l9.882,5.705c1.035,0.599,1.035,2.095,0,2.691l-9.882,5.705
				C414.274,524.732,413.683,524.732,413.199,524.455z"/>
			<path fill="#F6BF03" d="M411.915,542.539l-8.465-4.887c-1.167-0.675-1.167-2.361,0-3.035l24.768-14.3
				c1.175-0.677,2.622-0.677,3.797,0l8.462,4.886c1.169,0.675,1.169,2.362,0,3.037l-24.768,14.299
				C414.537,543.218,413.089,543.218,411.915,542.539z"/>
			<path fill="#D9DFF6" d="M364.62,515.234l-9.883-5.706c-1.035-0.599-1.035-2.095,0-2.691l9.883-5.705
				c0.481-0.278,1.073-0.278,1.555,0l9.88,5.705c1.036,0.597,1.036,2.093,0,2.691l-9.88,5.706
				C365.693,515.512,365.102,515.512,364.62,515.234z"/>
			<path fill="#D9DFF6" d="M380.759,524.551l-9.882-5.706c-1.038-0.598-1.038-2.093,0-2.69l9.882-5.705
				c0.48-0.278,1.072-0.278,1.554,0l9.883,5.705c1.035,0.598,1.035,2.094,0,2.69l-9.883,5.706
				C381.831,524.828,381.239,524.828,380.759,524.551z"/>
			<path fill="#D9DFF6" d="M396.896,533.87l-9.881-5.705c-1.035-0.6-1.035-2.096,0-2.694l9.881-5.705
				c0.481-0.276,1.075-0.276,1.555,0l9.882,5.705c1.036,0.599,1.036,2.095,0,2.694l-9.882,5.705
				C397.972,534.146,397.378,534.146,396.896,533.87z"/>
		</g>
	</g>
	<g>
		<g>
			<path opacity="0.5" fill="#BBB8F6" d="M211.542,282.195c0,6.792,10.367,12.297,23.159,12.297
				c12.789,0,23.156-5.505,23.156-12.297c0-6.787-10.367-12.292-23.156-12.292C221.909,269.904,211.542,275.409,211.542,282.195z"/>
			<path fill="#B3B8F6" d="M208.618,247.894l5.074,30.919c0.467,7.218,9.754,12.835,20.761,12.835
				c11.005,0,20.293-5.617,20.76-12.835l5.075-30.919H208.618z"/>
			<path fill="#9796F7" d="M208.618,242.098v7.989c0,8.541,11.566,15.467,25.835,15.467c14.269,0,25.835-6.926,25.835-15.467v-7.989
				H208.618z"/>
			<ellipse fill="#D9DFF6" cx="234.453" cy="242.098" rx="25.835" ry="15.466"/>
			<g>
				<path fill="#FFFFFF" d="M234.453,254.935c-14.078,0-23.886-6.765-23.886-12.837s9.809-12.837,23.886-12.837
					s23.886,6.765,23.886,12.837S248.53,254.935,234.453,254.935z"/>
				<path fill="#B3B8F6" d="M234.453,254.935c-14.078,0-23.886-6.765-23.886-12.837s9.809-12.837,23.886-12.837
					s23.886,6.765,23.886,12.837S248.53,254.935,234.453,254.935z"/>
			</g>
			<path fill="#8285DF" d="M234.453,238.016c-10.708,0-18.94,3.914-22.271,8.46c3.331,4.544,11.563,8.459,22.271,8.459
				c10.707,0,18.939-3.915,22.27-8.459C253.392,241.93,245.16,238.016,234.453,238.016z"/>
		</g>
		<path fill="#603EFF" d="M224.377,217.52c0.295-2.695,0.691-5.441,1.934-7.851c1.241-2.41,3.49-4.458,6.184-4.77
			c2.904-0.335,5.742,1.422,7.449,3.793c1.71,2.372,2.486,5.276,3.107,8.132c1.614,7.413,2.413,15.002,2.378,22.59
			c-0.012,2.744-0.179,5.641-1.675,7.942c-1.852,2.85-5.434,4.185-8.834,4.206c-2.43,0.014-7.963-0.401-9.779-2.269
			c-1.767-1.817-1.234-6.847-1.368-9.246C223.355,232.541,223.554,224.997,224.377,217.52z"/>
		<path fill="#603EFF" d="M217.081,225.958c-1.883-3.705-2.33-8.118-1.226-12.125c0.336-1.225,1.123-2.631,2.392-2.585
			c1.093,0.04,1.832,1.214,1.904,2.305c0.075,1.091-0.298,2.157-0.425,3.243c-0.321,2.769,1.144,5.663,3.563,7.044
			c1.24,0.708,2.689,1.045,3.815,1.921c1.338,1.042,2.058,2.824,1.82,4.502C227.725,238.744,218.745,229.232,217.081,225.958z"/>
		<path fill="#603EFF" d="M248.815,229.649c2.567-2.38,4.275-5.666,4.752-9.133c0.179-1.303,0.113-2.813-0.875-3.682
			c-1.104-0.971-2.937-0.632-3.991,0.392c-1.053,1.024-1.484,2.527-1.704,3.981c-0.221,1.453-0.282,2.948-0.78,4.331
			c-0.497,1.382-1.555,2.683-2.999,2.957c-1.604,0.304-3.472-0.658-4.789,0.304c-2.597,1.895-0.122,4.73,2.107,4.788
			C243.388,233.661,246.824,231.498,248.815,229.649z"/>
	</g>
	<g>
		<path opacity="0.5" fill="#BBB8F6" d="M136.771,440.712L136.771,440.712c1.979-1.125,4.405-1.112,6.372,0.03l98.844,57.442
			c4.265,2.479,4.235,8.649-0.054,11.085l0,0c-1.977,1.126-4.403,1.113-6.371-0.029l-98.843-57.442
			C132.453,449.319,132.482,443.148,136.771,440.712z"/>
		<g>
			<path fill="#B4B9F6" d="M230.026,486.774c0.293-0.094,0.58-0.158,0.851-0.186c0.026-0.002,0.052-0.005,0.077-0.007
				c0.293-0.022,0.573-0.011,0.835,0.042c0.014,0.003,0.027,0.006,0.042,0.01c0.267,0.058,0.519,0.148,0.748,0.282l-88.107-51.304
				c-0.01-0.003-0.019-0.01-0.029-0.016c-0.084-0.046-0.171-0.091-0.26-0.126c-0.088-0.038-0.18-0.069-0.274-0.098
				c-0.06-0.018-0.124-0.03-0.186-0.044c-0.015-0.001-0.027-0.006-0.042-0.008c-0.021-0.006-0.042-0.011-0.064-0.016
				c-0.103-0.018-0.207-0.03-0.314-0.036c-0.112-0.008-0.226-0.008-0.343-0.002c-0.037,0.002-0.076,0.008-0.112,0.011
				c-0.026,0.001-0.051,0.005-0.078,0.008c-0.066,0.006-0.13,0.009-0.197,0.02c-0.149,0.022-0.302,0.056-0.457,0.098
				c-0.064,0.017-0.132,0.046-0.197,0.067c-0.06,0.019-0.12,0.041-0.181,0.062c-0.078,0.029-0.153,0.048-0.233,0.08
				c-0.236,0.1-0.478,0.22-0.724,0.361c-0.331,0.19-0.653,0.421-0.968,0.672c-0.104,0.081-0.2,0.177-0.301,0.263
				c-0.15,0.133-0.305,0.254-0.451,0.398c-0.068,0.067-0.132,0.143-0.199,0.212c-0.058,0.061-0.114,0.12-0.17,0.182
				c-0.064,0.069-0.132,0.136-0.194,0.206c-0.144,0.166-0.284,0.338-0.42,0.514c-0.048,0.062-0.094,0.126-0.141,0.19
				c-0.024,0.032-0.049,0.066-0.072,0.099c-0.044,0.059-0.09,0.118-0.132,0.179c-0.103,0.147-0.204,0.297-0.3,0.447
				c-0.093,0.145-0.183,0.292-0.269,0.439c-0.007,0.013-0.015,0.026-0.021,0.039c-0.007,0.012-0.012,0.022-0.019,0.034
				c-0.07,0.119-0.138,0.241-0.203,0.365c-0.078,0.145-0.152,0.292-0.224,0.441c-0.063,0.131-0.123,0.265-0.182,0.398
				c-0.004,0.008-0.009,0.017-0.012,0.027c-0.004,0.007-0.008,0.016-0.012,0.024c-0.067,0.154-0.131,0.31-0.19,0.465
				c-0.063,0.161-0.121,0.324-0.176,0.489c-0.025,0.078-0.048,0.159-0.072,0.239c-0.011,0.035-0.021,0.069-0.032,0.104
				c-0.019,0.061-0.039,0.122-0.056,0.182c-0.054,0.198-0.104,0.396-0.146,0.592c-0.025,0.12-0.04,0.237-0.06,0.355
				c-0.011,0.06-0.022,0.123-0.032,0.184c-0.009,0.06-0.022,0.118-0.03,0.177c-0.044,0.341-0.067,0.678-0.066,1.005
				c0.004,1.635,0.583,2.784,1.514,3.326l88.106,51.301c-0.93-0.539-1.508-1.689-1.514-3.322c0-0.386,0.037-0.781,0.098-1.183
				c0.008-0.063,0.021-0.123,0.031-0.187c0.064-0.374,0.149-0.749,0.262-1.127c0.009-0.035,0.021-0.069,0.031-0.104
				c0.127-0.408,0.276-0.815,0.452-1.218c0.003-0.011,0.008-0.021,0.012-0.028c0.178-0.41,0.383-0.811,0.607-1.202
				c0.007-0.013,0.014-0.024,0.021-0.037c0.22-0.383,0.463-0.75,0.722-1.104c0.022-0.034,0.047-0.066,0.071-0.099
				c0.238-0.32,0.493-0.623,0.755-0.909c0.058-0.062,0.115-0.123,0.172-0.183c0.21-0.217,0.428-0.415,0.65-0.607
				c0.101-0.089,0.198-0.183,0.301-0.265c0.314-0.252,0.637-0.48,0.966-0.674c0.328-0.188,0.647-0.325,0.958-0.439
				C229.906,486.814,229.967,486.793,230.026,486.774z"/>
			<path fill="#9796F7" d="M135.696,443.892c0.008-0.059,0.021-0.117,0.03-0.176c0.01-0.062,0.021-0.125,0.032-0.185
				c0.02-0.118,0.035-0.236,0.06-0.355c0.042-0.195,0.091-0.394,0.146-0.592c0.017-0.06,0.037-0.121,0.056-0.182
				c0.011-0.035,0.021-0.069,0.032-0.104c0.024-0.08,0.047-0.161,0.072-0.241c0.055-0.163,0.113-0.326,0.176-0.487
				c0.06-0.155,0.124-0.311,0.19-0.465c0.004-0.009,0.008-0.018,0.012-0.026c0.003-0.009,0.007-0.018,0.012-0.025
				c0.059-0.134,0.119-0.268,0.182-0.398c0.072-0.149,0.146-0.297,0.224-0.441c0.065-0.124,0.133-0.246,0.203-0.365
				c0.007-0.012,0.012-0.022,0.019-0.034c0.007-0.013,0.014-0.026,0.021-0.039c0.086-0.147,0.175-0.295,0.269-0.439
				c0.096-0.15,0.197-0.3,0.299-0.447c0.043-0.061,0.088-0.12,0.133-0.179c0.023-0.035,0.048-0.066,0.072-0.099
				c0.047-0.064,0.092-0.129,0.141-0.19c0.136-0.176,0.276-0.348,0.42-0.514c0.063-0.07,0.13-0.137,0.194-0.206
				c0.057-0.062,0.113-0.121,0.17-0.182c0.067-0.069,0.131-0.145,0.199-0.212c0.146-0.145,0.301-0.266,0.451-0.398
				c0.101-0.086,0.197-0.182,0.301-0.263c0.314-0.251,0.636-0.481,0.968-0.672c0.246-0.142,0.488-0.262,0.724-0.361
				c0.08-0.032,0.155-0.051,0.233-0.08c0.061-0.021,0.121-0.043,0.181-0.062c0.065-0.021,0.133-0.051,0.197-0.067
				c0.154-0.042,0.307-0.075,0.457-0.098c0.067-0.011,0.131-0.014,0.197-0.02c0.026-0.003,0.052-0.007,0.077-0.008
				c0.037-0.003,0.076-0.009,0.113-0.011c0.117-0.006,0.231-0.006,0.343,0.002c0.107,0.006,0.211,0.019,0.314,0.036
				c0.022,0.005,0.043,0.01,0.064,0.016c0.015,0.002,0.027,0.007,0.042,0.008c0.062,0.014,0.125,0.026,0.186,0.044
				c0.094,0.028,0.186,0.06,0.274,0.098c0.089,0.035,0.176,0.08,0.26,0.126c0.01,0.006,0.019,0.013,0.029,0.016l4.692,2.733
				c-0.006,0-0.011-0.001-0.018,0c-0.04,0-0.082,0.01-0.121,0.011c-0.028,0.004-0.055,0.007-0.082,0.01
				c-0.072,0.006-0.14,0.01-0.213,0.021c-0.16,0.024-0.323,0.06-0.489,0.104c-0.068,0.019-0.141,0.051-0.21,0.071
				c-0.064,0.021-0.128,0.043-0.194,0.067c-0.084,0.029-0.164,0.051-0.249,0.087c-0.254,0.106-0.514,0.234-0.777,0.385
				c-0.356,0.206-0.701,0.452-1.038,0.721c-0.11,0.088-0.214,0.189-0.322,0.283c-0.162,0.141-0.328,0.272-0.484,0.425
				c-0.074,0.073-0.142,0.152-0.214,0.229c-0.062,0.064-0.122,0.129-0.182,0.194c-0.069,0.074-0.142,0.144-0.209,0.222
				c-0.155,0.177-0.305,0.361-0.45,0.549c-0.052,0.066-0.101,0.136-0.15,0.205c-0.027,0.035-0.052,0.069-0.078,0.105
				c-0.048,0.063-0.097,0.125-0.142,0.191c-0.111,0.158-0.219,0.316-0.322,0.48c-0.1,0.154-0.195,0.313-0.288,0.47
				c-0.008,0.014-0.015,0.029-0.022,0.043c-0.007,0.011-0.014,0.023-0.021,0.035c-0.074,0.129-0.148,0.262-0.217,0.391
				c-0.084,0.158-0.164,0.316-0.241,0.474c-0.068,0.142-0.132,0.283-0.194,0.428c-0.005,0.011-0.009,0.019-0.013,0.029
				c-0.004,0.009-0.009,0.017-0.013,0.026c-0.072,0.167-0.14,0.331-0.204,0.498c-0.067,0.175-0.13,0.349-0.188,0.525
				c-0.028,0.085-0.052,0.171-0.078,0.257c-0.012,0.037-0.023,0.075-0.035,0.111c-0.019,0.065-0.042,0.13-0.059,0.196
				c-0.059,0.212-0.111,0.423-0.156,0.635c-0.027,0.127-0.043,0.252-0.065,0.379c-0.011,0.065-0.023,0.132-0.034,0.199
				c-0.01,0.063-0.024,0.125-0.033,0.188c-0.047,0.365-0.071,0.727-0.07,1.078c0.002,0.875,0.158,1.621,0.438,2.22l-4.583-2.667
				c-0.93-0.542-1.509-1.691-1.514-3.326C135.629,444.569,135.651,444.232,135.696,443.892z"/>
			<g>
				<path fill="#FFFFFF" d="M228.888,487.275c1.43-0.824,2.729-0.905,3.669-0.371c0.94,0.534,12.611,17.377,12.611,17.377
					s-18.963-4.21-19.902-4.748c-0.939-0.537-1.524-1.69-1.529-3.332C223.728,492.929,226.042,488.921,228.888,487.275z"/>
			</g>
			<path fill="#9796F7" d="M240.394,497.457c2.569,3.642,4.774,6.824,4.774,6.824s-3.438-0.763-7.455-1.681
				C236.103,500.221,239.043,496.902,240.394,497.457z"/>
		</g>
	</g>
</g>
</svg>
