<svg xmlns="http://www.w3.org/2000/svg" width="130" height="130" viewBox="76.732 5.866 130 130"><path fill="#78BC43" d="M101.508 72.055l-2.484-2.482c-7.604-7.605-9.835-18.352-6.945-28.033-7.604-1.775-13.231-8.518-13.231-16.578A17.006 17.006 0 0195.881 7.929c8.516 0 15.461 6.287 16.83 14.346 9.175-2.23 19.263.457 26.462 7.402l.912.912-12.571 12.521-.912-.912c-4.055-4.055-10.747-4.055-14.802 0s-4.055 10.748 0 14.803l2.484 2.482 12.571 12.572 13.23 13.232-12.571 12.57-13.231-13.23-12.775-12.572"/><path fill="#F6B333" d="M115.601 57.913l13.231-13.23 12.573-12.572 2.483-2.484c7.604-7.604 18.351-9.834 27.78-7.148 1.115-8.313 8.313-14.549 16.83-14.549a17.006 17.006 0 0117.033 17.033c0 8.516-6.49 15.664-14.803 16.83 2.688 9.633.456 20.176-7.148 27.781l-.912.91-12.571-12.57.912-.912c4.055-4.055 4.055-10.748 0-14.803-4.056-4.055-10.544-4.055-14.802 0l-2.484 2.484-12.32 12.572-13.229 13.23-12.573-12.572"/><path fill="#EF3942" d="M172.072 121.128c-9.631 2.889-20.631.658-28.235-6.945l-.912-.912 12.571-12.572.912.912c4.056 4.055 10.748 4.055 14.803 0s4.055-10.545 0-14.803l-2.484-2.482-12.572-12.572-13.23-13.232 12.572-12.471 13.23 13.232 12.572 12.57 2.484 2.484c7.147 7.148 9.631 17.236 7.4 26.666 8.314 1.115 14.549 8.313 14.549 16.83a17.006 17.006 0 01-17.033 17.033c-8.312-.102-15.055-5.932-16.627-13.738"/><path fill="#4A8CCA" d="M167.156 85.946l-13.231 13.23-12.572 12.572-2.484 2.484c-7.148 7.148-17.489 9.633-26.665 7.4-1.774 7.605-8.516 13.232-16.577 13.232a17.006 17.006 0 01-17.033-17.033c0-8.061 5.627-14.803 12.977-16.578-2.484-9.428 0-19.516 7.401-26.867l.912-.912 12.572 12.572-.912.912c-4.055 4.055-4.055 10.748 0 14.803 4.055 4.055 10.747 4.055 14.802 0l2.484-2.484 12.573-12.572 13.23-13.23 12.523 12.471"/><path fill="#FFF" d="M54.585 227.208l-2.484-2.482c-7.604-7.605-9.834-18.352-6.945-28.033-7.604-1.775-13.23-8.518-13.23-16.578a17.006 17.006 0 0117.033-17.033c8.516 0 15.461 6.287 16.83 14.346 9.175-2.23 19.263.457 26.462 7.402l.912.912-12.623 12.52-.912-.91c-4.056-4.057-10.747-4.057-14.802 0-4.055 4.055-4.055 10.746 0 14.801l2.484 2.484 12.571 12.572 13.231 13.23L80.54 253.01l-13.23-13.23-12.725-12.572"/><path fill="#FFF" d="M68.679 213.065l13.23-13.23 12.572-12.572 2.483-2.484c7.604-7.604 18.351-9.834 27.78-7.148 1.115-8.313 8.314-14.549 16.83-14.549a17.006 17.006 0 0117.033 17.033c0 8.516-6.489 15.664-14.803 16.83 2.688 9.633.456 20.176-7.147 27.781l-.964.91-12.571-12.57.912-.912c4.055-4.055 4.055-10.748 0-14.803-4.056-4.055-10.544-4.055-14.802 0l-2.484 2.484-12.318 12.572-13.181 13.23-12.57-12.572"/><path fill="#FFF" d="M125.149 276.28c-9.631 2.889-20.631.658-28.235-6.945l-.912-.912 12.572-12.572.911.912c4.056 4.055 10.748 4.055 14.803 0s4.055-10.545 0-14.803l-2.484-2.482-12.572-12.572-13.23-13.232 12.572-12.57 13.23 13.23 12.572 12.572 2.484 2.484c7.147 7.146 9.632 17.234 7.4 26.664 8.314 1.115 14.549 8.314 14.549 16.83 0 9.43-7.604 17.033-17.033 17.033-8.312 0-15.054-5.83-16.627-13.637"/><path fill="#FFF" d="M120.233 241.098l-13.231 13.23L94.431 266.9l-2.484 2.484c-7.148 7.148-17.489 9.633-26.666 7.4-1.773 7.605-8.516 13.232-16.576 13.232a17.005 17.005 0 01-17.033-17.033c0-8.061 5.627-14.803 12.977-16.578-2.483-9.428 0-19.516 7.401-26.867l.912-.912L65.533 241.2l-.912.912c-4.056 4.055-4.056 10.748 0 14.803 4.055 4.055 10.747 4.055 14.802 0l2.484-2.484 12.572-12.572 13.23-13.23 12.524 12.469"/></svg>