<svg width="477" height="476" viewBox="0 0 477 476" fill="none" xmlns="http://www.w3.org/2000/svg">
<g clip-path="url(#clip0_2_2)">
<path d="M348.329 75.4737H303.211C301.99 75.7718 300.719 75.7887 299.491 75.5232C298.263 75.2577 297.112 74.7168 296.124 73.9412C295.136 73.1656 294.338 72.1756 293.788 71.0461C293.239 69.9166 292.954 68.677 292.954 67.421C292.954 66.1651 293.239 64.9255 293.788 63.796C294.338 62.6665 295.136 61.6765 296.124 60.9009C297.112 60.1253 298.263 59.5844 299.491 59.3189C300.719 59.0534 301.99 59.0703 303.211 59.3684H347.855C350.054 59.3684 352.162 60.2418 353.717 61.7963C355.271 63.3509 356.145 65.4594 356.145 67.6579C356.145 69.8564 355.271 71.9649 353.717 73.5194C352.162 75.074 350.054 75.9474 347.855 75.9474L348.329 75.4737ZM348.329 205.263H303.211C301.012 205.263 298.904 204.39 297.349 202.835C295.794 201.281 294.921 199.172 294.921 196.974C294.921 194.775 295.794 192.667 297.349 191.112C298.904 189.558 301.012 188.684 303.211 188.684H347.855C350.054 188.684 352.162 189.558 353.717 191.112C355.271 192.667 356.145 194.775 356.145 196.974C356.145 199.172 355.271 201.281 353.717 202.835C352.162 204.39 350.054 205.263 347.855 205.263H348.329Z" fill="white"/>
<path d="M65.5395 90.0395C63.341 90.0395 61.2325 89.1661 59.6779 87.6115C58.1234 86.057 57.25 83.9485 57.25 81.75V53.6842C57.25 51.4857 58.1234 49.3772 59.6779 47.8227C61.2325 46.2681 63.341 45.3947 65.5395 45.3947C67.738 45.3947 69.8464 46.2681 71.401 47.8227C72.9556 49.3772 73.8289 51.4857 73.8289 53.6842V81.75C73.7983 83.939 72.9151 86.0297 71.3672 87.5777C69.8192 89.1257 67.7284 90.0089 65.5395 90.0395V90.0395ZM100.711 90.0395C98.512 90.0395 96.4036 89.1661 94.849 87.6115C93.2944 86.057 92.4211 83.9485 92.4211 81.75V53.6842C92.4211 51.4857 93.2944 49.3772 94.849 47.8227C96.4036 46.2681 98.512 45.3947 100.711 45.3947C102.909 45.3947 105.017 46.2681 106.572 47.8227C108.127 49.3772 109 51.4857 109 53.6842V81.75C109 82.8386 108.786 83.9165 108.369 84.9222C107.952 85.928 107.342 86.8418 106.572 87.6115C105.802 88.3813 104.889 88.9919 103.883 89.4085C102.877 89.8251 101.799 90.0395 100.711 90.0395V90.0395ZM135.882 90.0395C133.693 90.0089 131.602 89.1257 130.054 87.5777C128.506 86.0297 127.623 83.939 127.592 81.75V53.6842C127.592 51.4857 128.465 49.3772 130.02 47.8227C131.575 46.2681 133.683 45.3947 135.882 45.3947C138.08 45.3947 140.189 46.2681 141.743 47.8227C143.298 49.3772 144.171 51.4857 144.171 53.6842V81.75C144.171 83.9485 143.298 86.057 141.743 87.6115C140.189 89.1661 138.08 90.0395 135.882 90.0395V90.0395ZM171.171 90.0395C168.973 90.0395 166.864 89.1661 165.31 87.6115C163.755 86.057 162.882 83.9485 162.882 81.75V53.6842C162.882 51.4857 163.755 49.3772 165.31 47.8227C166.864 46.2681 168.973 45.3947 171.171 45.3947C173.37 45.3947 175.478 46.2681 177.033 47.8227C178.587 49.3772 179.461 51.4857 179.461 53.6842V81.75C179.43 83.939 178.547 86.0297 176.999 87.5777C175.451 89.1257 173.36 90.0089 171.171 90.0395V90.0395ZM65.5395 219.237C63.341 219.237 61.2325 218.364 59.6779 216.809C58.1234 215.254 57.25 213.146 57.25 210.947V183C57.25 180.801 58.1234 178.693 59.6779 177.138C61.2325 175.584 63.341 174.711 65.5395 174.711C67.738 174.711 69.8464 175.584 71.401 177.138C72.9556 178.693 73.8289 180.801 73.8289 183V210.947C73.7983 213.136 72.9151 215.227 71.3672 216.775C69.8192 218.323 67.7284 219.206 65.5395 219.237V219.237ZM100.711 219.237C98.512 219.237 96.4036 218.364 94.849 216.809C93.2944 215.254 92.4211 213.146 92.4211 210.947V183C92.4211 180.801 93.2944 178.693 94.849 177.138C96.4036 175.584 98.512 174.711 100.711 174.711C102.909 174.711 105.017 175.584 106.572 177.138C108.127 178.693 109 180.801 109 183V210.947C109 212.036 108.786 213.114 108.369 214.12C107.952 215.125 107.342 216.039 106.572 216.809C105.802 217.579 104.889 218.189 103.883 218.606C102.877 219.022 101.799 219.237 100.711 219.237V219.237ZM135.882 219.237C133.693 219.206 131.602 218.323 130.054 216.775C128.506 215.227 127.623 213.136 127.592 210.947V183C127.592 180.801 128.465 178.693 130.02 177.138C131.575 175.584 133.683 174.711 135.882 174.711C138.08 174.711 140.189 175.584 141.743 177.138C143.298 178.693 144.171 180.801 144.171 183V210.947C144.171 213.146 143.298 215.254 141.743 216.809C140.189 218.364 138.08 219.237 135.882 219.237V219.237ZM171.171 219.237C168.973 219.237 166.864 218.364 165.31 216.809C163.755 215.254 162.882 213.146 162.882 210.947V183C162.882 180.801 163.755 178.693 165.31 177.138C166.864 175.584 168.973 174.711 171.171 174.711C173.37 174.711 175.478 175.584 177.033 177.138C178.587 178.693 179.461 180.801 179.461 183V210.947C179.43 213.136 178.547 215.227 176.999 216.775C175.451 218.323 173.36 219.206 171.171 219.237V219.237ZM65.5395 348.434C63.341 348.434 61.2325 347.561 59.6779 346.006C58.1234 344.452 57.25 342.343 57.25 340.145V312.197C57.25 309.999 58.1234 307.89 59.6779 306.336C61.2325 304.781 63.341 303.908 65.5395 303.908C67.738 303.908 69.8464 304.781 71.401 306.336C72.9556 307.89 73.8289 309.999 73.8289 312.197V340.145C73.8289 342.343 72.9556 344.452 71.401 346.006C69.8464 347.561 67.738 348.434 65.5395 348.434V348.434ZM100.711 348.434C98.512 348.434 96.4036 347.561 94.849 346.006C93.2944 344.452 92.4211 342.343 92.4211 340.145V312.197C92.4211 309.999 93.2944 307.89 94.849 306.336C96.4036 304.781 98.512 303.908 100.711 303.908C102.909 303.908 105.017 304.781 106.572 306.336C108.127 307.89 109 309.999 109 312.197V340.145C109 341.233 108.786 342.311 108.369 343.317C107.952 344.323 107.342 345.237 106.572 346.006C105.802 346.776 104.889 347.387 103.883 347.803C102.877 348.22 101.799 348.434 100.711 348.434V348.434ZM135.882 348.434C133.683 348.434 131.575 347.561 130.02 346.006C128.465 344.452 127.592 342.343 127.592 340.145V312.197C127.592 309.999 128.465 307.89 130.02 306.336C131.575 304.781 133.683 303.908 135.882 303.908C138.08 303.908 140.189 304.781 141.743 306.336C143.298 307.89 144.171 309.999 144.171 312.197V340.145C144.171 342.343 143.298 344.452 141.743 346.006C140.189 347.561 138.08 348.434 135.882 348.434V348.434ZM171.171 348.434C168.973 348.434 166.864 347.561 165.31 346.006C163.755 344.452 162.882 342.343 162.882 340.145V312.197C162.882 309.999 163.755 307.89 165.31 306.336C166.864 304.781 168.973 303.908 171.171 303.908C173.37 303.908 175.478 304.781 177.033 306.336C178.587 307.89 179.461 309.999 179.461 312.197V340.145C179.461 342.343 178.587 344.452 177.033 346.006C175.478 347.561 173.37 348.434 171.171 348.434Z" fill="#FF775C"/>
<path d="M348.329 122.368H364.908V141.671H348.329V122.368ZM62.3421 122.368H78.9211V141.671H62.3421V122.368ZM62.3421 252.158H78.9211V271.461H62.3421V252.158ZM400.079 122.368H27.1711C24.9726 122.368 22.8641 121.495 21.3095 119.94C19.7549 118.386 18.8816 116.277 18.8816 114.079V20.2895C18.8816 18.091 19.7549 15.9825 21.3095 14.4279C22.8641 12.8734 24.9726 12 27.1711 12H400.079C402.277 12 404.386 12.8734 405.941 14.4279C407.495 15.9825 408.368 18.091 408.368 20.2895V114.079C408.368 116.277 407.495 118.386 405.941 119.94C404.386 121.495 402.277 122.368 400.079 122.368V122.368ZM35.4605 105.789H391.79V28.5789H35.4605V105.789Z" fill="white"/>
<path d="M382.316 264.118C372.897 264.127 363.867 267.875 357.211 274.539C352.866 278.937 349.691 284.351 347.974 290.289C346.512 295.573 346.292 301.124 347.333 306.506C348.374 311.889 350.646 316.958 353.972 321.316C357.298 325.674 361.587 329.204 366.505 331.628C371.422 334.052 376.834 335.305 382.316 335.289C385.357 335.32 388.386 334.921 391.316 334.105C397.286 332.572 402.755 329.511 407.184 325.224C412.297 320.296 415.815 313.95 417.286 307.003C418.757 300.057 418.113 292.829 415.436 286.252C412.76 279.676 408.174 274.052 402.27 270.107C396.367 266.161 389.416 264.076 382.316 264.118V264.118ZM391.316 317.289C388.526 318.714 385.448 319.483 382.316 319.539C377.413 319.594 372.66 317.846 368.96 314.628C365.261 311.41 362.871 306.946 362.245 302.083C361.619 297.22 362.8 292.296 365.564 288.246C368.328 284.195 372.483 281.301 377.24 280.112C381.997 278.923 387.025 279.521 391.37 281.794C395.715 284.067 399.075 287.856 400.811 292.441C402.547 297.027 402.539 302.091 400.789 306.671C399.039 311.252 395.668 315.03 391.316 317.289V317.289Z" fill="#FF775C"/>
<path d="M443.658 238.421C433.741 228.459 421.548 221.062 408.132 216.868C402.721 215.197 397.173 214.008 391.553 213.316C387.763 213.316 384.447 212.724 381.368 212.724C358.78 212.676 337.051 221.376 320.737 237L319.908 237.711C315.416 242.442 311.445 247.643 308.066 253.224C304.464 259.31 301.564 265.786 299.421 272.526C297.684 277.893 296.417 283.401 295.632 288.987C291.443 313.663 297.191 338.995 311.618 359.447L381.605 462L451.829 360.632C464.397 342.306 470.426 320.281 468.944 298.109C467.461 275.937 458.554 254.911 443.658 238.421V238.421ZM432.526 346.776L381.605 420.316L330.329 346.303C324.863 338.3 321.052 329.284 319.12 319.787C317.188 310.29 317.174 300.503 319.079 291C319.869 285.842 321.26 280.795 323.224 275.961C325.57 269.605 329.017 263.712 333.408 258.553C334.332 257.393 335.32 256.286 336.368 255.237C340.917 250.484 346.194 246.487 352 243.395C361.118 238.559 371.284 236.038 381.605 236.053C384.657 236.08 387.704 236.318 390.724 236.763C395.838 237.514 400.847 238.865 405.645 240.789C413.607 243.975 420.824 248.773 426.842 254.882C438.029 267.306 444.68 283.151 445.712 299.838C446.745 316.524 442.097 333.068 432.526 346.776V346.776Z" fill="#FF775C"/>
<path d="M312.329 381.947L305.579 372.118L301.079 365.605H35.4605V288.039H282.724C282.672 287.369 282.672 286.696 282.724 286.026C283.424 281.098 284.493 276.229 285.921 271.461H27.1711C24.9726 271.461 22.8641 272.334 21.3095 273.888C19.7549 275.443 18.8816 277.551 18.8816 279.75V373.658C18.8816 375.856 19.7549 377.965 21.3095 379.519C22.8641 381.074 24.9726 381.947 27.1711 381.947H312.329V381.947ZM304.04 235.579H35.4605V158.368H391.79V199.579H392.382C397.79 200.262 403.135 201.37 408.368 202.895V150.079C408.368 147.88 407.495 145.772 405.941 144.217C404.386 142.663 402.277 141.789 400.079 141.789H27.1711C24.9726 141.789 22.8641 142.663 21.3095 144.217C19.7549 145.772 18.8816 147.88 18.8816 150.079V243.868C18.8816 246.067 19.7549 248.175 21.3095 249.73C22.8641 251.285 24.9726 252.158 27.1711 252.158H293.618C294.684 250.026 295.868 247.776 297.053 245.763C299.16 242.222 301.494 238.82 304.04 235.579V235.579ZM333.408 412.263H78.9211V381.947H62.3421V420.553C62.3421 421.641 62.5565 422.719 62.9731 423.725C63.3897 424.731 64.0003 425.644 64.7701 426.414C65.5398 427.184 66.4536 427.795 67.4594 428.211C68.4651 428.628 69.543 428.842 70.6316 428.842H344.895L338.737 420.671L333.408 412.263Z" fill="white"/>
</g>
<defs>
<clipPath id="clip0_2_2">
<rect width="450" height="450" fill="white" transform="translate(19 12)"/>
</clipPath>
</defs>
</svg>
