<?xml version="1.0" encoding="UTF-8"?> <!-- Generator: Adobe Illustrator 16.0.0, SVG Export Plug-In . SVG Version: 6.00 Build 0) --> <svg xmlns="http://www.w3.org/2000/svg" xmlns:xlink="http://www.w3.org/1999/xlink" id="Layer_1" x="0px" y="0px" width="630px" height="530px" viewBox="0 0 630 530" xml:space="preserve"> <linearGradient id="SVGID_1_" gradientUnits="userSpaceOnUse" x1="-12.208" y1="263.9697" x2="646.5662" y2="263.9697" gradientTransform="matrix(-0.9881 0.1541 -0.1541 -0.9881 630.7012 528.8643)"> <stop offset="0" style="stop-color:#DDE0FD"></stop> <stop offset="1" style="stop-color:#DDE0FD;stop-opacity:0.3"></stop> </linearGradient> <path opacity="0.1" fill="url(#SVGID_1_)" d="M497.407,448.608l70.194-115.025c69.772-114.331-20.804-259.275-154.148-246.678 l-249.871,23.604c-162.173,15.32-203.65,233.049-58.467,306.917l179.676,91.424C360.519,547.38,453.145,521.136,497.407,448.608z"></path> <path opacity="0.75" fill="#EDF0F6" d="M107.357,64.164c-19.029,0-34.454,15.425-34.454,34.454 c0,19.029,15.425,34.454,34.454,34.454c19.028,0,34.454-15.425,34.454-34.454C141.811,79.589,126.386,64.164,107.357,64.164"></path> <path opacity="0.75" fill="#EDF0F6" d="M469.018,61.963c-9.697,0-17.558,7.861-17.558,17.558s7.86,17.558,17.558,17.558 c9.695,0,17.556-7.861,17.556-17.558S478.713,61.963,469.018,61.963"></path> <path fill="#FF775C" d="M153.224,141.661c-2.988,0-5.411,2.421-5.411,5.41c0,2.988,2.423,5.411,5.411,5.411 c2.989,0,5.411-2.422,5.411-5.411C158.635,144.082,156.212,141.661,153.224,141.661"></path> <path fill="#EDF0F6" d="M55.614,278.646c-3.889,0-7.041,3.153-7.041,7.041c0,3.89,3.152,7.041,7.041,7.041s7.041-3.151,7.041-7.041 C62.655,281.799,59.503,278.646,55.614,278.646"></path> <path fill="#FF775C" d="M419.026,26.361c-3.424,0-6.208-2.786-6.208-6.208c0-3.424,2.784-6.21,6.208-6.21s6.211,2.786,6.211,6.21 C425.237,23.575,422.45,26.361,419.026,26.361z M419.026,17.245c-1.602,0-2.904,1.304-2.904,2.908c0,1.602,1.303,2.906,2.904,2.906 c1.603,0,2.907-1.305,2.907-2.906C421.934,18.549,420.629,17.245,419.026,17.245z"></path> <path fill="#52399E" d="M99.091,194.172c-2.288,0-4.15-1.862-4.15-4.15c0-2.289,1.862-4.151,4.15-4.151 c2.289,0,4.151,1.862,4.151,4.151C103.242,192.31,101.38,194.172,99.091,194.172z M99.091,188.078c-1.071,0-1.943,0.873-1.943,1.944 s0.872,1.943,1.943,1.943c1.071,0,1.943-0.872,1.943-1.943S100.163,188.078,99.091,188.078z"></path> <path fill="#004667" d="M82.834,358.536c-2.288,0-4.15-1.859-4.15-4.148s1.862-4.151,4.15-4.151c2.29,0,4.15,1.862,4.15,4.151 S85.124,358.536,82.834,358.536z M82.834,352.444c-1.071,0-1.942,0.871-1.942,1.943c0,1.07,0.871,1.942,1.942,1.942 c1.072,0,1.943-0.872,1.943-1.942C84.777,353.315,83.907,352.444,82.834,352.444z"></path> <path fill="#52399E" d="M511.63,125.235c-2.976,0-5.397-2.422-5.397-5.399s2.422-5.399,5.397-5.399c2.979,0,5.399,2.422,5.399,5.399 S514.608,125.235,511.63,125.235z M511.63,117.309c-1.393,0-2.526,1.134-2.526,2.527s1.134,2.527,2.526,2.527 c1.395,0,2.527-1.134,2.527-2.527S513.024,117.309,511.63,117.309z"></path> <path fill="#FF775C" d="M569.502,171.752h-2.666v-2.667c0-0.832-0.676-1.506-1.507-1.506c-0.832,0-1.506,0.674-1.506,1.506v2.667 h-2.668c-0.831,0-1.508,0.674-1.508,1.505c0,0.832,0.677,1.506,1.508,1.506h2.668v2.668c0,0.831,0.674,1.505,1.506,1.505 c0.831,0,1.507-0.674,1.507-1.505v-2.668h2.666c0.832,0,1.508-0.674,1.508-1.506C571.01,172.426,570.334,171.752,569.502,171.752z"></path> <path fill="#FF775C" d="M134.862,438.986h-3.612v-3.612c0-1.126-0.914-2.039-2.041-2.039c-1.126,0-2.04,0.913-2.04,2.039v3.612 h-3.612c-1.126,0-2.04,0.913-2.04,2.039s0.914,2.039,2.04,2.039h3.612v3.615c0,1.126,0.914,2.038,2.04,2.038 c1.127,0,2.041-0.912,2.041-2.038v-3.615h3.612c1.126,0,2.041-0.913,2.041-2.039S135.988,438.986,134.862,438.986z"></path> <path fill="#52399E" d="M462.141,110.417h-2.042v-2.04c0-0.637-0.516-1.153-1.152-1.153c-0.638,0-1.153,0.516-1.153,1.153v2.04 h-2.041c-0.635,0-1.153,0.517-1.153,1.153c0,0.638,0.519,1.153,1.153,1.153h2.041v2.041c0,0.637,0.516,1.153,1.153,1.153 c0.637,0,1.152-0.517,1.152-1.153v-2.041h2.042c0.637,0,1.152-0.516,1.152-1.153C463.293,110.934,462.777,110.417,462.141,110.417z"></path> <path fill="#004667" d="M70.197,158.195h-2.042v-2.041c0-0.637-0.516-1.152-1.152-1.152s-1.153,0.516-1.153,1.152v2.041h-2.042 c-0.636,0-1.153,0.517-1.153,1.153c0,0.637,0.517,1.153,1.153,1.153h2.042v2.041c0,0.637,0.517,1.153,1.153,1.153 s1.152-0.516,1.152-1.153v-2.041h2.042c0.637,0,1.153-0.516,1.153-1.153C71.351,158.712,70.834,158.195,70.197,158.195z"></path> <path fill="#FF775C" d="M562.575,113.382h-1.87v-1.871c0-0.583-0.472-1.056-1.058-1.056c-0.581,0-1.055,0.472-1.055,1.056v1.871 h-1.869c-0.584,0-1.057,0.472-1.057,1.055s0.473,1.057,1.057,1.057h1.869v1.87c0,0.583,0.474,1.055,1.055,1.055 c0.586,0,1.058-0.472,1.058-1.055v-1.87h1.87c0.584,0,1.058-0.474,1.058-1.057S563.159,113.382,562.575,113.382z"></path> <path fill="#52399E" d="M34.975,213.9h-1.87v-1.869c0-0.583-0.473-1.056-1.056-1.056c-0.583,0-1.056,0.473-1.056,1.056v1.869h-1.871 c-0.583,0-1.056,0.473-1.056,1.056c0,0.583,0.473,1.057,1.056,1.057h1.871v1.87c0,0.582,0.473,1.056,1.056,1.056 c0.583,0,1.056-0.474,1.056-1.056v-1.87h1.87c0.583,0,1.056-0.474,1.056-1.057C36.031,214.374,35.559,213.9,34.975,213.9z"></path> <path fill="#FF775C" d="M468.954,148.287l-0.946,0.945l-0.944-0.945c-0.294-0.295-0.772-0.295-1.066,0 c-0.296,0.294-0.296,0.771,0,1.067l0.944,0.944l-0.944,0.946c-0.296,0.295-0.296,0.772,0,1.066c0.294,0.295,0.771,0.295,1.066,0 l0.944-0.944l0.946,0.944c0.295,0.295,0.772,0.295,1.066,0c0.294-0.294,0.294-0.771,0-1.066l-0.945-0.946l0.945-0.944 c0.294-0.295,0.294-0.772,0-1.067C469.727,147.991,469.249,147.991,468.954,148.287z"></path> <path fill="#52399E" d="M154.836,1.377l-1.613,1.613l-1.612-1.613c-0.503-0.503-1.319-0.503-1.822,0 c-0.503,0.503-0.503,1.319,0,1.822l1.613,1.613l-1.613,1.613c-0.503,0.503-0.503,1.318,0,1.822c0.503,0.502,1.319,0.502,1.822,0 l1.612-1.614l1.613,1.614c0.503,0.502,1.319,0.502,1.822,0c0.503-0.503,0.503-1.319,0-1.822l-1.613-1.613l1.613-1.613 c0.503-0.503,0.503-1.319,0-1.822S155.339,0.874,154.836,1.377z"></path> <path fill="#FF775C" d="M539.003,271.396l-1.613,1.612l-1.612-1.612c-0.503-0.503-1.318-0.503-1.821,0 c-0.503,0.506-0.503,1.318,0,1.824l1.612,1.612l-1.612,1.612c-0.503,0.504-0.503,1.318,0,1.823c0.503,0.5,1.318,0.5,1.821,0 l1.612-1.614l1.613,1.614c0.504,0.5,1.32,0.5,1.822,0c0.504-0.505,0.504-1.319,0-1.823l-1.613-1.612l1.613-1.612 c0.504-0.506,0.504-1.32,0-1.824C540.323,270.894,539.507,270.894,539.003,271.396z"></path> <path fill="#004667" d="M92.717,237.582l-0.922,0.921l-0.921-0.921c-0.287-0.288-0.754-0.288-1.042,0 c-0.287,0.287-0.287,0.752,0,1.041l0.923,0.923l-0.923,0.921c-0.287,0.288-0.287,0.753,0,1.042c0.288,0.287,0.754,0.287,1.042,0 l0.921-0.922l0.922,0.922c0.288,0.287,0.754,0.287,1.042,0c0.287-0.288,0.287-0.754,0-1.042l-0.923-0.921l0.923-0.923 c0.287-0.288,0.287-0.753,0-1.041C93.471,237.293,93.004,237.293,92.717,237.582z"></path> <path fill="#FF775C" d="M539.003,354.765l-1.613,1.614l-1.612-1.614c-0.503-0.504-1.318-0.504-1.821,0 c-0.503,0.503-0.503,1.317,0,1.821l1.612,1.612l-1.612,1.616c-0.503,0.5-0.503,1.318,0,1.82c0.503,0.503,1.318,0.503,1.821,0 l1.612-1.614l1.613,1.614c0.504,0.503,1.32,0.503,1.822,0c0.504-0.502,0.504-1.32,0-1.82l-1.613-1.616l1.613-1.612 c0.504-0.504,0.504-1.318,0-1.821C540.323,354.261,539.507,354.261,539.003,354.765z"></path> <path fill="#52399E" d="M504.506,184.288l-1.614,1.612l-1.613-1.612c-0.503-0.503-1.319-0.503-1.821,0 c-0.504,0.503-0.504,1.318,0,1.821l1.612,1.613l-1.612,1.612c-0.504,0.503-0.504,1.32,0,1.823c0.502,0.502,1.318,0.502,1.821,0 l1.613-1.614l1.614,1.614c0.502,0.502,1.317,0.502,1.82,0c0.503-0.503,0.503-1.32,0-1.823l-1.612-1.612l1.612-1.613 c0.503-0.503,0.503-1.319,0-1.821C505.823,183.785,505.008,183.785,504.506,184.288z"></path> <circle fill="#52399E" cx="457.234" cy="172.219" r="1.712"></circle> <circle fill="#52399E" cx="615.534" cy="143.417" r="1.305"></circle> <circle fill="#52399E" cx="184.357" cy="63.675" r="1.305"></circle> <circle fill="#004667" cx="445.351" cy="108.688" r="1.712"></circle> <circle fill="#FF775C" cx="23.577" cy="176.907" r="1.712"></circle> <circle fill="#FF775C" cx="591.755" cy="97.079" r="1.712"></circle> <path fill="#FF775C" d="M485.678,425.712c-1.252,3.186-4.863,4.76-8.049,3.509c-3.187-1.251-4.762-4.862-3.512-8.046 c1.251-3.188,4.861-4.763,8.05-3.514C485.354,418.912,486.929,422.523,485.678,425.712z M477.192,422.379 c-0.587,1.491,0.151,3.183,1.645,3.767c1.49,0.587,3.18-0.151,3.766-1.641c0.586-1.491-0.151-3.183-1.643-3.769 C479.468,420.15,477.776,420.888,477.192,422.379z"></path> <path fill="#FF775C" d="M429.961,101.875l-0.977,2.483l-2.481-0.976c-0.772-0.304-1.648,0.078-1.952,0.852 c-0.304,0.775,0.077,1.648,0.851,1.952l2.483,0.976l-0.975,2.482c-0.305,0.774,0.076,1.648,0.853,1.952 c0.774,0.304,1.648-0.078,1.952-0.852l0.975-2.483l2.482,0.975c0.773,0.304,1.649-0.077,1.952-0.851 c0.304-0.774-0.078-1.649-0.852-1.953l-2.483-0.975l0.975-2.483c0.305-0.774-0.076-1.647-0.852-1.952 C431.139,100.719,430.265,101.101,429.961,101.875z"></path> <path fill="#FF775C" d="M290.25,75.302l-1.319,3.362l-3.363-1.32c-1.049-0.412-2.232,0.105-2.644,1.154 c-0.412,1.049,0.103,2.232,1.153,2.644l3.363,1.321l-1.321,3.362c-0.411,1.049,0.105,2.233,1.154,2.645 c1.048,0.412,2.233-0.105,2.645-1.154l1.32-3.364l3.364,1.321c1.049,0.411,2.232-0.105,2.644-1.153 c0.412-1.049-0.104-2.233-1.153-2.645l-3.364-1.321l1.32-3.362c0.412-1.049-0.104-2.233-1.153-2.645 C291.847,73.736,290.663,74.252,290.25,75.302z"></path> <path fill="#FF775C" d="M347.784,69.126l0.914,2.091l-2.092,0.912c-0.652,0.285-0.95,1.043-0.667,1.696 c0.286,0.652,1.043,0.949,1.697,0.666l2.09-0.913l0.912,2.09c0.282,0.653,1.044,0.951,1.695,0.667 c0.654-0.284,0.951-1.043,0.668-1.696l-0.913-2.09l2.091-0.913c0.651-0.285,0.95-1.043,0.665-1.696 c-0.285-0.652-1.045-0.949-1.695-0.665l-2.091,0.912l-0.912-2.091c-0.286-0.651-1.044-0.95-1.696-0.666 C347.799,67.715,347.5,68.474,347.784,69.126z"></path> <circle fill="#52399E" cx="84.778" cy="306.349" r="1.305"></circle> <circle fill="#FF775C" cx="322.46" cy="75.271" r="1.712"></circle> <circle fill="#FF775C" cx="553.643" cy="147.071" r="2.024"></circle> <path fill="#004667" d="M527.089,331.077c0,1.118-0.906,2.023-2.024,2.023s-2.025-0.905-2.025-2.023s0.907-2.025,2.025-2.025 S527.089,329.959,527.089,331.077"></path> <path fill="#004667" d="M233.514,83.333c0,1.118-0.906,2.024-2.024,2.024s-2.024-0.906-2.024-2.024s0.906-2.024,2.024-2.024 S233.514,82.215,233.514,83.333"></path> <path opacity="0.75" fill="#DCE1F6" d="M558.379,201.217c-0.008-0.118-0.019-0.234-0.028-0.352c-0.019-0.258-0.041-0.516-0.071-0.77 c-0.014-0.132-0.032-0.263-0.05-0.392c-0.033-0.249-0.073-0.495-0.116-0.74c-0.021-0.121-0.041-0.242-0.063-0.362 c-0.058-0.292-0.123-0.58-0.193-0.867c-0.012-0.054-0.021-0.109-0.037-0.162c-0.004-0.014-0.006-0.029-0.01-0.042 c-0.044-0.179-0.096-0.354-0.147-0.53c-0.038-0.134-0.072-0.269-0.114-0.401c-0.056-0.18-0.117-0.357-0.179-0.536 c-0.043-0.125-0.083-0.251-0.127-0.375c-0.069-0.191-0.149-0.382-0.225-0.572c-0.042-0.105-0.08-0.213-0.124-0.318 c-0.097-0.224-0.198-0.446-0.302-0.667c-0.031-0.064-0.058-0.132-0.091-0.197c-0.001-0.001-0.002-0.002-0.002-0.003 c-0.17-0.359-0.358-0.709-0.552-1.055c-0.053-0.095-0.107-0.187-0.162-0.281c-0.165-0.283-0.334-0.561-0.513-0.834 c-0.031-0.046-0.058-0.092-0.09-0.138c-0.013-0.021-0.024-0.042-0.038-0.062c-0.192-0.285-0.389-0.566-0.592-0.839 c-0.013-0.018-0.027-0.033-0.041-0.051c-0.192-0.256-0.392-0.506-0.599-0.753c-0.016-0.019-0.033-0.037-0.049-0.057 c-0.021-0.026-0.043-0.051-0.066-0.077c-0.381-0.449-0.782-0.881-1.202-1.294c-0.017-0.016-0.034-0.032-0.051-0.046 c-0.03-0.031-0.062-0.061-0.095-0.091c-0.383-0.367-0.773-0.72-1.186-1.056c-0.013-0.01-0.025-0.02-0.039-0.029 c-0.029-0.024-0.062-0.049-0.092-0.073c-0.381-0.305-0.77-0.595-1.171-0.871c-0.018-0.013-0.036-0.026-0.053-0.04 c-0.008-0.005-0.016-0.01-0.022-0.015c-0.379-0.258-0.771-0.499-1.169-0.729c-0.043-0.025-0.086-0.05-0.129-0.075 c-0.038-0.022-0.075-0.042-0.113-0.064c-0.376-0.212-0.762-0.413-1.152-0.6c-0.019-0.008-0.036-0.016-0.053-0.024 c-0.047-0.022-0.097-0.042-0.143-0.063c-0.333-0.154-0.67-0.297-1.014-0.433c-0.054-0.022-0.107-0.044-0.161-0.065 c-0.037-0.013-0.07-0.028-0.106-0.041c-0.38-0.145-0.768-0.278-1.161-0.398c-0.018-0.005-0.034-0.01-0.052-0.015 c-0.055-0.017-0.11-0.031-0.165-0.047c-0.321-0.094-0.646-0.18-0.975-0.257c-0.06-0.015-0.119-0.027-0.18-0.042 c-0.051-0.012-0.101-0.024-0.152-0.036c-0.358-0.078-0.718-0.148-1.083-0.207c-0.027-0.004-0.055-0.01-0.083-0.015 c-0.007-0.001-0.013-0.002-0.019-0.003c-0.389-0.06-0.782-0.104-1.179-0.142c-0.041-0.004-0.081-0.005-0.122-0.009 c-0.074-0.006-0.148-0.011-0.222-0.017c-0.291-0.022-0.583-0.037-0.878-0.045c-0.074-0.002-0.146-0.004-0.219-0.006 c-0.121-0.002-0.241-0.009-0.364-0.009c-0.319,0-0.638,0.008-0.954,0.024c-0.007,0-0.014,0-0.019,0 c-0.398,0.02-0.793,0.054-1.185,0.098c-0.037,0.005-0.076,0.011-0.116,0.015c-0.071,0.008-0.141,0.018-0.213,0.026 c-0.303,0.039-0.604,0.085-0.9,0.137c-0.069,0.012-0.137,0.024-0.204,0.037c-0.042,0.008-0.081,0.014-0.123,0.021 c-0.395,0.076-0.786,0.162-1.172,0.262c-0.01,0.002-0.017,0.005-0.025,0.007c-0.033,0.008-0.063,0.018-0.097,0.027 c-0.359,0.095-0.713,0.203-1.063,0.318c-0.051,0.017-0.104,0.035-0.158,0.054c-0.05,0.017-0.1,0.033-0.149,0.051 c-0.389,0.135-0.774,0.279-1.153,0.438c-0.005,0.002-0.01,0.004-0.016,0.007c-0.001,0-0.003,0-0.003,0 c-0.398,0.169-0.789,0.355-1.174,0.549c-0.047,0.023-0.095,0.049-0.142,0.073c-0.042,0.02-0.081,0.041-0.12,0.062 c-0.394,0.205-0.778,0.421-1.155,0.652c-0.015,0.009-0.028,0.018-0.043,0.027c-0.033,0.02-0.065,0.042-0.099,0.062 c-0.383,0.24-0.757,0.493-1.122,0.758c-0.031,0.024-0.065,0.046-0.099,0.07c-0.012,0.01-0.025,0.017-0.038,0.026 c-0.403,0.298-0.792,0.617-1.172,0.945c-0.035,0.031-0.072,0.062-0.108,0.095c-0.022,0.019-0.044,0.037-0.063,0.056 c-0.404,0.358-0.793,0.734-1.164,1.125c-0.03,0.031-0.062,0.063-0.092,0.095c-0.034,0.037-0.07,0.072-0.103,0.109 c-0.132,0.142-0.259,0.286-0.387,0.432c-0.087,0.1-0.177,0.2-0.262,0.302c-0.13,0.156-0.256,0.315-0.381,0.475 c-0.062,0.079-0.124,0.157-0.187,0.236c-0.013,0.018-0.025,0.034-0.04,0.052c-0.217,0.286-0.425,0.579-0.626,0.877 c-0.039,0.058-0.074,0.119-0.114,0.178c-0.159,0.243-0.315,0.49-0.463,0.741c-0.028,0.043-0.05,0.086-0.075,0.129 c-0.025,0.045-0.05,0.088-0.076,0.133c-0.217,0.378-0.426,0.763-0.616,1.157c-0.008,0.015-0.015,0.029-0.022,0.044 c-0.195,0.404-0.374,0.819-0.541,1.24c-0.021,0.054-0.042,0.106-0.063,0.16c-0.023,0.06-0.048,0.12-0.07,0.18 c-0.048,0.129-0.097,0.259-0.142,0.39c-0.056,0.158-0.11,0.318-0.162,0.479c-0.043,0.131-0.084,0.264-0.125,0.396 c-0.05,0.164-0.095,0.329-0.14,0.494c-0.036,0.133-0.072,0.266-0.105,0.4c-0.042,0.168-0.079,0.338-0.115,0.508 c-0.031,0.134-0.062,0.268-0.088,0.403c-0.034,0.175-0.065,0.352-0.095,0.529c-0.023,0.132-0.046,0.263-0.065,0.396 c-0.026,0.188-0.049,0.376-0.07,0.564c-0.016,0.125-0.033,0.249-0.045,0.375c-0.021,0.21-0.035,0.424-0.048,0.636 c-0.007,0.105-0.018,0.209-0.022,0.316c-0.016,0.319-0.026,0.64-0.026,0.964s0.011,0.646,0.026,0.965 c0.005,0.105,0.016,0.209,0.022,0.314c0.013,0.213,0.026,0.427,0.048,0.639c0.012,0.125,0.029,0.249,0.043,0.373 c0.023,0.188,0.046,0.378,0.072,0.565c0.02,0.132,0.042,0.263,0.065,0.395c0.029,0.178,0.061,0.354,0.095,0.529 c0.026,0.134,0.057,0.268,0.087,0.401c0.037,0.171,0.074,0.341,0.117,0.509c0.032,0.134,0.068,0.267,0.104,0.4 c0.045,0.166,0.091,0.331,0.14,0.495c0.041,0.132,0.082,0.263,0.125,0.395c0.052,0.162,0.106,0.323,0.162,0.483 c0.046,0.129,0.094,0.258,0.141,0.386c0.023,0.062,0.048,0.121,0.071,0.182c0.021,0.053,0.043,0.107,0.063,0.161 c0.167,0.42,0.346,0.835,0.541,1.239c0.008,0.016,0.015,0.03,0.023,0.045c0.189,0.394,0.398,0.778,0.614,1.157 c0.027,0.043,0.052,0.088,0.077,0.133c0.025,0.043,0.049,0.087,0.075,0.13c0.147,0.25,0.303,0.496,0.462,0.739 c0.039,0.06,0.075,0.121,0.115,0.179c0.201,0.299,0.408,0.59,0.626,0.876c0.014,0.018,0.027,0.035,0.04,0.052 c0.062,0.081,0.127,0.159,0.188,0.239c0.125,0.159,0.25,0.317,0.38,0.471c0.085,0.103,0.175,0.203,0.263,0.304 c0.127,0.145,0.254,0.29,0.386,0.431c0.032,0.037,0.068,0.072,0.103,0.11c0.03,0.032,0.062,0.063,0.092,0.096 c0.371,0.39,0.76,0.766,1.164,1.124c0.02,0.02,0.042,0.038,0.063,0.057c0.035,0.032,0.072,0.062,0.107,0.093 c0.38,0.33,0.77,0.647,1.175,0.946c0.011,0.009,0.024,0.018,0.036,0.026c0.032,0.024,0.066,0.046,0.099,0.069 c0.363,0.266,0.738,0.519,1.122,0.759c0.032,0.02,0.064,0.042,0.099,0.062c0.015,0.009,0.029,0.02,0.043,0.029 c0.377,0.23,0.762,0.445,1.154,0.65c0.04,0.021,0.079,0.042,0.121,0.062c0.047,0.025,0.095,0.05,0.143,0.073 c0.385,0.194,0.774,0.381,1.173,0.549c0,0.001,0.002,0.001,0.003,0.002c0.006,0.002,0.011,0.004,0.016,0.006 c0.379,0.159,0.765,0.303,1.153,0.438c0.05,0.017,0.1,0.033,0.149,0.05c0.054,0.018,0.107,0.036,0.158,0.053 c0.351,0.116,0.704,0.222,1.062,0.318c0.033,0.009,0.063,0.019,0.098,0.028c0.009,0.002,0.017,0.005,0.025,0.008 c0.386,0.1,0.777,0.185,1.172,0.262c0.041,0.008,0.081,0.015,0.123,0.022c0.067,0.013,0.135,0.024,0.205,0.036 c0.298,0.052,0.599,0.099,0.904,0.138c0.068,0.008,0.139,0.018,0.208,0.026c0.04,0.004,0.078,0.009,0.116,0.014 c0.392,0.044,0.786,0.079,1.186,0.099c0.006,0,0.012,0,0.018,0c0.316,0.015,0.635,0.024,0.954,0.024c0.123,0,0.243-0.007,0.364-0.01 c0.073-0.001,0.145-0.004,0.219-0.005c0.296-0.009,0.588-0.025,0.88-0.046c0.072-0.004,0.146-0.01,0.22-0.016 c0.041-0.003,0.081-0.006,0.121-0.009c0.396-0.038,0.791-0.082,1.18-0.142c0.006-0.001,0.012-0.002,0.019-0.003 c0.028-0.004,0.056-0.01,0.083-0.015c0.365-0.059,0.727-0.128,1.084-0.208c0.053-0.01,0.101-0.022,0.151-0.035 c0.061-0.012,0.119-0.027,0.179-0.041c0.328-0.079,0.656-0.164,0.978-0.259c0.054-0.016,0.109-0.03,0.163-0.047 c0.018-0.005,0.034-0.009,0.052-0.014c0.394-0.121,0.781-0.255,1.161-0.398c0.036-0.013,0.069-0.028,0.106-0.042 c0.054-0.021,0.107-0.043,0.161-0.065c0.344-0.135,0.682-0.278,1.014-0.432c0.047-0.022,0.096-0.043,0.143-0.065 c0.017-0.008,0.034-0.015,0.053-0.024c0.391-0.187,0.775-0.387,1.15-0.598c0.04-0.022,0.077-0.044,0.115-0.067 c0.043-0.024,0.086-0.049,0.129-0.074c0.399-0.23,0.79-0.47,1.169-0.728c0.007-0.005,0.015-0.01,0.022-0.016 c0.017-0.012,0.035-0.026,0.053-0.039c0.402-0.276,0.791-0.567,1.172-0.872c0.031-0.025,0.062-0.048,0.091-0.073 c0.016-0.011,0.03-0.022,0.044-0.033c0.331-0.27,0.651-0.553,0.964-0.844c0.03-0.028,0.059-0.056,0.088-0.084 c0.076-0.071,0.15-0.143,0.224-0.214c0.017-0.016,0.035-0.032,0.051-0.047c0.42-0.413,0.821-0.844,1.201-1.293 c0.023-0.026,0.046-0.051,0.067-0.078c0.006-0.006,0.012-0.014,0.018-0.021c0.014-0.016,0.028-0.032,0.041-0.048 c0.219-0.261,0.431-0.526,0.634-0.798c0.001-0.001,0.003-0.004,0.005-0.006c0.199-0.27,0.394-0.545,0.582-0.827 c0.015-0.02,0.026-0.041,0.039-0.062c0.032-0.046,0.06-0.093,0.09-0.139c0.179-0.273,0.348-0.551,0.513-0.833 c0.055-0.093,0.109-0.187,0.162-0.282c0.193-0.345,0.38-0.695,0.552-1.053c0-0.001,0.001-0.002,0.002-0.003 c0.035-0.072,0.066-0.146,0.1-0.218c0.1-0.214,0.199-0.429,0.292-0.646c0.045-0.11,0.086-0.221,0.13-0.331 c0.074-0.186,0.152-0.371,0.22-0.56c0.045-0.126,0.086-0.255,0.13-0.384c0.06-0.175,0.122-0.349,0.176-0.526 c0.042-0.133,0.076-0.27,0.116-0.404c0.05-0.175,0.102-0.35,0.146-0.526c0.004-0.014,0.006-0.029,0.01-0.043 c0.016-0.054,0.025-0.109,0.037-0.163c0.07-0.287,0.136-0.575,0.193-0.866c0.022-0.121,0.042-0.242,0.063-0.363 c0.044-0.244,0.083-0.491,0.116-0.738c0.018-0.13,0.036-0.261,0.05-0.393c0.03-0.255,0.053-0.512,0.071-0.769 c0.01-0.118,0.021-0.235,0.028-0.353c0.021-0.374,0.035-0.75,0.035-1.129C558.414,201.966,558.4,201.59,558.379,201.217z"></path> <g> <path fill="#52399E" d="M184.531,445.93c34.7,27.39,76.459,41.866,120.764,41.866c107.562,0,195.068-87.507,195.068-195.068 c0-107.561-87.507-195.069-195.068-195.069c-107.562,0-195.07,87.508-195.07,195.069c0,46.282,16.496,91.158,46.451,126.36 c2.986,3.503,8.247,3.928,11.751,0.943c3.506-2.982,3.93-8.244,0.946-11.752c-27.391-32.187-42.476-73.222-42.476-115.552 c0-98.367,80.028-178.395,178.397-178.395c98.367,0,178.395,80.028,178.395,178.395c0,98.368-80.027,178.396-178.395,178.396 c-40.518,0-78.707-13.238-110.436-38.28c-3.613-2.852-8.855-2.234-11.708,1.38C180.299,437.838,180.917,443.078,184.531,445.93z"></path> <path fill="#FFFFFF" d="M306.946,121.03c-93.762,0-170.043,76.28-170.043,170.039c0,93.764,76.281,170.052,170.043,170.052 c93.758,0,170.043-76.288,170.043-170.052C476.989,197.311,400.704,121.03,306.946,121.03z M154.063,291.069 c0-22.165,4.755-43.206,13.239-62.218l72.928,199.81C189.228,403.885,154.063,351.582,154.063,291.069z M306.946,443.964 c-15.008,0-29.492-2.2-43.192-6.23l45.875-133.289l46.99,128.746c0.308,0.756,0.688,1.451,1.095,2.106 C341.823,440.889,324.748,443.964,306.946,443.964z M328.016,219.391c9.202-0.484,17.498-1.453,17.498-1.453 c8.235-0.974,7.264-13.082-0.978-12.6c0,0-24.762,1.944-40.749,1.944c-15.021,0-40.264-1.944-40.264-1.944 c-8.243-0.482-9.21,12.114-0.969,12.6c0,0,7.798,0.969,16.036,1.453l23.816,65.262l-33.46,100.342l-55.67-165.604 c9.21-0.484,17.496-1.453,17.496-1.453c8.233-0.974,7.259-13.082-0.978-12.6c0,0-24.759,1.944-40.746,1.944 c-2.869,0-6.25-0.07-9.84-0.186c27.337-41.5,74.325-68.907,127.738-68.907c39.798,0,76.039,15.218,103.237,40.14 c-0.658-0.042-1.303-0.124-1.979-0.124c-15.018,0-25.674,13.083-25.674,27.132c0,12.6,7.27,23.26,15.019,35.859 c5.812,10.181,12.603,23.262,12.603,42.163c0,13.083-5.032,28.269-11.633,49.423l-15.253,50.951L328.016,219.391z M441.1,217.726 c11.934,21.775,18.727,46.762,18.727,73.343c0,56.404-30.567,105.646-76.017,132.146l46.693-135.009 c8.721-21.812,11.625-39.251,11.625-54.759C442.128,227.819,441.758,222.595,441.1,217.726z"></path> </g> </svg> 