<svg xmlns="http://www.w3.org/2000/svg" width="130" height="130" viewBox="71.232 6.383 130 130"><g fill="#04759B"><path d="M81.744 71.514c0 21.621 12.436 40.273 30.618 49.036L86.596 49.423c-3.015 6.924-4.852 14.272-4.852 22.091zm91.381-2.732c0-6.688-2.543-11.493-4.615-14.979-2.779-4.616-5.276-8.29-5.276-12.907 0-5.087 3.91-9.656 9.185-9.656h.707c-9.655-8.997-22.563-14.272-36.835-14.272-19.077.235-35.658 9.892-45.55 24.636h3.439c5.747 0 14.508-.707 14.508-.707 3.015-.236 3.203 4.146.471 4.616 0 0-3.015.471-6.218.471l19.784 58.928 11.965-35.657-8.526-23.271c-3.015-.236-5.747-.471-5.747-.471-3.015-.236-2.544-4.616.236-4.616 0 0 8.997.707 14.273.707 5.747 0 14.508-.707 14.508-.707 3.015-.236 3.203 4.146.471 4.616 0 0-3.015.471-6.218.471l19.784 58.692 5.511-18.183c2.307-7.583 4.143-12.905 4.143-17.711z"/><path d="M137.232 76.366l-16.345 47.435c4.852 1.366 10.127 2.308 15.403 2.308 6.454 0 12.436-1.131 18.182-3.015-.236-.236-.236-.472-.471-.707l-16.769-46.021zm46.963-30.853c.236 1.837.471 3.674.471 5.511 0 5.511-.941 11.729-4.145 19.548l-16.581 48.095c16.11-9.422 27.179-26.944 27.179-47.199-.281-9.374-2.779-18.135-6.924-25.955z"/><path d="M136.291 8.018c-34.951 0-63.497 28.545-63.497 63.497s28.545 63.544 63.544 63.544c34.999 0 63.497-28.545 63.497-63.544S171.289 8.018 136.291 8.018zm0 124.261c-33.397 0-60.529-27.179-60.529-60.765 0-33.397 27.179-60.529 60.529-60.529s60.529 27.179 60.529 60.529c-.001 33.633-27.132 60.765-60.529 60.765z"/></g><g fill="#FFF"><path d="M-342.524-92.486c0 21.621 12.436 40.273 30.617 49.036l-25.766-71.128c-3.015 6.925-4.851 14.273-4.851 22.092zm91.383-2.732c0-6.688-2.545-11.493-4.616-14.979-2.779-4.616-5.276-8.29-5.276-12.907 0-5.087 3.91-9.656 9.186-9.656h.707c-9.656-8.997-22.563-14.272-36.836-14.272-19.077.235-35.658 9.892-45.551 24.636h3.439c5.747 0 14.508-.707 14.508-.707 3.016-.236 3.203 4.146.471 4.616 0 0-3.015.471-6.218.471l19.784 58.928 11.965-35.657-8.525-23.271c-3.016-.236-5.748-.471-5.748-.471-3.015-.236-2.543-4.616.236-4.616 0 0 8.997.707 14.273.707 5.746 0 14.508-.707 14.508-.707 3.016-.236 3.203 4.146.471 4.616 0 0-3.015.471-6.218.471l19.784 58.692 5.511-18.183c2.307-7.583 4.145-12.905 4.145-17.711z"/><path d="M-287.036-87.634l-16.345 47.435c4.853 1.366 10.127 2.308 15.403 2.308 6.453 0 12.436-1.131 18.182-3.015-.236-.236-.236-.472-.471-.707l-16.769-46.021zm46.963-30.853c.236 1.837.471 3.674.471 5.511 0 5.511-.941 11.729-4.145 19.548l-16.581 48.095c16.11-9.422 27.179-26.944 27.179-47.199-.281-9.374-2.778-18.135-6.924-25.955z"/><path d="M-287.977-155.982c-34.951 0-63.498 28.545-63.498 63.497s28.545 63.544 63.545 63.544c34.998 0 63.496-28.545 63.496-63.544s-28.545-63.497-63.543-63.497zm0 124.261c-33.397 0-60.529-27.179-60.529-60.765 0-33.397 27.179-60.529 60.529-60.529 33.35 0 60.528 27.179 60.528 60.529.001 33.633-27.132 60.765-60.528 60.765z"/></g></svg>